<svg xmlns="http://www.w3.org/2000/svg" xml:space="preserve" width="240" height="64">
  <path fill="none" stroke="#000" stroke-linecap="round" stroke-linejoin="round" stroke-width=".5" d="M34.1 1.9h.6m.6 0c-.6-.6 0 1.1 0 0m-1.2 0v.5m2.3 2.3c0 2.9-1.1-1.7 0-1.1.6 2.9 2.9-2.3 3.5-1.2-1.2 3.5 1.7.6 1.7.6M30 2.4c0-1.7 1.7 2.3 0 1.8 0 0 0-1.2 0 0m4.6-2.3v.5m.6-.5-.6.5m-8 1.8c0-.6-.6-3.5.5-1.2 1.2 1.7 1.2 3.5 1.2 4.6 0 1.7-1.7-.6 0 0m2.3-5.2c1.7-1.1.5 2.3 1.1 1.8M33 2.4V3h-.6m2.3-.6-.6 1.2m0-1.2.6.6m.6-.6c0 .6 0 0 0 0m-.6.6.6-.6m1.7 0-.6 1.2m15 .6c-1.8-.6 0-3 0-.6.5 2.3 1.1-1.7 1.1 1.1 0 1.8 2.9 2.9 1.7 0 1.8.6.6 3.5 1.8 1.2 0 1.7.5 2.3 1.1.6-1.1-2.3 2.9.5 0 1.1 0 .6.6 1.2-1.1.6M36.4 3h.6v-.6m-1.7 0 .5.6m-5.7-.6.6.6m3.4-.6V3m.6-.6v0m.6 0V3m0-.6V3M38 3h.6M33 3c.5-.6.5 1.2.5.6m.6-.6v0m.6 0v0m-2.9 0v0M33 3c-.6.6 0 1.7-1.2 1.7M34.1 3v0M33 3h.5m2.3 0v1.2M41.6 3v.6M28.4 3c1.7.6 0 2.3 0 0zm1.7.6v0m9.2 0c-.6.6-1.2 1.7-2.3 1.7l1.1-.6M37 3.6h-.6m11 2.3c1 0-1.2-3.5.5-1.7 0 .5.6 1.1 1.2.5m-24.7 0c-1.8-.5 0-1.7 0 0m5.1-1.1v0m9.2.6s.6-.6 0 0m1.7 0c1.2 0 0 1.1 0 0m-8.6 0h.6m1.7 0h-.6v0m8 0 .7.5m8.6-.5c1.7 1.1-.6 3.4-1.2 1.7-.5 1.1-1.1 0-.5-1.2m2.3-.5s0 0 0 0m0 0h.5m-.5 0h-.6m-23.6 0c1.2 2.3-2.3.5-.5 2.3-1.2 1.7-1.2-1.8-2.3-1.8M38 4.2h.6m-9.7 0c0 1.1 1.7 2.3-.6 1.7m.6-1.2h.5m4 0c1.2.6-1.7 2.3-.5 0h.5m4 2.3c-.4-1.7 3.6-3.4 2-1L37 7.6v0m15-2.9h-.6m.5 0v0l-.5.6m-20.2-.6c1.2 0-.5 1.2 0 0zm3.5 0c1.1.6-.6 2.3 0 1.8m7.5-1.8c0 1.8 2.8.6 0 1.8l-.6 1.7M24.4 4.7c1.7 2.9-4 .6-.6 2.3l.6-.5m10.3-1.2c-.6 0-1.2 1.7-1.2.6m11 3.4c1.7 0-.6-1.7.5-2.3-1.1-2.8.6-1.1 1.2 0 .6 2.9.6-2.3.6 0v0m-.6-.5c-.6-1.2.6-2.3.6 0M34.7 5.3v0m-12 0v.6m5.7 0v-.6m10.3 0v.6m7.5-.6v0m7.5 0v.6m-17.9-.6v.6h.6m-9.2 0h-.5m12 0h-.6v0m2.3.6c-2.3 0 2.3-1.2 0 0 0 0 0 0 0 0m-9.2 0c1.2 0-.5 2.8-.5.5-1.2-1.1.5-1.1 1.1-.5-.6-3 1.7 2.8 0 2.3m7-3v0m-.7 0h.6m8.6 0c0 .7-.5 0 0 0m3 0h.5m-3.5 0v0m-.5 0h.5m5.8 0L51.9 7M33.5 6v.6m5.2-.6v.6M34.1 6l-.6.6v0m1.8-.6c1.7.6 0 2.3.5 2.3M47.3 6l-.5 1m8-1.1v0M37 6.5c-.6.5-.6-.6 0 0zM52 7l.5-.5m-4.6 0c-.6.5 1.2 1.1.6 0m9.2 0H57m-23.6 0c-.5.5.6 1.7.6 1.1m.6-1.1c.6.5 1.1.5.6 1.1m8-1.1v0h-.6m13.3 0v0m2.3 0v0m-30.5 0v0m9.2 0v0m9.8 0v0m-23.6 0v0m8.6 0v0m5.2 0v0m5.2 0v0m-5.2 0V7M38 7v-.5h.6M25 6.5c1.8.5 0 1.1 0 0m5.2 0c-1.7 0 .6 2.3 0 .5m1.7-.5v0l.6.5m4.6-.5v1.1M40 6.5l-.6.5M37 7h.6-.6m-8.6 0h.6m1 0v0m4.6 0 .6 1.2m-4-1.2v0m6.3 0v0M45 7h.6m.6 0h.6m-7.5.6c-1.2 0 0-1.1 0 0m4.6-.6-1.2.6M45 7v0M24.4 7v1.2m25.2-.6c0 .6-.5-1.1.6-.6M60 7c0 .6 1.1 2.3 0 .6M37 7v0m6.9 0c-1.2 1.2-.6 1.2 0 1.2M49.6 7v.6m4 1.2c-1-1.8.6-1.8 1.8-.6 0 1.7-3.5.6-1.7 1.1M43.9 7h-.6m13.8 0v.6m-24.7.6V7m2.3 0 .6.6m6.3 0h.6m-.6 0v0m8.6 0c1.2.6-1.1 1.2-.6 0m-11.5 0h.6M41 8.8c-1.1 1.7 2.9 1.1 0 0 0-.6-.6-1.2.6-1.2m1.7 0v0m-1.1 0h-.6m1.7 0v0m-1.1 0h.5m1.2 0v0m4 .6c-.6 1.1 1.2-2.3 1.2 0m-5.8-.6v0m1.7 0v0m7 .6c-.6-1.2 1.7 0 .5 0v0m-28.1-.6c1.1-.6 2.8 2.9 2.8 1.7-.5-.5 0-1.7-1.1-1.7m16.6 0v0m-8.6.6.6.6m25.9-.6h.5m-16.6 0v0M29 8.2c2.8-.6 1.7 1.7 0 0v0m31 0c-1.7 1.1 1.1 1.7 0 0m-16.1 0c1.1.6-.6 1.1-.6.6m2.3-.6.6.6m5.2-.6v1.1M56 8.2v0m-11.5 0h-.6v0m-16.7 0v.6m28.2-.6c0 1.1 1.1 0 .6.6m-22.5-.6c1.8 0 .6 3.4-.5 1.1v-.5zm1.8 0c1.1.6 0 1.1 0 1.1M41 8.2v.6m2.3-.6v.6M56 8.2v0m0 0h.5m-7.4 0v.6m2.3-.6.5 1.1m-2.8-1.1c1.1.6.5 1.7 0 1.1m-15-.5v0m.6 0v0m6.3 0v0m6.3 0c1.8.5-1.7 1.1 0 0m-6.3 0v0m20.7 0c.6 0 0 1.1.6.5m-27.6-.5h.6m8.6 1.7s-2.9-1.7-.6-1.7m.6 0v0m9.8 0H53m-13.8 0-.6.5m9.2-.5 1.2.5m6.9-.5c0 .5 1.7 1.7-.6 1.1-1.7-.6-3.5 4-1.2 1.7 1.2-2.3 1.8 1.7.6 1.2v0M61 9.9c.6 1.7-3.4 1.2-.5 0l1.1-1.1m-7.5 0v0m-2.3 0 1.2.5m.6-.5v0m-14.4 0c.6 1.1-.6 2.3-.6.5m-2.9-.5v0m23.6 0c-2.3 0 1.2 1.1-1.1 2.3 0 1.1-.6 4-2.3 2.8l1.1-.6m-36.8-1.1c2.3-1.1-1.7-4 .6-2.9l.6.6M49 8.8v.5m-16.7 3.5c-.6-1.2-1.7-4.6 0-3.5v0m2.9 0v0m0 0v0m4 0h.6m8.6 0v0m4.6 0v0m-1.2 0h-.5v0m1.1 0c-1.1 1.2.6 1.2 0 0m-33.9 0c-.6 1.2 0 1.2.6 1.2l-.6.6M21 9.3v0m6.9 0 3.4 3.5c0 1.7-3.4.5-2.2-.6m10.3-2.9v0M17 10.5l1.7-1.2m26.4 0h.6m14.4 0 .6.6m-42-.6v0m1.2 0v0m31.6 0v0m-19 0v0m1.1 0v.6m28.2-.6v.6m-14.4-.6c1.2.6 1.8 1.2.6 1.2m2.9-.6h.6m10.9-.6c-1.2 2.3.6 1.8.6 1.2M19.8 9.3v.6m-3.5 0h1.2m2.8 0v0m31 0v0M33 9.9s.5.6 0 0m12 0c1.8 0 0 1.2 1.2 1.2m6.3-1.2v0m-32.2 0v0m9.2 0h.6m4 0v0m-17.8 0h-.6m19.6 0v1.2m-9.8 1.1c-1.1-.6-2.3-1.7 0-1.1 1.2 1.1 0-3 1.2-.6-1.2 1.7 1.7 2.3 1.7.6v1.1m6.3-1.1.6-1.2m28.1 0s0 0 0 0M48 9.9v.6m2.9-.6h.6m-32.8 0v0m.6 0v0m2.3 0v.6m21.2-.6v0m7.5 0h.6m1.1 0v0m-31.6 0v0m13.8 0v0m-17.8.6.6-.6h.6m15.5 0v.6m14.3.6c-1.1-2.3 1.8 1.1-.5 0v0m4-1.2v.6m-34 0s0 0 0 0m0 0v0m16.2 0h.5m-16 0c1.1 1.1-1.2.6-1.2 1.1m21.8-1.1c2.3.6-.5 3.4 0 2.3m9.8-2.3v0m2.9 0v0m-34 0v0m4.1 0v0m12.6 0c0 1.1-1.1-.6-1.1.6v0M18 10.5s.6.6 0 0m26.5 0v0m6.3 0h-.6m-33.3 0v0m17.8 0v0m11.5 0v0m4.6 0v0h-.6m-8.6 0c1.7.6-.6 2.3 0 0m5.7 0-.5.6m16.6-.6c1.8 1.1-2.8 2.3.6 2.3v0-.6m-31.6-1.7h.6m0 0v.6m10.9-.6c0 1.1 4 3.4 2.3 1.1m.6-1.1v0m-28.2 0v0m19.5 0v2.3m-19-1.7-.5-.6.6.6m32.2.5c-.6-.5 1.1-1.1 0 0m-30-.5c-1 .5 3.5 1.7 1.2 1.7m11-1.7.5.5m5.2 2.3C38 12.2 41 10 41 12.2c-.6 1.7-1.7 1.7-2.9 2.9-.5-1.2 1.2-.6 0-.6m3-3.4v0m5.7 0v0m-25.9 0v0m23.6 0v.5m-28.8 0c-1.1-.5 1.2-.5 0 0v0m.6-.5v0m2.3 0-.6 1.1m29.3-1.1v0m-32.1 0h.5m18.4 0c2.9 2.2-.6 3.4-.6 1.1l1.2 1.1m16.7-2.2v.5m-35 0v-.5m34.4 0c0 .5 1.1 1.1 0 1.7m-31.6-.6c1.1-1.1-.6-.6 1.1-.6m5.8-.5v.5m-7 0v0m-2.8 0h.6m44.2.6c-2.3 1.1-1.1-1.1 0-.6v.6m-10.3-.6c-.6.6-.6 1.2.6 1.2m.5-1.2v0h-.5m7.4 0h.6m-42.5 0-1.2 1.7m5.2-1.7c-.6.6 1.2.6.6.6m-5.2-.6v0m27 0s3.5 2.3 1.2 2.9l-1.2-2.3m19 0c-1.2 0-.6-1.1 0 0m-43.7-.6v.6m9.8-.6v.6m26.4-.6v1.2m-35.6-1.2v.6m24.1 0s0 0 0 0m4 0c1.8 0-.5.6 0 0zm16.1 0v0m-47 0v0m1.6 0v0m42.6 0h.5m-36.7 0c-.6.6 2.8 1.1 1.7 2.9-1.2.5 2.9 1.1.6 1.1v-.6m-7.5-3.4v0m11.5 0v0m-10.4 0v0m34.5 0 .6.6M18 12.2v.6m32.2-.6h-.6zm-25.3 0h.6m-5.2 0c-.5 0-.5-.6 0 0m-3.4.6c0-.6 1.1 1.7-.6 1.1 0 0 0 .6 0 0m2.9-1.7L18 13.3m1.8-1.1v0m18.3 0v0m-19 0v0m3 0 .5.6v0m19.6 1.7c-1.8 2.9-1.8-1.7 0-2.3h1.1m5.8 1.1c-.6-1.1 1.1-1.1.5 0m-36.2 1.2c.6.6 3 0 1.8-1.7h1.1m2.9-.6v0m.6 0v0m-3 0v.6m15 .5c-1.7 1.8 2.3.6 0-.5-.6-1.2 0 .5 0 0M56 13.9c0-1.7.5-1.7 1.1-.6m1.7-.5c0-1.2.6 0-.5.5m-40.8-1.1.5.6v0m1.8-.6v.6m31.6-.6v.6m2.8 0v-.6m-37.9.6h.6m15.5 0c.6 1.1 4 4.6 4 3.4m-19-3.4v0m2.4 0v0m23 0c-.6 1.1 1.7 2.3 1 3.4m10.4-3.4v0m-28.1.5c-.6-1.1 3.4 1.2.6 1.2v-1.2m27.5-.5c.6.5-1.7 3.4.6 1.7 1.2.6 0-.6 1.2-1.2m-40.8-.5v0m16.6 0 .6.5m20.1 0 1.7-.5m10.4 0h.6m-45.4 0c-1.2 1.1-.6 1.1 0 2.3m27-2.3c1.1 0-.6.5 0 0m-20.7 0v0m8 0v0m2.3 0c.6 2.3-1.1.5 0 0m17.8 0h.6m9.2 0v0m-9.8 0c-.5 1.1-2.3 1.1-2.3 1.1v0m-34.4-.6v-.5.5m2.3-.5v1.1m9.2-.6c0 3-2.3-1.7 0 0m25.8-.5v0m-31.6 0 .6 1.7M18 13.3v0m2.3 0h2.3m42.6 0c-2.3.6-.6.6.5 1.8-1.1-.6-3.4.5-2.3 1.7l1.2-1.2M18 13.3v0m3 0v0m39.6 0c1.7.6-2.3 1.2 0 0zm-44.9 0c.6 0 0 0 0 0m34 0H49m-30 0v0m43.2 0c2.3 0-.6 1.2 0 0m-33.3 0v0m16.6 0c1.2 0-.6 1.2 0 0zm-25.8 0h.5m8.7 0v0m2.2 0v0m7 .6h1m8.7-.6c1.7 2.3-1.1 1.2 0 0m-27.6 0-.5.6m32.7-.6-.6.6m2.3 0v-.6 0m-37.9 0v.6m31.6-.6v0m-31 0h.6m11.5 0v.6m25.2 0v-.6m-1.1 0v.6m6.3-.6c1.2 1.2-1.7 1.2 0 0m-40.8.6h.6m1.1 0H22m3.4 0c-1.1 0 0 1.2 0 0m8.6 0c1.2 0 1.7.6 1.7 1.2m18.4-1.2s-.5-.6 0 0m-37.9 0v0m1.2 0c.5.6-.6 0 0 0zm1.1 0h.6m-2.9 0h.6m11.5 0h.6m-12.7 0v0m.6 0h.6m29.3 0c1.7 0 0 1.7.5 1.2m-31-1.2c-.6 1.2-.6 0 0 0zm.6 0v0m5.2 0h1.1m13.2 0v.6m-19-.6c1.2.6 3.5 4.6 1.2 1.7 0 .6.6 2.3-1.1 1.2v-.6m1.7-2.3v0m0 0v.6m2.9-.6v.6m8.6.6c-2.9.5.5-2.3 0 0m31.6-.6c-2.3 1.7-2.3-1.2 0 0m-30.5 0v0m25.9 0c1.1 0-.6.6 0 0zm-25.9 0v0m-12.6 0v0m21.8 0v0m5.8 0v.6m-23-.6c1.7 0 .6 1.7 1.1 1.1v0m1.8-1.1h.5m21.3 0v0m-32.8 0h-.5m30.4 0c2.3 1.1-1.1 1.7 0 0zm-32.2 0v0m7 0 1 .6m-1-.6v0m13.7.6c1.2.5 1.2 3.4-.6 1.7-.5-.6-1.7-3.5.6-1.7zm-12-.6 1.1.6m.6-.6c1.1 1.1-1.2 1.1-.6 2.3m27-2.3H52c1.2 0 1.2 1.1 1.8.6m3.4-.6h.6m0 0h.6m-40.3 0v0m4 1.1v-1.1m28.8 0v.6m11.5-.6v0M40 15.6c-.6-.5 1.1-1.1 0 0v0m-26.5-.5c1.2.5.6 1.1 0 1.1m7-1.1s0 0 0 0m-9.8 0h.5m5.2.5c.6-1.7 1.2.6 1.7.6m1.8-1.1h.5m-.5 0v0m40.8 0h.5m-19 0 1.2 1.1m-32.2-1.1c1.2 0 3 3.4 0 2.3H10m4.6-2.3v1.7m36.2-1.7v0m2.3 0h.6m6.9 0v0m-11 1.1c-1.1.6 1.8 0 .6-1.1m-39.6 0 1.1 2.3M18 15h.6m4.6 0 .6.5m2.9 0c1.1-1.7 1.7 1.2 1.1 2.3m8-2.8v1.1M61.1 15h-.5m.5 0c3.5 0-1.7 4-.5 0m-44.3 0v0m30.5 0h.5m-23.5 0-1.2 1.1M47.3 15v.5m4-.5v.5M21.5 15h.6m6.3.5C29 14 30 18 30 15.6c1.1 0-1.1 5.2-1.7 1.8v-1.2m25.8-1.1v0m-32.1 0v.5h-.6m16.6-.5v1.1m13.3-.6h-.6v0m-27.6 0v0m27.6 0v0m.6 0v0m8 1.2c0-3.5 1.7 0 0 0zm-13.8-.6c-.6 1.7-1.7-1.7-.6-.6m5.8.6c.6 0 1.1-1.1 2.3-.6m-42.5 0v0m5.7 0c.6 0 1.2.6.6 1.2m19-1.2v0m-24.8 0v0m11.5 0v0m2.3 0c1.2.6 2.3 3.5 3.5 3l-.6-.7v0m2.9-2.3v0m8 1.2c-1.7 4 0-3.5.6 0 0 1.1-1.2-.6 0-.6m-23 0c-.6-1.1.6 2.9.6.6m-2.3 0c.6.6.6-1.2 1.1-1.2m0 0v0m-1.1 0v0m13.8 0v.6m29.9-.6c1.7.6-1.2 1.2 0 0zm-36.2.6c-1.8 0-.6-1.1 0 0m-4.6 0 .5-.6m5.8 0 .6 1.2m2.8-1.2h.6m-9.8.6v0m2.3 0c1.2 0-.5.6 0 0zm2.3 0h.6m45.4 0c1.1 1.7-5.2 1.2-1.7 1.7v0m-54.6-1.7v0m5.7 0v0m4.6 0h.6m-5.7 0zm14.3 0c-.6-1.1.6 1.7.6.6m33.3-.6c.6 1.2 1.7 0 2.9 0m-26.4 0c.5 1.2-2.3 1.7-1.2 0zm15 0c.5 0-.7.6 0 0zm-26 0v0m-20 .6c-1.2 0 0-1.2 0-.6m13.2.6 1.1-.6m5.7 2.9v-2.9s0 0 0 0m8 0c1.2-.6 0 2.9-.5 1.2M14 16.2c.6.6-.6 1.2-1.1.6m19-.6v0m33.8 0h-1.1m-39.7 0h.6m13.8 0v0m5.2 0v0m5.1.6 1.2-.6m-38 1.2c-1-.6-1-1.8 0-.6m7-.6v0m5.7 0v1.2m23.6-1.2.5.6m-33.9 0h.6m20.1 0s0 .6 0 0m13.8 0v0m-20.1 0v0m20.1 0h-.6v0m-26.4 0v0m6.9 0v0m6.3 0v.6m0-.6v0m7.5 0c.6 1.7-3.5 2.9-1.7.6l1.1-.6m-12.6 0v0m-15.5 0v0m14.9 0v0m0 0v0m29.3 0v0m-36.2 0 1.2 1.1m3.4-1.1v0m20.7 0c-.6.6.6 0 .6.6m10.3-.6v0m-15.5 1.1c0-2.3 3.4 0 .6 0-.6 0 0 0 0 0m-34-.5.6-.6v0m34 0v.6m9.7 0c1.2-1.2 2.3 1.1 0 0m9.8-.6v0m-41.4 0v.6m4.6-.6v0m28.2.6c2.3-.6 3.4 1.1 1.1 1.1l-.6-1.1m5.8-.6v.6m2.3-.6c2.8 1.1-4 1.7-1.2.6h1.2m-32.2 0c0 1.1 1.1 1.7 0 2.8 0 1.2-1.7-.5 0 0m6.9-2.8v0m-13.8 0c1.2 0-.6 1.1.6.5m10.3-.5s0 0 0 0m0 0c.6.5-.6 1.1 0 0m12.7 0s0 0 0 0m-18.4 0v0m-20.7 0v0m1.1 0v0m12.7 0v0m10.3 0c-.6 1.1 1.7.5.6 1.7-.6 1.7 1.7-.6.6 1.7-.6 1.2.5.6.5.6m12.1-4v.5m8-.5v0m-6.8 0-.6.5v0m-29.9-.5v0m20.7 0s-.6 0 0 0m-15 0v0m11 0c1.1 0 .5 2.8 1.1 2.8m2.9-2.3v-.5m-27.6 0v0m1.2 0-.6.5m49.4-.5v.5m-45.4-.5v0m9.8 0-.6.5m27 0c1.2-1.1 2.3 1.8 0 .6-2.3.6 0-.6 0-.6m9.8 0h-.6m-37.3 0h.5m14.4 0v0m9.2 0v0m4 0h.6m-39.7 0c.6-.5.6 1.2-1.1 1.2l-1.7.6M22 17.9c1.7-.5 1.1.6-.6.6V18m3.4 0c.6.6-2.3 0 0 .6v0m-9.7-.6c-.6 0 .5 0 0 0m0 0c1.7 0-.6 1.2-.6.6M53 18v0m12 0h1.2m-53.4 0v0M26 18v0m12.6 0h.6m-15.5 0h.6m15.5 0c1.7 1.2-1.2 1.8 0 0zm-25.3.6V18h.6m22.4 0h.5m9.8 0h.6m18.4 0c2.3.6-2.9 0-1.2 1.8-1.1 0-2.3-.6-.5.5-1.2 0-3-.5-3.5 1.2m-43.6-3c1.2-1.1 1.8 0 3 0m4-.6h.5m31.6 0v0M17 18h.6m8 0v0m-6.3.6V18h.6m0 0v0M48 18v0m8 .6c-2.2 1.2-1.7-1.1 0 0m11-.6h.5M17 18v0m-.6 0v.6m43.7.6c-.6.6-.6-1.7.6-.6 2.8-.6-1.2 4.6-1.8 2.9m-12.6-2.9c-.6.6-3.5 1.2-1.7 0h2.3m5.1 0v0m-36.7 0h.5m3.5 0v0m11.5 0c0 2.9-1.7.6-.6 0m-3.4 0c-.6 1.2.5-1.1.5.6m3.5-.6v0m-4 0v0m20.6 0v0m-31.6 0v0m12.1 0v0m16.7 0v0m-24.2 0s-.5.6 0 0m4.6 0 1.2.6m-.6-.6c.6-.6.6 0 .6.6m-8.6-.6c.5 1.2.5 0 .5 0m33.4 0s0 0 0 0m-34 .6c.6.6 1.8-1.2 2.4 0m0-.6h.5m5.8 0v0m31.6 2.3c-2.3-1.7-.6-2.3.6-.6L57 21.4m8.6-2.9v0M7 18.5c-.6.6 1.7.6 1.7 1.2m9.8-.6v-.6m7.5 0v0m1.7 0v.6m-20 1.1c0 .6 1.7 0 0-.5L7 19m7 0c1 .6 2.8-1.2 2.2 1.1v1.2m2.3-2.3v0m27.6 0v0m-19.5 0h.5m7 0h.5m16 0c-1 .6.7-.6 0 0M18 19v0m1.2 0h2.3m-5.2 0h.6m41.4 0c1.7 0-1.2 1.1 0 0M18 19v0m20.7 2.3c-1.7-1.2 1.7-3.5.6-1.2-1.2.6-1.7 3.5-1.2 1.8m7-3v0m-31 0v0m48.8.7c-1.8 0 .5-1.2 0 .5M20.3 19v0m5.8 0c-.6 0-.6 0 0 0m27.6 1.1c1.7-2.3 3.4.6 0 .6v0l-.6.6M31.2 19s0 .6 0 0M52 19c1.8-.6 0 2.3-.5 2.3v0M7.7 19v.6m3.4 0c.6.5 1.8-.6 3-.6m2.2 0h.6m0 0v0m34.5 0c1.1 0-1.2 1.1-.6 1.1M66.3 19c2.9 0 1.7 1.7-.6.6M26.1 19c2.3 1.7-2.3.6-.6 0v0m0 0v0M60 19c1.1.6-1.7 1.1-.6 2.3h-.6M15.2 19h.5m5.8 0 1.1.6m9.2 0h.6m15.5 0h1.7m1.8 0V19m-38 .6V19m3.5 0v1.7m9.2-1.7-.6.6v0m23.6 0v0m-31 0h.5m12.6 0v0m10.4.5c-.6 0 2.9-1.1 1.1.6.6 2.3-1.7 3.5-2.8 4 1.7.6-1.2 1.8 1.1 1.2.6 1.1 0 1.1-.6 1.1m10.4-7.4c.6 0-.6 0 0 0m-33.3 0h.5m-.5 0v0m1.7 0h-.6v0m32.2 0v0M7 19.7v0m15 0v0m22.4.5c-.6.6 0-1.1 1.7-.5 0 0 0 0 0 0m6.3 0h.6m-4.6 0h.6m-40.3 0v0m20.2.5c-1.2-1.1 1.1.6.5 0v0m1.2-.5-.6.5m-21.3-.5 1.2.5m1.7-.5v0m11 0 1.7.5M11 19.7v0m14.4 0v0m5.2 0v.5m15.5-.5-1.7.5m5.1-.5h.6m.6 0v0M29 20.8c.5 2.3-1.8 1.2-1.8-.6.6-.5 1.8.6 1.2.6m20.7-.6v0l.5-.5m3.5 0h.6M20.3 22c0 .5-.5-3.5.6-1.2-1.1 1.2 1.7 3.5.6 2.3m4.6-2.9v0m23 0c-.6 0 0-.5 0 0m0-.5v.5m6.9-.5h.5m-14.3.5h-.6m6.9 0h.6m2.8 0h.6m-6.9 0h.6m7.5 0H53v0m-35 .6c-1.2 1.2 1-1.7.5.6h.6m6.9-1.2v0m4.6 0v0m13.8 0h.5m.6 0v0m7.5 0v0m-12.7 0h1.2m10.3 0c-.5 0 0 0 0 0m-15.5 0V22m14.4-1.8h.6m-13.3 0v0m9.8 0c.6 0-.6 0 0 0zm.6 0v0m2.9 0h.5m0 0v0m3.5 0v0m-38.5 0v0m2.9.6v-.6m4.6 0s0 .6 0 0m4.6 0c0 .6 1.7 1.2 1.1 0m-11 0v0m.7 0v0m9.7 0v0m22.4 0v0m-32.1 0v.6m10.3-.6v0h-.6m20.1 0s-.5.6 0 0m1.8 0v0m1.7 0v.6m-45.4-.6v0m2.3 0c0 .6 0 0 0 0zm0 0c.6.6 2.3 0 1.7.6m9.2-.6v.6m27-.6h.6-.6m1.2 0s0 .6 0 0m2.3 0v0m-43 1.2c0-.6-2.3 0-.6-1.2m39.6.6v-.6h.6m.6 0h-.6m.6 0h.6m.5 0c1.2 0-.5 1.2 0 1.2M10 20.2l-.6.6M14 22c0 .5-1.1-2.3.6-.6 1.7.6.6-1.7 1.7-.6m2.9-.6v.6m5.2-.6c2.8.6 0 4 2.3 3m21.8-3v0m-36.8.6h.6-.6m37.4 0v0l.5-.6M48 21.4c.6.6-1.1 0-.6-.6m4.6 0v0m-39.6 0h1.1m15 0h.6m11.4 0c-1.1 1.7 4-.6.6 1.7-2.3 1.2 2.3 1.2 0 0v0m6.3-1.7v0m-36.7 0v0m40.8.6c-.6-.6 0-.6.5-.6m-22.4 0H29m-8.7 0v0m38.5 0v0m-47 0v0m19.4.6c-.5 1.1-1.1-1.2 0 0m5.2-.6v0m5.8.6v-.6h.5m-25.2 0v0m1.1 0v0m3.5.6c.5-1.7 2.8 2.3.5.6l.6-.6m-15.5-.6v0m9.2 0v.6m1.1-.6.6.6m1.7-.6v.6m-13.2-.6v.6m11-.6-.6.6v0m1.1-.6v0m5.2 1.2c0-1.8 1.1 0 0 .5m28.7-1.7v0m-45.4.6v0m11 0v0m14.9 0c0-.6.5 0 0 0zm5.1 0v0m11 0s.5 0 0 0m-40.8 0c0 .6 1.7-.6 1.1 1.1m52.3-1.1c1.7 0 2.3.6 3.5 1.7h.5m-52.3-1.7c-.5 0-.5 0 0 0zm1.8 0v0M43.3 23l1.7-1.7m-9.7 0s-.6 0 0 0m13.2 0s0 0 0 0m1.1 0v0m1.2 0c-2.3 1.7-.6-.6 0 0m-39 .6c.5.5 1 0 1-.6m20.7 0H33m15.5 0h.6m-27 0h.5m24.7.6c-1.7 2.3-.5-1.8 0 0m.6-.6v0m-33.3 0v0m.6 0v0m2.8 0h-1m29.9 0v0m-35 .6 1-.6m6.4 0 .6.6m12 0h.6m-8-.6 1.1.6m3.5-.6c1.1 0 .5 1.1 1.1 1.1m5.7-1.1h.6m7.5 1.1c-.6-.5 0-1.1.6-1.1m-34 0v0m6.4 0v.6m9.8 0v-.6m2.8 0v.6M18 21.4v.6m25.9-.6.6.6m2.3-.6v0m4 0v0m10.3 0c1.8 1.1-1.1.6 0 0zm-50 .6c-1.7.5-1.1-1.2 0 0m8.7 0v.5M10 22v0m2.9 0H14m15.5 0v0m6.3 0v0l-.5.5M56 22c.5 1.1-3 0 0 0m1.1 0c2.9-.6-.6 1.7-.6 0 .6 0 0 0 0 0m-35 .5c-.6-1.1.6-1.1.6 0m4.6-.5v1m2.8-1.1h.6m20.7 0h-.6M21 22v0m1.7 0v0m3.5 0v0m2.9 0 .5 1.7m6.3-1.7v0m11.5 0h.6m-21.2 0 .5 1.7m9.2-1.7v0m0 0v0m-12.6 0v0m8.6 0c1.1.5-.6 1.1 0 .5m28.2-.5h.5M9.4 22v0m4.6 0 1.2.5M22 22l1.1.5m9.2-.5v0m-21.8 0v0m12.6 0v0m12 .5.6-.5v0m28.8 0v0m-44.8 0v.5M26 22v0m10.3 0v0M8.8 22c-1.1 0 .6 0 .6.5m25.9 0V22v0M8.8 22v0m4 .5c0 1.2 0-.5 1.2-.5m5.8 0v.5m13.7-.5c2.3 1.1 0 2.3 0 0m3 0v1m18.8-1v0M7 22l1.2.5m14.3 0V22v.5m1.2-.5v0m12.6 0v0M30 22v.5m1.7-.5v.5m21.3 0c.6-.5.6.6 0 0m-45.4 0h.6m.5 0h-.5m2.8 0h-.5v0m19.5 0h1.1m31.7 0c1.1.6-1.2.6 0 0m-39.1 0h.6m4.6 0c-.6 0 0 0 0 0m1.1 0v0m5.7 0h.6m1.7 0v0m5.2 0h.6m-28.7 0-1.8.6m15-.6h.6m1.7 0v0m15.5 0c.6 0 0 0 0 0m6.9 0v0m5.7 1.2c0-1.7 3.5-1.7 1.2 0-1.7-.6-.6 1.7-1.2.6v0M18 22.5c-1.1 1.2-2.8 0-.5 0h.5l.6.6m17.8-.6v0m7 0v.6m.5-.6v0m8 .6c-.5-.6 0-.6 1.2-.6m-34 0h.7m4.6 0c.5-.5 1.1 1.2 0 .6m4-.6v0m17.8 0v0m-17.8 0v0m9.7 2.3c.6 0 .6-2.3 2.3-2.3m-32.7 0c0 1.2 1.7.6 2.3.6m13.2-.6v.6m29.9-.6-1.2.6m-44.2 0c-1.2.6-1.2-.6 0-.6m5.2 0v0m23.5 0v.6m28.2 0h.6m-41.4-.6v0m7.4 0c1.2.6.6 3 .6 1.8m-8-1.2v0m25.8.6c.6-.6 2.3-1.2 1.8 0m-34-.6v0m7.5 0v0m6.3 0v0m-18.3 0-1.8.6c-.5 1.1-2.8.6-.5.6M23.8 23v0m10.3 0v0M6.5 23v0m18.4 0c.6.6-.5.6 0 0m-12 0 4 1.2M34 23h.6m31.6 0c0 1.2-.6-.6 0 0l.6.6m-42-.6h.6M49 23c1.1-.6.5 1.7-.6 1.2M7 23v0m21.9 0v.6M30 23l-1.1.6m4.5-.6h.6m32.2 0v.6-.6M9.9 23c.6.6.6 0 0 0m.6 0c.5 0 0 .6 0 0zm10.9 0v0m3.4 0v0m25.3 0 .6.6m-38-.6v0m16.7 0v0l.6.6m35 0c1.8.6-4.5 0 0-.6m.6 0v0M9.9 23v.6m.6-.6v.6h.5m8.7 0h.5c3.5 1.7-1.7.6-1.7 1.7m11-2.3v.6M49 23l-.6.6v0m1.1-.6v.6m.6-.6v.6m8 .6c-2.8 1.7-1.7-2.3 0 0m-41.3 0c0-1.2 1.7-.6 2.3-.6m10.3-.6v.6m3.5 0c1.7 0 0 2.3 0 0zm6.3-.6v.6m26.4-.6v.6m-47.7 0v0m.6 0h.6m3.4 0c1.8.6-.5.6 0 0zm6.4 0v0m2.8 0v0m-2.8 0v0m20.6 0h.6m.6 0v0m15.5 0c1.1.6 5.2 0 1.7 1.1-2.3-.5-1.7.6-.6 1.2 0 0 1.2-.6 0-.6m-48.2-1.7v0m5.7 0h.6m38.5 0v0m2.3 0v0m-48.3 0v0m32.2 0h.6m16 0v0m-40.1 0v0m-15.6 0v0m51.8 0h.5m-44.8 0v0m11 0v0m5.1 0c1.1 1.1-.6 1.1 0 0zm24.7 0v.6m6.3 0 1.2-.6m-.6 0v0m-49.4 0v0m1.7 0v.6m29.3-.6h.6m-.6 0h.6m-19.5 0 .5.6m-9.7-.6v0m-1.2 0v0m.6 0h.6m29.3.6h.5m-1.7 0v-.6m-27.6 0v.6m-1.1 0h1.1m27.6 0h.6m-24.7 0c.6 0-1.2 0 0 0m10.3 0h.6m-24.7 0v0m13.8 0c1.7 0 5.2 1.1 4.6 2.3h-1.7m8-2.3h.6m-17.8 0v0m.5 0v0m30 0v0m-24.8 0v0m6.9 0c-.6-.6.6 2.8.6.5h.5m23.6-.5c2.9-.6 0 1.7 0 0M14.6 26c0 .6 1.7.6 0-.6-2.9-2.3 2.3.6 1.7-.6v0m1.2-.5v0m2.3 0h-.6m-9.8 0v0m1.2 0v0m20.6 0h-.5m17.8 0v0m5.7 0c-1.7 0-1.7 2.8 0 .5v0-.5m-30.4 0c.6.5.6.5 0 0m-14.4 0v0m8.6 0v0m1.2 0v0m10.9 0-.6.5v0m-10.9-.5v.5M47.3 26c-1.7-1.2 1.2-2.3 1.2-.6l-1.2.6m-33.9-1.7v.5m17.8-.5v.5m-12.6-.5v.5m0 0v0m11 0v0m35.6 0c1.1 1.2-1.8 0 0 0v0m-40.8 0 1.7 1.8m4.6-1.8h.5m32.2 0c1.8 0-1.1 1.2 0 0m-32.2 0V26M48 24.8v0m-16.7 0v0m8.7 0v0m1.1.6c1.7-1.7.6 1.2 0-.6m-27 0v0m5.8 0v0m10.9 0h.5m-8.6 0c1.8 0 2.9 2.3.6 1.2zm16.1 0v0m2.3 0v0m-2.9 0v0m-14.9 0v0m37.4 0c1.7 1.8-4 .6 0 0v0m-29.4 0c2.3 1.2-.5 3 0 1.2m0-1.2v.6m7.5-.6V26m-20-.6c-.7.6 1 0 1.6 1.2h.6m31-1.2c0 1.2-1.7 0 0 0m-21.2 0v0m39.6.6c-1.7 0 1.2-.6 0 .6 1.2-.6 2.3-2.3 2.3 0 1.2.5 1.2 1.7-1.1 1.7-3.5 1.1 1.1 1.7 2.3.6.5 0 2.3-.6.5.5 0 .6-1.7 1.2 0 .6M17 25.4c1.1 1.2-.6 2.3-1.2 1.7-1.1 1.2-1.1-.5-1.7-.5m30.5 0c1.7-3 2.8 1.1 0 .5 1.1.6-.6 1.2-1.2 1.8M64 25.4v0m-43.7.6c-.5-.6 1.2-.6 1.2-.6m11.5 0c.5 0 2.3 1.7 1.7 2.9m16.7-2.9v.6m6.3.6c-2.3-.6 1.7-1.8 0 0 .6 1.7 1.1 0 0 0m-36.2-1.2v.6m49.4-.6v0m-38 0c.6.6 0 4 1.2 2.3M55.4 26c1.1-1.2 1.1 1.1 0 0zm-36.8-.6v.6m38.5-.6v0m-15.5.6H41m-19.5 0-.6.6m20.7-.6H41m-21.8 0h.6m31.6 0v0m-32.8 0v0m-2.3 0 .7 1m1.7-1.1H18m44.3 0v0m5.7 0h-.6M29 26c.5 0 1.1 0 .5.6m19.6 0c.5 0 .5-1.2 1.1-.6m-39 0c1-.6 0 2.9 1.7 1.7v-1.1M38 26v.6m10-.6c.6-.6 1.2.6 0 .6m20-.6v0m-38.5 0c-.5.6 1.2 1.1 0 .6m20.1-.6h.6m-20.7 0v0m-18.4 0c-.5 2.9-2.3 1.1-3.4 0-.6 1.1-.6 0 0 0m8.6 0v1m38.5-1h.6m14.3 0-1.1.6M15.2 26v.6m0-.6v.6m4.6-.6c-1.2.6 0 .6 0 .6m30.4-.6v0m12 .6c1.2-.6 1.2.5 0 0m-57.4 0h.6m9.8-.6v0m23.5 0c-.6 1.1 0 2.3.6 1.7M49.6 26v.6l.6-.6m3.5.6c2.8.5-3 1.1 0 0M72 26v0m-57.4.6h.6m12.6 0h.6m2.8 0v0m18.4 0v0m14.4 0c1.7 0-.6.5 0 0zm-59.2 0v0m15.5 0c0 .5-1.7 1.1.6 1.7 0 0 .6-.6 0 0m17.8-1.7v0m-33.3 0h1.1m12.1 0h.6m2.3 0h.6m-15 0c.6.5 0 0-.6.5m21.9-.5v0m1.7 0v0m29.9 0c2.3 1.1-2.3 1.1 0 0m-55.2 0s.6 0 0 0m11 0c-.6 0 0 .5 0 0m-3 0v.5m28.2-.5v.5m-32.7-.5v0m4.6 0v0m6.9 0v.5m.5-.5v.5m.6-.5v0m23.6.5c-.6-.5 0-.5 0 0m12.6 0c-1.1 1.2-3.4-.5-.6-.5l1.2.5M6 26.6v0m23 0v0h-.6m3.4 0 .6 1.7m-12-1.2.5-.5v0m9.2 0-.6.5m31.6-.5c1.2.5 4.6 1.1 2.3 1.7 0-.6-1.1 0-1.1-1.2m-57-.5v.5m3-.5v.5m13.8-.5v1.1m22.4-1.1c-1.2.5-.6 1.1-1.2 2.3M5.3 27v0m9.9 0h.5m23.6.6c.6-1.1.6-1.1 1.1-.6m20.7 0h.6M7.1 27h-.6v0m12.1 0-1.7.6m35-.6c0 1.2-1.7 0 0 0m-37.3 0H14m-8 0c-.6-.5 1.1.6 0 .6m9.7-.6v0m3 0h.5-.6m6.3 0c.6 1.2 1.8 0 0 0M5.4 27H6m22.4 0c2.3 3-3.5-.5 0 0zm16 0v0m-32.7 0v0m2.3 0h-.6m60.4 0v0m-54.6 0h-.6m1.2 0v0m12.6 2-.6-1.8m2.9 0v0m-17.8 0h.6m48.2 0c1.2 0-.5 1.2 0 0m-52.8 0v0m5.7 0v0m4.6.6c.6-.6 2.3 2.3.6 1.2 0 .5 1.1 1.1.6 2.3m-7-4v0m11 0v0M6 27.1l.5.5m.6-.6.6.6m11-.6v.6m25.2-.6v0m5.2.6c-1.8.6-.6-1.1 0 0m-42.6 0h.6m.6-.6-.6.6v0m12.7-.6-.6.6m9.2-.6v.6m-21.9 0h.6m11.5 0h.6m4 0L21 29m6.3-1.2h.6m-21.3 0v0m0 0v0m7 0h.5m4.6 0v0m43.1 0c1.2 1.2-.6.6-1.1.6m-54-.6v0m4 0h.5m8.7 0h-.6v0m2.9 0s-.6 0 0 0m-3 0v0m0 0v0m25.4 0v0m-24.7 0v0m6.9 0 1.1 1.2M48 27.8v0m10.4 0c1.7 0 1.1 1.7 0 0M7 27.7v0m14.4.6v-.6m9.7.6c1.2 2.3-1.7-1.2-.5 0v0m-9.2-.6v0m0 0v0m6.3 1.2c-.6.5-2.3-.6-1.7-1.2m12.6 0v0M54.8 29c-1.1-1.8 5.2-.6 1.7-.6l-1.1.6m5.2-.6 1.1-.6m-33.9 0h.6m5.7 0c0 1.2.6 2.9 1.7 2.3-1.1-.6 0-1.1-.5-2.3m-27.6.6-.7 1m8-1.1h-.5m3.4 0s0 0 0 0zm-.5.6c-.6 0-1.2-.6.5-.6m0 0v.6M5.4 30.6c2.9 1.1 2.9-4 5.7-1.7 1.8-.6 4.6 1.1 5.2 0h-.6m2.3-.6v0m1.2 0 1.1.6m7-.6h-.6m27 0c1.1.6-1.2.6 0 0m-3 .6c-2.2-.6 3-.6 0 0 0 0 0 0 0 0m-6.8-.6h.6m-35.7 0v0m11 0h.5m1.2 0h.6m17.2 0s0 .6 0 0zm0 0c0 1.7-1.2.6-.6 0m-17.8.6v0M19.2 30s-1.7-1.1 0-1.1M30 30c-1.7-.6-.6-2.3 0 0m13.9-1h-.6.6m-23.6 0v0m19.6 0c1.1.5-1.2 1.1 0 0zM18 29h-.5m22.4 0h.5m3 0v0m4 .5c-1.2 0 .5-.5 0 0m-30-.5v0m8.7 0c1.1 1.1 0 1.1 0 1.1M43.3 29v0m19 0c.6-.6.6 1.1 0 0zm-16.7 0c1.2.5-.6.5 0 0zm1.2.5V29v0m-26.5 0v0m3.5 0v.5m4-.5v.5m7.5-.5v.5m11.5 0V29v0m.5 0v.5m15 0c-1.7 1.8-2.9-.5 0-.5m-38.5 0v.5m49.4-.5.6.5v0M24.9 29s1.8 1.1.6 1.1m27.6.6c.6-.6 4-1.7 5.7-1.2-1.7 1.2-2.8 1.2-4.6 1.2l-2.8.6M14 29.4v0m-6.9 0c.6.6-1.1.6-1.1 1.2m9.7-1.2v0m11.5 0v0m5.8 0v0m-17.3.6c-.5 0 2.3-1.1 1.8 0v0m10.3-.6v0m48.3 0c-.6.6-1.2 3 0 1.8M12.3 30c.6 1.7-2.9-1.1 0 0l1.7-.6m24.7 0s0 0 0 0m21.9 0v0m13.2 0v0m-59.8 0c-.6 1.2-.6 1.2-1.1.6m25.8-.6v0m-23 0v.6m3-.6v0m7.4 0v.6m47.7-.6v0m-55.2 0v.6m21.3-.6v.6m-16.1 0c-.6 2.3-3.5 0-4.6 0m45.4 0c-1.2 0-2.9 2.3-2.9.6.6-.6 1.7-1.2 2.9-.6m5.7 0c0-.6 0 1.2-1.7 0m-36.8 0c0 .6 2.9 4 1.2 2.3M46.2 30c0-.6.6 1.2-1.2 0m30.5 1.2c-1.2-.6-.6-1.2 0-1.2m-58 0v0m-2.3 0h.5m2.3 0c2.3 0-1.1 1.2 0 .6m27.6-.6v0m4 0c-1.7 1.2 3.5-.6 3.5.6m16.6 0V30m-43.6 0v0m21.8 0c-1.7.6 2.9 3.5 1.2.6M13.4 30v0m6.4 0v0m48.8 0h1.1m-43 0c1.1 1.2-2.3.6-1.8.6m7-.6c1 0 1.6 1.2 1 1.7M64 30v0m-16 0h-.7m.6 0 1.2.6m-.6-.6v0m21.2 0v.6M21 30v.6m13.2-.6.6.6m-.6-.6.6.6m16.7-.6h.5m22.4 0v.6h.6M13.4 30v.6m26.5 0c-.6 0-.6 0 0 0zm-12.1 0h.6m6.9 0v0m-12 0v0m4.5 0s0 .6 0 0m7.5 0v0m.5 0h-.5v.6m-21.9-.6v0m13.8 0h-.5m23 0H49m25.8 0h.6m-56.9 0c1.7-.6 3.5 3.4 1.2 1.1v-.5m6.9-.6h.5m8 0c.6 0 0 0 0 0m4.7 0c.5.6-1.8 1.1-1.2 1.7m.6-1.7v.6h.6m0-.6v.6m-4.6-.6v0m15 0c-.7.6 0 1.1.5.6m-31.6-.6v0m15.5 0v.6h.6m3.4 1.1c-.6-1.1 0-1.7.6-1.1M18 30.6l-.5.6v0m2.3-.6v0m4.6 0 .5.6m9.8-.6v0m-16 .6v0m-3 0c-1.1 0 4 3.4 1.8.5M43.9 33c-3.5 1.7 0-4 1.7-1.2-1.1 1.8-2.3 4-4 5.2v0m-16.7-5.7h.6m9.2 0v0m25.3 0c2.3 0-1.2 1.1 0 0m5.7.5c1.7-1.7 3.5.6.6 0h-.6M8.8 35.2c-1.7.6-2.3-.6-.5-.6L11 33c-.5-1.7 2.3 2.9 2.3 0 2.3 0 .6-2.3 2.3-1.2m23.6-.5v.5m-18.4-.5.6.5m3.4-.5v0m34 0c1 2.3-5.2.5-1.8.5zm9.7.5c2.3-1.7 2.9.6 0 0zm-43.7-.5c-.5 0 0 0 0 0m2.3 0v0m1.2 0c2.3.5-.6 1.7 0 0m-12.7 0v0m9.8 1.1c1.2 1.7-4-1.7-1.1-1.1m47.6 0h1.2m-52.3 0v.5m6.3-.5v0m33.4 0v0m-40.3 0v0m1.2 0v.5m5.2-.5h.5m-18.4 0c2.3 0-.5 2.3 0 0m16.7 0h1.2m.5 0v1.1m-8.6-1.1c.6.5 0 1.7-1.1.5m2.8-.5v0m4 0h.6m-6.3 0v0m0 0v0m52.9 0v0m1.1 0-.6.5m-46-.5v0m.7 0v.5-.5m-7.5 0 .6.5m7.4-.5v.5m-6.3 0h.6m0 0v0m4.6 0v0m50 0v0m0 0c0 1.2-3 0-3.5 0m-59.2.6c-1.7 0 0-1.7 0 .6m7.5-1.2v0m18.4 0v0m29.3 0v0m4 0C71 33 76.1 33 72.6 33H71m-51.1-1.2c.5 0 .5 0 0 0m31 .6c1.7-1.1 6.9-.6 2.9.6-.6-.6-2.3.6-3-.6m-33.2-.6h.5m43.1 0c1.8 0 0 1.2 0 0zm-39 0v0m31.6 0v0m11.5 0v0m-55.2 0V33m0-1.2.6.6v.6m14.9-.6c-.6-1.1 1.2.6 1.7 0M45.6 34c0-2.3 2.9-2.3 2.3-1.1L45.6 34M25 31.7h.6m1.7.6h1.2M3.7 33.5c0 1.1-1.2-1.8.5-.6 1.8 2.3.6-1.2 2.3 1.1 1.2-.5-1.1-2.8 1.2-1.1.6-1.2 1.7 0 1.1 1.1M68 32.3c1.2 0-.6 1.2 0 0m-58.6 0v0m8.6 0v0m15.5 0H33m-15 0v0m9.8 0v0m.6 0c1.1.6.6 1.7-.6.6m0-.6v0m21.8 0c1.2.6-1.1.6 0 0zm-34.4 0c1.1 0 0 1.2 0 0zm-2.3 0 .5.6m11.5-.6v.6m48.3 2.3c2.3 0 .6-1.7-1.2-1.2-.5 0-4 0-2.8-1.1.5 1.1 1.1-.6 1.7 0m-67.2 0v0m16 0c.6 1.1-2.2 0 0 0v0m54 0c1.8-.6 1.8 1.1 0 .6m-60.3-.6v0m28.8 0v0m21.8 0c1.7 1.1-2.3.6 0 0m-41.4 0c4 1.7-1.1 1.1 0 0zm6.4 0v.6m37.3 0c-3.4-1.2 3.4 1.1 0 0v0m-32.2.5c-.6-1.7 1.2-.5.6 0m35.6-.5v0m-67.2 0v0m39 0v0m-39 0v0m40.2 0h-.6v0m1.2 0c.6.5-1.7.5-1.2.5m-35 .6S7 32.3 8.8 34m25.3-.5v0m.6 0v0m36.2 0v0m-67.8 0v0m11 .5 1-.5m5.8 0c3.5.5-1.1 2.3 0 0m13.8 0v0m27 0v0m-58.6 0v0m13.2.5c2.9-1.1 1.7.6 0 .6h-1.7m47.1-1.1.6.5m0-.5v.5m-39.7 0h-.5m.5 0h-.5m25.8 0c.6 1.2-5.2 2.3-1.7 0h1.7M3.7 34h.5M17 34v0m17.8 0h.6m6.3.6 1.1-.6m19.6 0v0m5.1 0v0m-33.3 0h.6m0 0v0m27.6 0c.6 1.8 3.4 1.2 3.4 3.5M62.3 34c.6-1.1 4 1.8 2.3.6M23.2 34h.6m19.5 0v0m18.4 1.8s-5.2-.6-2.9-1.8c.6 1.8 1.2-1.1 2.9.6.6.6 1.2 1.2 1.7.6M52 34.6c1.8-1.1 1.2.6-.5 0m-35-.6v0m2.8.6c-1.2-1.7 3.4 1.2.6.6l-.6-.6h.6m4-.6v0M3 34h.6m8.6 0c1.7.6 2.3 1.8 0 .6V34m2.3.6h1.1m49.5 0c1.1-1.7 1.7 2.9 2.2 0 2.3.6 4 1.7 5.2 4m-4-4.6.6.6M47.9 34h.6m3.4 0 .6.6H52m21.9-.6v0M3 35.2c.6-.6-1.2 0 0-1.2m29.3.6c1.7 0 0 1.2 0 0zm25.9-.6c-1.2 1.8-3.5-.5-4.6 1.2l.5.6m-8-1.2v0m-27.6 0h.6m-11 0v0m27 0s0 0 0 0m6.4 0v0m-38 0s.6.6-.5.6h-.6m18.4-.6v0m14.4 0zm0 0v0m34.4 0h.6m-57.4 0v0m18.3 0c1.8.6-.5 1.7 0 0zM3 34.6s.6 0 0 0m66.6 0v0h-.5m1.7 0c1.7 0 0 1.7 0 0m-68.4 0v0m32.8 0v.6m0-.6h.5m5.8 0c-.6 1.2 1.1 1.7-1.2 1.7-.5.6 1.2 0 1.2.6M3 34.6v.6m0-.6v.6m21.3-.6v0m10.9 0v0m22.4 0c1.7 2.3 5.2 1.7 7.5 1.7v0M2.5 34.6h.6m.6 0v.6m.5-.6v0m4 0v.6h.6m4.6-.6v.6m13.8.6c-1.1.5-2.3-1.8-.5-.6l.5.6m8.6-1.2v.6m8 0v0m29.4 0h1.1m-71.2 0v0m11 0h-.7m39.7 0h.6m-50 0H3v0m19.5 0c.6 0 2.3.6 1.8 1.1m11.4-1.1v0m38 0v0m-71.3 0v0m48.3.6c-1.2.5-4.6 0-1.7-.6h2.3m23 0-.6.6M3 35.2v0m12.6.6c2.3-1.2 1.8 1.1-.5 0m5.7-.6c-.6 1.1-2.9 0-1.1 1.7H22m5.1-1.7c1.2 0 1.2 1.7 0 0zm8.6 0v0m17.9 0h.5m18.4 0c-.6 1.7 2.9 1.1 2.3 2.3h.6m-73-2.3H3m19 0h.5m30.5 0v0m10.9 0c-.6 1.1-1.7 0-2.3.6m11-.6h.5m-45.4 0h-.6m-24.7 0v0m.6 0v0m65 0c0 1.7 2.8 0 1 1.7-.5.6-2.8 0-2.8 1.2v.5m8-3.4h-.5m-69.6.6c.6-.6 4.6 0 4.6 1.1-.5 1.7-4 2.3-4 1.7 0-.5 3.5 0 1.2-1.1m4-2.3c1.1 0-.6 1.1 0 0zm-6.9.6h.6m17.2-.6c.6.6 3.5 2.3 3.5 1.1m29.3-1.1v.6m9.2-.6v.6m-58.7-.6-.5.6m0 0v0m19 0 1 .5M3 35.8v0m1.1 0v0m29.3.5c-.5-1.7 1.8-.5 0 0m20.7-.5c1.8 1.7 4 .5 5.2 1.7H61m-40-1.7v0m47.1 0c.6 1.7-2.3.5-1.1 1.1m6.9-1.1v0m-45.4 0h.6m23.5 1.7c0-.6 0-2.9 1.2-1.2 0 1.8-.6 1.8-1.2 1.2m-6.3-1.2c1.1-1.1.6.6 0 0m-24.7-.5v.5m14.3-.5v.5m-1.7 0v-.5m7 .5v0m11.4 0s.6-.5 0 0m-11.5 0v0m24.7 0H67m-39.1 0c1.7.6-.6.6 0 0zm27.6 0c-1.7 0-1.2 1.8 0 1.2l2.9 1.1v0m-46.6-2.3c1.2 0 .6 1.2 0 0m-.6 0c.6 0 0 .6 0 0zm0 0h.6m44.3 0 .5.6m8.7-.6v0m1.7 0v0M8.3 37.5l2.8-1.2m12.1 0-1.1.6m2.8-.6v.6m10.4.6c-1.2.6-1.2-1.7 0-.6m16.6-.6v.6l.6.6M67 36.3v.6m-47.1.6c-3 0-.6-1.7 0 0 0 0 .5 0 0 0m32.7 0c-1.7.6-2.9-1.2-.6-.6m4.6-.6v.6m-22.4 0v0m-22.4 1.2c.6 1.1 2.3-2.3 3.5-1.2m28.1 0h.6m31 0v0m-1.1 1.2c-.6 0-2.3-2.3 0-.6h1.7m-63.8 1.1c-1.7 0-2.9 1.2-4 2.3 0-1.1-4 1.8-2.3-.5l6.9-3.5m2.9 0 4 1.7M29.5 37c1.2 0 1.7 2.9 0 1.2L29 37m21.2 0v0M29 37h.5m35.7 0c-.6 0-4.6 2.3-4.6.6m-4-.6c.5.6 2.2 0 1.7 1.7m6.9-1.7h.5M8.8 37v.6m26.5-.6v.6m39-.6v.6M52.5 37v0m0 0v.6m-2.3 1.1c-1.1.6-2.9 1.8-3.4 0-.6 1.2-1.8-1.7.5-1.1.6-.6 4.6.6 3 1.1m16-1.7v.6m-57.5 0v0m66.7 0v0m-40.2 0v0m-3.5.6c-1.1-2.3.6 1.1 0 0m8 0c.6-2.3.6 1.1 0 0m35.7-.6v0m-.6 0v0m-68.4 0h1.2m16.7 0c-1.8 1.1 2.8-1.2 2.3 1.1M53 37.5v0m22.4 0h.6m-56.3 0v0h-.6m.6 0v0m46.5 0v0m-34.5 0v0m-8.6.6c-2.3.5 0-1.2.6 0v0m29.3-.6h-.6v0m16.7.6c2.3-1.2 1.1.5 1.7 1.1.6 0 .6-1.1 1.1 0m-12-1.7v0m6.9 0v0M14 38s-.6-.6 0 0zm50.6 0c1.7 0-3.5 0-.6 1.1v-.6m-48.8 1.8c-.6-1.2-2.3-1.8-1.8-2.3m8 0h.7m7.4 0v0m36.2 0v0m-33.9 0v0M14 38c.6 1.7 1.7-1.2 1.7 1.7.6 0 2.3.6 1.2-.6v0l.6.6m6.9-1.7h2.3m20 .5c-.5-.5 1.2-1.1.6 0m13.3-.5v0M8.8 38h.6m60.3 0c0 1.7-2.3-.6-2.8.5M32.4 38v0m28.2 0v0m4 0v0l-.6.5m1.2-.5v.5M32.4 38v0m28.2 1.7c-1.2-1.2 2.8 1.1.5-.6 1.2-2.9 2.9 2.9 2.9-.6m-44.8 0h4.6m50 0c2.3 0 .5.6-.6.6m-12.6-.6v.6m0-.6v0m-1.8 0 1.2.6m-12 0c.5-1.1.5 0 0 0m5 0c-1 0-1.6 2.3-1.6 0 0-.6 2.3-1.1 1.7.6M4.8 38.6h-.6m.6 0v0m0 0h.6m0 0H6m57.4 0H63l.5.6m-13.2-.6v0m4 1.2c1.2 1.7-2.3 1.1-.5-.6.5-1.7 5.7 1.2 2.8 1.2 0 0 .6 1.1-.5 1.1m17.2-2.9v0m-68.4 0v0m27 0v0m16.1 0 .6.6m15-.6v.6m-18.5 0c1.2-1.7 1.2 1.2-.5.6m16.6-.6c-.5.6-1.1-.6-.5-.6m6.3 0v0m6.3 0v0M6 44.4c.5-.6-2.9-1.7-.6-1.7 1.7 1.1 2.9-2.3 4.6-2.3 1.7 0 1.7-.6 2.3-1.8 1.7 1.2 1.1 1.8.6 2.9.5 0 1.7-.6.5-1.1m4.6-1.2c-1.1 0 1.2-1.1 1.2.6l1.1 1.7m3.5-2.9c1.1.6 4 1.2 1.1 1.2-1.1 0-4-.6-2.8.6v-.6 0m36.7-1.2v0m8 0 1.2 1.2m5.2-1.2v0m-23.6 0v0m9.2 0c0 1.2-.5 1.2-1.1 1.2m1.7-1.2.6.6m4.6-.6v0m-.6.6h.6m-21.3 0c-1.1 1.2-1.1-1.1.6 0m14.4 0v0m2.8 0s.6-.6 0 0m5.8 0H64m9.2 0h.6m-24.2 0v0m13.3 0v0m.5 0h.6m.6 0v0m7.4 0c-.5 0 .6.6 0 0m3 0c1 1.2-.7 0 0 1.2m-57-1.2.6.6m-.6-.6h-.5m13.7 0c1.8.6-.5.6 0 0m-14.9 0v0m25.9 0c.5 1.2-1.8 0 0 0m19 0h.5v.6m-11.5-.6c1.7 2.9-2.9.6 0 0m7.5 0v.6m13.2-.6v0m-52.9 0c-1.1.6 1.2 1.7.6.6m9.2.6c1.2 1.1-1.1-2.3 1.7-.6 1.7.6.6 2.3.6 2.9V42m19-2.9v0m-31.6 0v.6h.5m39.1-.6v.6l-.6.6M71 39.2v0m4 0v.6m-2.9 0v0m1.8 0H72m-4.6 0c0 1.7-1.7 1.1-2.2.6l.5.5m2.3-1.1v0m4.6 0v0m-4.6 0v0m2.9 0v0m2.9 0h.5m-29.3 0v0m18.4 0H63h.5m9.8 0v0m-.6 0v0m-51.1 0v0m-4 0v0m5.1 0-.5.6m11.4 1.1c-2.3-1.1 0-2.9 0 0zm35.1-1.7c-1.7.6.6 2.3-.6 1.7m-54.6-1.7v0m1.2 0-1.2.6m54.6 0c1.7-1.2 1.7 0 1.2 1.1 1.1.6 0-.6 0 0m1.7-1.1h1m-53.4-.6.6.6v0m43.7-.6c0 1.1 1.7 1.1 0 .6m-3.5 0h-.6m.6 0h.6m8.6 0h.6m-55.2 0v0m8 0h.6m45.4 0v0m4.6 6.3c0 2.3 2.9 1.1.6 0-2.3-1.2 3.4-1.2.6-1.7-1.2-1.2 2.8-1.2 0-1.8 0-.5 1.7-1.1.5-1.1l.6-1.7m-63.8 0v0h-.5m3.4 0v0m40.8 0H56m0 0h.5m.6 0v0m-48.8 0v0m1.1 0v0m48.9 0c.5.5-.6.5 0 0zm1.1 0v1.1m8.6-1.1v0m4 0h-.5m2.8.5.6-.5m-55.1.5 1.7-.5m44.8 0h-.6m-6.3 0c.6 1.1 1.7.5 2.3 0m-9.8 0v0m19 0v0m-2.9 0h.6m-43.7 0c.6 1.1.6 0 1.2 0m21.2.5c.6-1.1.6.6 0 0zm21.3-.5v0m-43.1 0h.6m43.6 0h.6m-13.2 0c0 .5 0 1.1-.6.5M17 41c2.3.6 1.7 2.3-.6.6-1.1-.6 0-.6.6-.6m9.2 0h.6m-12.1 0c2.3 0 0 1.2 0 0m4.6 0c1.7 2.3-2.3-.5 0 0v0m49.4 0c0 .6 0-.5 0 0zM14 41h.6M61 41c.6 1.8 1.8.6 2.3 0m5.2 0h.6m-11 0h-1m1 0 1.2.6m8.6-.6s-.6.6 0 0m1.2 0v0m-42.5 0c1.7.6-1.2 1.8 0 .6m6.8-.6v0m30 0c1 1.8.5-.5 1.7 0m-54.6 0c1.1 1.2-2.3 1.2 0 0zM30 42.1c-.6.6-2.9-.6-1.7-1.2m40.8 0v0m-3.5 0v0m3.5 0v0m-46.6 1.2c1.2-2.3 4.6.6 1.2 0h-.6m8-1.2c3 0 1.8 2.9 0 0zm16.7.6c-1.1-.6 4-.6 1.2 1.2 0 .5-1.2-1.2-.6 0m20.1-1.8v.6m-2.9-.6c-.5 1.2-1.1.6 0 1.2m-32.2-1.2v0m11.5.6h2.3m22.4-.6-.5.6m.5 0h-.5M53 42.7c-2.3-1.2 1.1-1.8 0 0m15-1.2v0m-46.6 0c2.9.6-2.9 1.2 0 0m5.2 0v0m43 0h-.5m-28.8.6c.6-1.7 1.2.6-.5 0m15-.6c1-.6.5 1.2 0 0zm10.8 0h.6m.6 0v0m-.6 0v0m.6 0 .5.6m-25.2 0 .5.6m8.7-1.2c.5 1.2-1.2 0 0 0zm2.8 0h.6m-45.4.6v-.6 0m35.6 0c1.8 0 2.3 1.7 3.5 2.3-.6.6 2.3-.6 1.1-1.1m-16-.6v0M26 42h.6m39 0H67m-4.6 0c1.7 0-1.2 1.1 0 0m-46.6 0c4 .6-1.7 1.7-.5 0h.5m15 0c2.8.6-1.7 1.7-.6.6m16.7-.6v0m-18.4.6c-2.3 0 0-1.2.6.5l.5-.5M29 42l-.6.6m1.1-.6v.6h.6m36.2-.6h.6m-33.4 0c1.2 1.1-1.7 1.1 0 0zm15 0v.6m5.2-.6c2.3 1.1-1.8 2.3 0 .6V42m-5.2 0 1.1.6m23 0c1.2 0 0 .5 0 0m-44.2 0h.6m0 0c-1.2 1.7 1.1 0 0 .5m1.1-.5v0m32.2 0v0m-21.9.5c1.2-1.7 2.3 2.3 0 .6v-.6H40m24.7 0c-1.7-1.1 1.1 0 .6 0m-35.7-.5v.5m0-.5h.6m-22.4 0h1.1m20.2 0h.5m16.7.5c-.6-.5.6-.5 0 0m3.4 0h.6M24.4 45c-3.5 0 .5-3 1.7-1.8-1.2.6 0 1.8-1.7 1.8m5.7-1.8h-.6m20.1 0h.6m2.3 0c-.6 3.5-4-1.1 0 0m12.7 0h-.6m-31 .6c1.1-.6.5-1.1 1.7 0m-6.3-.6v0m14.3 0c1.2.6-.6 1.2 0 0zm19 0c1.7-.5.6.6 0 0m2.3 0v0m-10.4.6c2.3-1.7 2.3 1.2 0 0zm-8-.6v.6m-31.6 0c-2.3.6-.6-1.1 1.1 0m2.3 0c-.5 1.2-2.3-.6 0 0m-.5 0v0m14.9 0c1.1 0-.6.6 0 0zm-14.4 0c2.3 0 0 1.7.6 0m13.2 0c-.6 0-.6 1.7-.6 0m-19 0v0l-.5.6m5.2-.6h.6m16.6 0h.6m-26.4.6c-.6 0 .5-1.2 1.7 0m21.8-.6v.6m0-.6h.6m-.6 0v0m8 0 2.4 1.7c.5 1.7-3.5 1.2-2.3-1.1v-.6m31.6.6c2.3-1.2 1.1 1.1 0 0m1.1-.6v.6m-59.2-.6c-.5.6 0 .6.6.6m34.5-.6v0m5.7 0v0m-29.3 0v0m1.8 0v0m.5 0c-1.1 1.2-.5 2.9.6.6h-.6M6 43.8c-.6.6-2.3 1.2-.6 2.3 1.1 1.1 2.3 0 3.4.6-1.1 1.7-6.3-.6-4 1.1m23-4v0m-19.5.6v0m1.1 0H8.3m9.2 0h.5m8 0v0m-13.1 0v0m18.3 0v0m27 5.1c4-1.7-3.4-1.7 0-3.4 1.2.6 4.7-2.3 5.2 1.1 0-1.1 1.8-2.2 1.8 0 .5.6 2.2 2.3 2.2.6-1.7.6-2.8-2.8-.5-.6 1.1-.5-2.3-2.8 0-1.7h2.3c-1.8-2.8 2.3.6 2.8 1.2h.6M8.8 44.4v0m.6 0h-.6m0 0s-.5 0 0 0m19 0c.6 0 2.3.6 1.2 1.1M9.4 44.4v.6m12 0c0-1.8 1.2 1.7.7.5m19-1.1c1 0 0 1.1 0 0zm23.5 0c1.1 0 .6 1.7 0 0zm-56.3 0v0m.5 0v0M22.1 46s-1.2-1.1-.6-1.7m-1.7 2.8c-2.3 1.2-4.6-.5-4.6-2.2 2.3-.6 4.6 1.1 5.7 1.7m14.4 0v-1.2.6m-8.6-1v0m27.5 0c-1.7 1.7-2.8-.6 0 0m9.8 0c-1.7 1.1-1.1-1.2.6 0v0m6.3 0h.6m-47.1 0v0m4 0c-2.3 1.1 2.3 1.7 1.1.5m24.7-.5v0m20.1 0h.6m-48.8 0h.6m3.4 0c1.7.5.6 2.2 0 0M56 45c1.1 0-.6 1.1 0 0zm-49 .5c-2.3.6-.6-1.1.6 0m13.2-.5c.6 1.7-1.7 0 0 0m29.9.5c1.1-1.1 1.1 1.2-.6 0m-37.3 0c-1.8 2.3-3-1.1.5 0m8-.5-.5.5m34 0h-.7m-46 0c.6-1.1 2.4 1.2 0 0l.6.6m43.7-.6v0m-43.7 0v.6m25.3-.6c-.6 1.7-2.9 0-.6 0h.6l.6.6m8.6-.6c.6 0-.6.6 0 0zm-29.9.6c1.2-1.7 2.3 1.7 0 0m30.5-.6c1.7 0 0 1.2 0 0m-34 0c2.4 1.2-1 2.3 0 0m35.7.6c1.2 0 0 0 0 0m-10.9 0v0m-25.9 0h-.5m2.8 0v0m-2.3 0v0m24.7 0v0m-4.5 0h.5m-.5 0v0m4.5 0v0m.6 0s0 0 0 0m1.2 0v0m0 0v.6m-5.8-.6v0m1.7 0c2.3 1.1-1.1 1.1 0 0m14.4 0v0m-11.5 0c-.6.6.6.6.6.6m-.6-.6v.6m23 0c-.6 0-.6-.6 0 0m-23 0v0m-13.2 0c2.3 1.7-1.1.5-1.7 0m8 1.1c-.5-.6-2.8 0-4.6-1.1h.6m0 0c.6 0 7.5 0 4 1.1m-4.6-1.1v0M53 48.4c-2.3 0-2.3-2.3 0-1.2.6-1.1 3.4-.5 4 .6 0 1.2 2.3-.6 1.2 1.2m-35-2.3v0m10.8 0v0m-10.3 0v0m-11 0c.6-.6 3 1.7 3.5 1.1M34 46.7h.6M6 48.4l5.1-1.2c.6 1.2 1.2-.5 1.8-.5m6.3 0 .6.5m5.1-.5v0m-1.1 0v.5m16-.5c1.2 0 1.2 1.7 0 .5m23.6 0c.6 0 0 .6 0 0m-49.4 0v0m13.2 0v0m16.1 0c-1.7 1.2-2.3-.5 0 0m-23 0v0m31 .6v-.6m-1 0h.5m-22.4 0h.6m28.1 0h.6m8 0v.6M43.3 49l4-.6c1.8-.6 3-1.2 4.6 0h.6m-47.1-.6.6.6m22.4-.6v0m20.7 0v0m-29.3 0 1.7.6m-1.2-.6v.6m-1.1 0v-.6m-2.9 0v0m0 0h1.2m31 0v0m-31 .6h.5m1.8-.6v.6-.6m-4 .6v0m1.7 0v0m.5 0h-.5v0m-1.2 0v0m4.6 0v0m36.2 0s0 0 0 0M25 49c0-1.2 1.2 0-.5 0m6.8-.6h-1.1m-12 0h.5m.6 0h-.6v0m2.3 0c.6 1.1-1.1 1.1-1.1 1.1m12-1.1h.6m19 0s0 .6 0 0m-33.4 0-.5.6m.5-.6v0m3 1.7c.5-1.7 1.6-1.7 2.8-1.1m3.4.5c0-1.1 1.8 0 2.3-1.1m2.9 0 .6.6m.5 0c1.8-.6 1.8 4 1.8 5.7 0 1.7-.6 5.2-2.9 4.6v0m25.3-10.9-.6.6v0m-29.3 0v0m5.2 0h.5m-10.3 0h.6m0 0 1.1.5m0-.5h.6m3.5 0v0m17.2 12L41 57.6c-.6-2.3-1.7-5.8-.6-7.5 1.2-1.1 1.8 1.2 2.3-1.1M25 49v0m1.2.5 1.1-.5m-2.3.5h.6m-5.7 0h.5m3.5 0h.6m.5 0v0m-4.6 0v0l.6.6m-1.1-.6v.6m0-.6v0m.5 0v0h-.5m0 .6v0m.5 0h.6m14.4.6v.6m0 0v.5m0 0v0m-.6 3.5v.6h.6m-4.6 5.7c1.1.6-2.9.6.5-1.1l1.2-1.2m8 .6c-2.3 1.1-1.7-1.7 0 0-.5.6.6 0 0 0m-2.3-.6h.6m-3.4.6c.5-.6-1.2 2.3-1.8 1.1m1.8-1.7v0m0 0-1.8 1.2m7.5-1.2h.6m0 .6c0 1.1 0-1.2.6 0m-5.8 0 .6.6h.6m4.6-.6h.5m-2.3 0c1.2 0-.5.6-.5.6m-2.9-.6v.6m5.7-.6v0m-1.1 0v.6l.6-.6m-1.8.6v0m-2.8 0v.5m-6.4.6 2.3-1.1m-2.8 0v0m6.9 0v0m5.1 0c.6 0 2.3.5 1.8 1.1m-7-1.1v0m4.7.5.5-.5m-5.1.5v0m3.4 0c0-.5 0 1.2 1.2.6M30 61s0 0 0 0m9.8 0H41m0 0h.6v.6m.6-.6s.5 1.2 1.1.6m2.9-.6c.6.6 1.1 0 1.1 1.2m-8-1.2c0 .6-.6 0 0 0zm1.7 0v0m2.9 0c0 .6.6 0 0 0m.6 0v0m0 0v0m1.7 0v0m-12.7 0v0m.6.6c.6-1.7 1.7 1.2 2.3.6v0m1.2-1.2h.5m1.2 0v0m5.2 0 2.3 1.2M37 61c-.6.6 1.1.6 0 1.2m2.9-1.2v0m-5.2 0v0m-1.2 0v0m-.5 0 .5.6V61m5.8.6 1.1.6m1.2-1.2-.6.6v0m-2.9-.6 2.3 1.2m0-.6v0m-6.3 0H33m11.5 0v0m-13.8 0h.5m12.1 0h-.6m-8.6 0v0m-4.6.6h.6m0-.6v.6m12.6-.6v0l.6.6m-1.7-.6v0m-12 0h.5m6.3 0v0m.6 0v0m-2.9 0v0m7.5 0v0m1.7 0v0m-4.6 0h.6m-4 .6v0-.6m6.9 0v0m0 0v.6m.5 0v0m-6.3 0v0m-2.3 0v0m-5.1 0h.5m5.8 0h.5"/>
  <path d="M89.92 2.98h-.2q-.06-.21-.22-.47t-.41-.48q-.25-.23-.62-.38-.36-.16-.85-.16-.43 0-.77.14-.34.13-.57.37-.23.24-.34.57-.12.33-.12.74 0 .64.36 1.23.36.58.9 1.15.55.57 1.18 1.14.64.57 1.18 1.19.55.61.9 1.29.37.67.37 1.44 0 .58-.2 1.17-.2.58-.62 1.05-.42.46-1.08.75-.66.29-1.57.29-.51 0-.97-.1-.46-.09-.85-.22-.38-.14-.7-.3l-.5-.3.2-1.97h.23q.1.42.32.8.23.38.55.67.33.29.75.47.42.16.92.16.45 0 .8-.13.37-.14.63-.38.26-.25.4-.6.14-.33.14-.73 0-.56-.2-1.04-.21-.48-.55-.9-.33-.43-.76-.84-.42-.4-.87-.8-.44-.4-.87-.84-.42-.43-.76-.9-.33-.5-.53-1.05-.2-.56-.2-1.23 0-.7.26-1.27.28-.57.72-.97.46-.4 1.03-.62Q87 .71 87.6.71q.45 0 .83.07.37.07.66.17.3.1.53.2l.37.16zm6.35-1.25q-1.06 0-1.9.1-.85.08-1.47.2-.71.12-1.27.29l.26-1.45.32.02.47.02.55.01.56.01.45.01h6.14q.26-.02.54-.02l.56-.01.48-.02.32-.02.26 1.45q-.57-.17-1.29-.3-.61-.1-1.46-.2t-1.9-.1v8.53q0 .75.02 1.32l.05.98.08.68.1.47v.03h-2.12v-.03l.1-.47q.04-.27.07-.68.04-.41.06-.98.02-.57.02-1.32zm13.01-1q1.49 0 2.75.49 1.26.48 2.18 1.36.92.88 1.44 2.1.52 1.24.52 2.73 0 .85-.2 1.67t-.58 1.55q-.37.73-.93 1.35-.55.62-1.26 1.08-.7.44-1.56.7-.86.25-1.85.25-1.5 0-2.76-.47-1.26-.48-2.17-1.36-.92-.87-1.44-2.1-.52-1.23-.52-2.72 0-.85.2-1.67t.57-1.56q.38-.74.93-1.36.55-.62 1.25-1.08.72-.45 1.57-.7.87-.26 1.86-.26zm.5 12.48q1 0 1.82-.36.82-.36 1.4-1.03.6-.68.94-1.66.33-.98.33-2.22 0-1.37-.32-2.54-.32-1.18-.94-2.03-.63-.87-1.56-1.35-.93-.49-2.17-.49-.99 0-1.81.36-.82.34-1.42 1.01-.59.67-.92 1.65-.33.97-.33 2.2 0 1.37.31 2.56.32 1.18.94 2.04.63.87 1.56 1.37.94.49 2.18.49zm16.74-10.58 3.57 8.66 3.47-8.5q.2-.53.3-.9.1-.36.1-.62v-.16l-.03-.13V.94h1.76v.04q-.18.2-.4.62l-.47 1.06-4.77 11.35h-.67l-3.47-8.42-3.17 8.42h-.67L117.7 3.1l-.33-.74q-.16-.36-.31-.64-.14-.29-.26-.48l-.18-.26V.94h2.47v.04l-.02.15v.12q0 .3.07.65.07.33.26.82l3.36 8.47 3.2-8.53zm18.49 11.1v-.03l.02-.14.01-.16q0-.27-.08-.6-.07-.34-.29-.84l-1.07-2.43q-.5-.02-1.33-.02h-3.16q-.65 0-1.18.02l-1.02 2.36-.29.72q-.15.4-.15.8 0 .1.02.19.01.07.03.1v.03h-1.82v-.03q.16-.17.4-.6.24-.44.53-1.09L140.74.67h.71l4.85 10.9q.17.39.35.75l.34.65.29.48q.12.2.17.25v.03zm-5.79-4.98h1.07l1.06-.01 1-.01.88-.02-2.5-5.66-2.47 5.7zm11.2 1.5q0 .75.03 1.32l.05.98.08.68.1.47v.03h-2.13v-.03l.1-.47q.05-.27.07-.68.04-.41.06-.98.03-.56.03-1.32V4.44q0-.76-.03-1.32-.02-.57-.06-.98-.02-.41-.08-.69-.04-.29-.1-.47V.94l.38.04q.17.02.38.02h.43q.35 0 .94-.08.6-.09 1.52-.09.85 0 1.57.24.74.23 1.27.67.54.45.83 1.1.3.64.3 1.46 0 .65-.17 1.2-.16.54-.46.99-.3.45-.71.8-.42.33-.94.56l3.13 4.4q.23.33.43.57.2.24.38.42l.36.29q.17.1.35.17v.03h-2.58q-.03-.17-.18-.44-.14-.29-.34-.57l-3.16-4.45-.4.04h-.94l-.51-.07zm0-2.7q.25.05.5.07l.48.02q.67 0 1.22-.2.56-.2.94-.61.4-.41.6-1.02.22-.61.22-1.43 0-.67-.15-1.22-.15-.54-.46-.92-.3-.38-.75-.58-.45-.22-1.06-.22-.61 0-.98.06-.36.07-.55.14zm10.3 5.4h3.81q1.04 0 1.93-.1.89-.08 1.55-.2.77-.12 1.4-.3l-.44 1.45-.32-.01-.48-.02-.55-.02h-.55q-.26 0-.46-.02h-8.34v-.22l8.69-11.78h-3.36q-1.05 0-1.94.1-.88.08-1.54.2-.77.12-1.4.29l.62-1.45.32.02.48.02.56.01.54.01.45.01h7.72v.24zm15.56-5.35v2.65q0 .75.02 1.32.01.57.05.98l.08.68.1.47v.03h-2.13v-.03l.1-.47q.05-.27.08-.68l.05-.98q.03-.57.03-1.32V7.77l-4-5.42q-.2-.28-.4-.5-.2-.24-.38-.4-.18-.19-.32-.3l-.22-.17V.94h2.7q0 .2.17.68.18.46.63 1.1l2.93 4 2.86-4.18q.16-.22.3-.46.16-.23.28-.44.13-.22.2-.4.08-.17.08-.3h1.74v.04q-.2.17-.53.5-.33.34-.71.89zm11.47-4.62h-.2q-.07-.21-.23-.47-.15-.26-.4-.48-.26-.23-.62-.38-.36-.16-.85-.16-.44 0-.78.14-.34.13-.57.37-.22.24-.34.57-.11.33-.11.74 0 .64.35 1.23.37.58.91 1.15.55.57 1.18 1.14.63.57 1.18 1.19.54.61.9 1.29.37.67.37 1.44 0 .58-.21 1.17-.2.58-.62 1.05-.41.46-1.07.75-.66.29-1.57.29-.51 0-.98-.1-.45-.09-.84-.22-.39-.14-.7-.3l-.5-.3.2-1.97h.23q.1.42.32.8.22.38.54.67.33.29.75.47.42.16.92.16.46 0 .81-.13.37-.14.63-.38.26-.25.39-.6.14-.33.14-.73 0-.56-.2-1.04t-.55-.9q-.33-.43-.75-.84-.42-.4-.87-.8t-.87-.84q-.42-.43-.76-.9-.33-.5-.54-1.05-.2-.56-.2-1.23 0-.7.27-1.27.27-.57.72-.97.45-.4 1.02-.62.57-.21 1.18-.21.45 0 .82.07.38.07.67.17.3.1.53.2l.36.16zm4.35 9.97h3.82q1.04 0 1.93-.1.89-.08 1.55-.2.77-.12 1.4-.3l-.44 1.45-.32-.01-.48-.02-.55-.02h-.55q-.26 0-.46-.02h-8.34v-.22l8.69-11.78h-3.36q-1.05 0-1.94.1-.88.08-1.54.2-.77.12-1.4.29l.62-1.45.32.02.48.02.56.01.54.01.45.01h7.72v.24zm10.36-12q1.11 0 2.21-.02 1.1 0 2.03-.02.92-.01 1.57-.04t.88-.07l-.44 1.19q-.3-.09-.68-.15l-.83-.1q-.49-.05-1.12-.05l-.52.02q-.3 0-.57.03l-.65.03v4.87q.92 0 1.66-.05l1.26-.1q.6-.04 1.07-.12l-.28 1.3-1.26-.15q-.55-.07-1.2-.11-.65-.05-1.25-.05v5.59q1.05 0 1.94-.1.88-.08 1.54-.2.77-.12 1.4-.3l-.26 1.45-.32-.01-.48-.02-.55-.02h-.55q-.26 0-.46-.02h-4.14v-.03l.1-.47q.05-.27.09-.68l.05-.98q.02-.57.02-1.32V4.44q0-.76-.02-1.32l-.05-.98q-.04-.42-.1-.7-.04-.28-.1-.46V.94zm9.45 0 9.2 9.77V4.44q0-.76-.03-1.32-.01-.57-.05-.98-.03-.42-.09-.7-.04-.28-.1-.46V.94h1.6v.04q-.06.18-.1.46-.05.28-.09.7l-.05.98q-.02.56-.02 1.32v9.47h-.31l-9.19-9.77v6.1q0 .76.02 1.33l.05.98.08.68.1.47v.03h-1.59v-.03q.06-.19.1-.47.06-.27.1-.68.03-.41.04-.98.02-.57.02-1.32V4.44q0-.76-.02-1.32-.01-.57-.05-.98-.03-.42-.09-.7-.04-.28-.1-.46V.94zM225 13.7q.06-.19.1-.47l.08-.68q.04-.41.05-.98.02-.57.02-1.32V4.44q0-.76-.02-1.32-.01-.57-.05-.98l-.08-.7q-.05-.28-.1-.46V.94h2.13v.04q-.05.18-.1.46t-.08.7l-.06.98q-.02.56-.02 1.32v5.8q0 .76.02 1.33l.06.98q.03.4.08.68l.1.47v.03H225zM229.75.94h2.22l2.02-.03q.92-.01 1.57-.04t.88-.07l-.43 1.19q-.3-.09-.69-.15l-.83-.1q-.48-.05-1.11-.05l-.52.02q-.3 0-.57.03l-.65.03v4.87q.92 0 1.66-.05l1.25-.1q.61-.04 1.07-.12l-.27 1.3-1.26-.15q-.55-.07-1.2-.11-.66-.05-1.25-.05v5.59q1.05 0 1.93-.1.89-.08 1.55-.2.76-.12 1.4-.3l-.26 1.45-.32-.01-.49-.02-.55-.02h-.54q-.26 0-.47-.02h-4.14v-.03q.06-.19.1-.47.06-.27.1-.68l.05-.98.01-1.32V4.44L230 3.12q-.02-.57-.06-.98-.03-.42-.09-.7-.04-.28-.1-.46V.94zM92.85 36.53q.06-.18.1-.46.05-.28.08-.69.04-.4.06-.97l.01-1.33v-5.8l-.01-1.33q-.02-.57-.06-.98-.03-.42-.08-.7-.04-.27-.1-.46v-.03H95v.03q-.06.19-.11.47-.05.27-.08.7l-.05.97q-.02.57-.02 1.32v5.81q0 .76.02 1.33l.05.97q.03.41.08.69.05.28.1.46v.04h-2.13zm4.13 0q.1-.14.23-.42.12-.28.2-.71.1-.62.2-1.4l.26-1.64.26-1.75.25-1.77.23-1.67.2-1.48q.1-.67.15-1.16l.08-.75h1.14l5.6 10.49 5.57-10.5h.85l1.46 10.6q.07.5.14.86t.14.62l.13.42.14.26v.04h-2.25v-.04q.05-.1.08-.32.05-.22.05-.53l-.01-.24-.03-.26-1.13-8.55-5.27 9.9-.61-.07-5.3-9.92q-.31 2.12-.54 3.9l-.2 1.54-.18 1.42-.12 1.17q-.04.5-.04.74 0 .3.02.54l.03.39.06.33h-1.79zm18.87-.75q0-.2.07-.36.08-.18.2-.3.14-.14.31-.21.18-.08.37-.08.21 0 .38.08.18.07.3.2.14.13.2.3.09.18.09.37 0 .41-.28.69-.28.28-.69.28-.2 0-.37-.08-.17-.07-.3-.2-.13-.13-.2-.3-.08-.18-.08-.39zm18.44.79v-.04q.02-.04.02-.13l.01-.16q0-.28-.08-.6-.07-.35-.28-.85l-1.08-2.42q-.5-.02-1.33-.02h-3.16q-.65 0-1.18.02l-1.02 2.35-.29.72q-.15.4-.15.8 0 .11.02.2l.03.1v.03h-1.82v-.04q.16-.17.4-.6.25-.43.53-1.08l5.11-11.34h.72l4.84 10.9.35.75.35.64.28.48.17.25v.04zm-5.78-4.99h2.12l1-.02.88-.01-2.5-5.67-2.47 5.7zm11.2 4.2q1.05 0 1.94-.09.88-.09 1.54-.2.77-.13 1.4-.3l-.26 1.45-.32-.02-.48-.02-.55-.01-.55-.01-.46-.01h-4.14v-.04q.05-.18.1-.46t.09-.69l.05-.97q.02-.57.02-1.33v-5.8q0-.76-.02-1.33l-.05-.98q-.04-.42-.1-.7-.04-.27-.1-.46v-.03h2.15v.03l-.1.47q-.05.27-.09.7l-.05.97q-.02.57-.02 1.32zm6.52-12 2.21-.01 2.03-.02 1.57-.04q.65-.03.88-.08l-.44 1.2q-.29-.09-.68-.15-.34-.06-.83-.1-.48-.05-1.12-.05l-.51.01-.58.03-.65.04v4.87q.92-.01 1.66-.06.74-.04 1.26-.09.6-.05 1.07-.12l-.28 1.3q-.61-.09-1.25-.16-.56-.06-1.2-.1-.66-.06-1.26-.06v5.6q1.06 0 1.94-.1.88-.09 1.54-.2.77-.13 1.4-.3l-.26 1.45-.32-.02-.48-.02-.55-.01-.55-.01-.46-.01h-4.14v-.04q.06-.18.1-.46.05-.28.09-.69l.05-.97q.02-.57.02-1.33v-5.8q0-.76-.02-1.33l-.05-.98q-.04-.42-.09-.7-.04-.27-.1-.46v-.03zm8.96 12.75q.05-.18.1-.46t.08-.69q.04-.4.06-.97.02-.57.02-1.33v-5.8q0-.76-.02-1.33-.02-.57-.06-.98-.03-.42-.08-.7l-.1-.46v-.03h2.14v.03q-.06.19-.1.47-.05.27-.09.7l-.05.97q-.02.57-.02 1.32v2l5.2-4.26q.88-.72.88-1.23h2.51v.03q-.53.13-1.07.48t-1.14.86l-4.6 3.85 5.53 6.09.6.6.43.39.34.26.33.2v.03h-2.61q-.04-.08-.13-.2-.08-.13-.2-.27-.1-.13-.24-.27l-.24-.27-5.59-6.14v3.66q0 .76.02 1.33l.05.97.08.69q.05.28.1.46v.04h-2.13zm17.13-10.72h-.2q-.06-.2-.23-.46-.15-.26-.4-.48-.26-.24-.62-.39-.36-.15-.85-.15-.44 0-.77.13-.34.14-.58.38-.22.24-.33.57-.12.33-.12.73 0 .64.36 1.23.36.58.9 1.15.55.57 1.18 1.14.64.58 1.18 1.2.55.6.9 1.28.37.67.37 1.45 0 .58-.2 1.17-.2.58-.62 1.04-.42.47-1.08.76-.66.28-1.57.28-.51 0-.97-.1-.46-.08-.85-.22-.39-.14-.7-.3-.3-.16-.5-.3l.2-1.97h.23q.1.42.32.8.23.38.55.68.33.28.75.46.41.17.91.17.46 0 .82-.13.36-.15.62-.39.26-.25.4-.59.14-.34.14-.74 0-.56-.2-1.03-.21-.48-.55-.91-.33-.43-.76-.83-.42-.4-.87-.8-.44-.41-.87-.84-.42-.43-.76-.91-.33-.5-.53-1.05-.21-.56-.21-1.23 0-.7.27-1.26.27-.57.72-.98.46-.4 1.03-.61.57-.21 1.17-.21.45 0 .82.07.38.07.67.17.3.1.53.2l.37.15zm11.83 10.76v-.04q.02-.04.03-.13v-.16q0-.28-.07-.6-.08-.35-.29-.85l-1.08-2.42q-.5-.02-1.33-.02h-3.16q-.65 0-1.17.02l-1.03 2.35-.28.72q-.16.4-.16.8 0 .11.02.2l.04.1v.03h-1.82v-.04q.16-.17.4-.6.24-.43.53-1.08l5.1-11.34h.72l4.84 10.9.35.75.35.64.28.48.17.25v.04zm-5.78-4.99h2.12l1.01-.02.88-.01-2.51-5.67-2.46 5.7zm9.82-7.8 9.19 9.77v-6.28q0-.75-.02-1.32l-.05-.98q-.04-.42-.1-.7-.04-.27-.09-.46v-.03h1.59v.03q-.06.19-.1.47l-.08.7q-.04.4-.05.97-.02.57-.02 1.32v9.48h-.31l-9.2-9.77v6.1q0 .76.03 1.33.01.56.05.97l.08.69q.05.28.1.46v.04h-1.59v-.04q.05-.18.1-.46t.09-.69l.05-.97q.02-.57.02-1.33v-5.8q0-.76-.02-1.33l-.05-.98q-.04-.42-.1-.7-.04-.27-.09-.46v-.03zm14.95.76-.03 1.94-.02.82-.01.83-.01.78v.65l.01 1.44.02 1.74.04 1.71.06 1.37.33.04.45.04.46.02h.37q.62 0 1.28-.07.66-.1 1.26-.33.62-.23 1.15-.63.55-.4.95-1.05.4-.64.64-1.54.23-.91.23-2.15 0-1.36-.33-2.42-.33-1.07-.97-1.8-.63-.73-1.58-1.1-.93-.4-2.16-.4l-.54.02-.6.03q-.3.01-.57.04l-.43.02zm-1.95-.8.38.02.31.02h.26l.56-.02.91-.04 1.06-.03 1.03-.02q1.3 0 2.46.32 1.17.32 2.06 1.05.88.74 1.4 1.92.51 1.19.51 2.92 0 1.24-.27 2.23t-.76 1.75q-.5.75-1.18 1.3-.68.53-1.5.88-.83.35-1.76.51-.94.16-1.94.16-.36 0-.86-.03l-1.01-.04-.97-.05-.7-.02v-.04q.06-.18.1-.46.06-.28.1-.69l.05-.97q.02-.57.02-1.33v-5.8q0-.76-.02-1.34l-.05-.99q-.04-.41-.1-.7-.04-.29-.1-.47zm14.92 9.34q0 .76.02 1.33l.05.97.08.69.11.46v.04h-2.14v-.04q.05-.18.1-.46t.08-.69l.05-.97q.03-.56.03-1.33v-5.8q0-.76-.03-1.33l-.05-.98q-.03-.4-.08-.68-.05-.29-.1-.48v-.03l.37.03.38.03h.44q.34 0 .93-.08.6-.09 1.52-.09.86 0 1.58.23.73.23 1.26.68.54.45.83 1.1.3.64.3 1.46 0 .64-.16 1.2-.16.54-.47.99-.3.44-.71.79-.42.34-.94.57l3.13 4.4.43.57q.2.24.39.42.18.17.35.28.17.11.35.17v.04h-2.58q-.02-.17-.18-.45-.14-.28-.33-.56l-3.16-4.45-.41.03-.42.01-.51-.01q-.25-.02-.5-.07zm0-2.7q.24.05.5.08l.47.02q.67 0 1.23-.2.55-.2.93-.62.4-.4.6-1.01.22-.62.22-1.44 0-.67-.15-1.21-.15-.55-.45-.92-.3-.38-.75-.59-.46-.21-1.06-.21-.62 0-.99.06-.36.06-.55.13zm13.76.05v2.65l.01 1.33q.02.56.06.97.03.41.08.69.05.28.1.46v.04h-2.14v-.04q.06-.18.1-.46.06-.28.08-.69.04-.4.06-.97.02-.57.02-1.33v-2.47l-3.98-5.42q-.21-.28-.41-.51-.2-.23-.38-.4l-.32-.3-.22-.17v-.03h2.7q0 .2.17.67.18.47.63 1.1l2.93 4 2.86-4.18.3-.45q.16-.23.28-.45.13-.21.2-.39.08-.18.08-.3h1.74v.03q-.2.17-.53.51-.33.33-.71.88zM102.59 48.3l3.56 8.66 3.47-8.5q.2-.53.3-.9.1-.36.1-.62v-.16q-.01-.09-.03-.13v-.04h1.77v.04q-.18.2-.4.62l-.48 1.06-4.76 11.35h-.68l-3.47-8.42-3.17 8.42h-.66l-4.38-10.9q-.16-.4-.33-.75l-.3-.64q-.15-.29-.27-.48l-.17-.26v-.04h2.47v.04l-.02.15v.12q0 .3.06.65.07.34.27.82l3.35 8.47 3.2-8.53zm18.48 11.1v-.03q.02-.05.02-.14l.01-.16q0-.27-.08-.6-.07-.34-.28-.84l-1.08-2.43q-.5-.02-1.33-.02h-3.16q-.65 0-1.18.02l-1.02 2.36-.29.72q-.15.4-.15.8 0 .11.02.19l.03.1v.03h-1.82v-.03q.17-.17.4-.6.25-.44.53-1.09l5.11-11.34h.72l4.84 10.9q.17.39.35.75l.35.65.28.48.17.25v.03zm-5.78-4.98h1.06l1.06-.01 1-.01q.5 0 .88-.02l-2.5-5.66-2.47 5.7zm19.67-5.85-.08.04q-.7-.64-1.68-1.03-.97-.38-2.14-.38-1.13 0-2.06.36-.94.35-1.62 1.01-.67.67-1.04 1.65-.37.97-.37 2.2 0 1.37.35 2.56.36 1.18 1.06 2.04.7.87 1.76 1.37 1.06.49 2.47.49.51 0 1.02-.11.5-.1.97-.31.47-.22.88-.51.42-.3.76-.69l.1.07-.71 1.82q-.67.25-1.48.39-.8.14-1.63.14-1.65 0-3.02-.47-1.37-.48-2.36-1.36-.98-.87-1.53-2.1-.54-1.23-.54-2.72 0-.85.2-1.67.23-.82.65-1.56.42-.74 1.04-1.36.61-.62 1.4-1.08.8-.45 1.74-.7.95-.26 2.06-.26 1.72 0 3.19.52zm10.86 4.71h-.9l-1.16-.02-1.31-.01-1.33-.01h-1.24q-.59 0-1.03.03v2.65q0 .75.02 1.33l.06.97q.03.4.08.68l.1.47v.03h-2.14v-.03q.06-.19.1-.47.05-.27.09-.68.04-.41.05-.97.02-.58.02-1.33V50.1q0-.76-.02-1.32-.01-.57-.05-.98-.04-.42-.09-.7-.04-.27-.1-.46v-.04h2.14v.04l-.1.46q-.05.28-.08.7l-.06.98q-.02.56-.02 1.32v2.28l1.06.03h1.23l1.3-.02q.67 0 1.29-.02l1.15-.03.94-.04v-2.2q0-.76-.03-1.32-.01-.57-.05-.98-.03-.42-.08-.7-.04-.27-.1-.46v-.04h2.14v.04l-.1.46q-.05.28-.08.7-.04.4-.06.98-.02.56-.02 1.32v5.8q0 .76.02 1.34.02.56.06.97.03.4.08.68l.1.47v.03h-2.14v-.03q.06-.19.1-.47.05-.27.08-.68.04-.41.05-.97.03-.58.03-1.33zm4.93-6.67 9.2 9.78V50.1q0-.76-.03-1.32-.01-.57-.05-.98-.04-.42-.09-.7-.04-.27-.1-.46v-.04h1.6v.04q-.06.19-.1.46-.05.28-.09.7l-.05.98q-.02.56-.02 1.32v9.47h-.31l-9.19-9.77v6.1q0 .76.02 1.34l.05.97.08.68.1.47v.03h-1.59v-.03q.06-.19.1-.47.05-.27.1-.68.03-.41.04-.97.02-.58.02-1.33V50.1q0-.76-.02-1.32-.01-.57-.05-.98-.04-.42-.09-.7-.04-.27-.1-.46v-.04zm13.08 12.76.1-.47.08-.68.05-.97q.02-.58.02-1.33V50.1q0-.76-.02-1.32l-.05-.98-.08-.7-.1-.46v-.04h2.13v.04l-.1.46q-.05.28-.08.7l-.06.98q-.02.56-.02 1.32v5.8q0 .76.02 1.34l.06.97q.03.4.08.68l.1.47v.03h-2.13zm4.76-12.76h2.22l2.02-.02 1.57-.05q.65-.03.88-.07l-.43 1.19q-.3-.08-.69-.15l-.83-.1q-.48-.05-1.11-.05l-.52.02q-.3 0-.57.03l-.65.03v4.87q.92 0 1.66-.05l1.25-.09q.61-.05 1.07-.13l-.27 1.3-1.26-.15q-.55-.07-1.2-.11-.66-.05-1.25-.05v5.59q1.05 0 1.93-.09.89-.09 1.55-.2.76-.13 1.4-.3l-.26 1.45-.32-.02-.49-.02-.55-.02h-.54q-.26 0-.47-.02h-4.14v-.03q.06-.19.1-.47.06-.27.1-.68l.05-.97.01-1.33V50.1l-.01-1.32q-.02-.57-.06-.98-.03-.42-.09-.7-.04-.27-.1-.46v-.04zm17.3 1.69 3.58 8.66 3.47-8.5q.2-.53.3-.9.1-.36.1-.62l-.01-.16q0-.09-.03-.13v-.04h1.77v.04q-.18.2-.4.62l-.48 1.06-4.76 11.35h-.68l-3.47-8.42-3.16 8.42h-.67l-4.37-10.9q-.16-.4-.33-.75-.16-.36-.32-.64l-.25-.48-.18-.26v-.04h2.47v.04l-.02.15v.12q0 .3.06.65.07.34.27.82l3.35 8.47 3.2-8.53zm15.52.35h-.2q-.07-.2-.23-.47-.15-.26-.4-.48-.26-.23-.62-.38t-.85-.15q-.44 0-.78.13t-.57.37q-.22.24-.34.57-.11.33-.11.74 0 .64.35 1.23.37.58.91 1.15.55.57 1.18 1.14.64.57 1.18 1.19.54.61.9 1.29.37.67.37 1.44 0 .58-.2 1.17-.2.58-.62 1.05-.42.46-1.08.75-.66.29-1.57.29-.51 0-.98-.1-.45-.09-.84-.22-.39-.14-.7-.3-.3-.16-.5-.3l.2-1.97h.23q.1.42.32.8.22.38.54.67.33.29.75.47.42.17.92.17.46 0 .81-.14.37-.14.63-.38.26-.25.4-.6.13-.33.13-.73 0-.56-.2-1.04t-.55-.9q-.33-.43-.75-.84-.42-.4-.87-.8-.44-.4-.87-.84-.42-.42-.76-.9-.33-.5-.54-1.05-.2-.56-.2-1.23 0-.7.27-1.27.27-.57.72-.97.45-.4 1.02-.62.58-.21 1.18-.21.45 0 .82.07.38.07.67.17.3.1.53.2l.36.16zm2.98 10.72.1-.47q.05-.27.09-.68l.05-.97q.02-.58.02-1.33V50.1q0-.76-.02-1.32l-.05-.98q-.04-.42-.1-.7-.04-.27-.09-.46v-.04h2.14v.04l-.1.46q-.05.28-.09.7l-.05.98q-.02.56-.02 1.32v1.99l5.21-4.26q.88-.71.88-1.23h2.5v.04q-.52.12-1.07.48-.53.35-1.14.86l-4.6 3.85 5.54 6.08.59.6.43.4.34.25.33.2v.03h-2.61q-.04-.08-.13-.2-.08-.13-.2-.26l-.23-.28-.24-.26-5.6-6.14v3.66q0 .75.02 1.33l.05.97.08.68.11.47v.03h-2.14zm11.88 0q.06-.19.1-.47l.08-.68q.04-.41.05-.97.02-.58.02-1.33V50.1q0-.76-.02-1.32-.01-.57-.05-.98l-.08-.7q-.04-.27-.1-.46v-.04h2.13v.04l-.1.46q-.05.28-.08.7l-.06.98-.01 1.32v5.8l.01 1.34.06.97q.03.4.08.68l.1.47v.03h-2.13zm4.77-12.76h2.2l2.03-.02 1.57-.05q.65-.03.89-.07l-.44 1.19q-.3-.08-.69-.15l-.83-.1q-.48-.05-1.11-.05l-.52.02q-.3 0-.57.03l-.65.03v4.87q.92 0 1.66-.05l1.25-.09q.61-.05 1.07-.13l-.27 1.3-1.26-.15q-.55-.07-1.2-.11-.65-.05-1.25-.05v5.59q1.05 0 1.93-.09.89-.09 1.55-.2.76-.13 1.4-.3l-.26 1.45-.32-.02-.48-.02-.56-.02h-.54q-.26 0-.47-.02h-4.13v-.03l.1-.47q.05-.27.08-.68.04-.41.06-.97l.01-1.33V50.1l-.01-1.32q-.02-.57-.06-.98-.03-.42-.09-.7-.04-.27-.1-.46v-.04zm10.76 10.95q0 1.2-.25 2.08-.24.89-.68 1.57-.44.68-1.05 1.22-.6.53-1.31 1.05l-.16-.22q.62-.56.97-1.17.37-.6.56-1.3.2-.7.24-1.48.06-.8.06-1.75V50.1q0-.76-.02-1.32l-.05-.98q-.04-.42-.1-.7-.04-.27-.09-.46v-.04h2.14v.04l-.1.46q-.05.28-.09.7l-.05.98q-.02.56-.02 1.32z" aria-label="STOWARZYSZENIE IM. ALEKSANDRY WACHNIEWSKIEJ" font-family="Marcellus" font-size="13.3" letter-spacing="0" style="line-height:1.25;-inkscape-font-specification:&quot;Marcellus, Normal&quot;;text-align:center;white-space:pre" word-spacing="0"/>
</svg>
