<?xml version="1.0" encoding="UTF-8" standalone="no"?>
<svg
   xml:space="preserve"
   width="240"
   height="64"
   version="1.1"
   id="svg5"
   sodipodi:docname="logo.svg"
   inkscape:version="1.4.1-rc (06eac75fbf, 2025-03-29)"
   xmlns:inkscape="http://www.inkscape.org/namespaces/inkscape"
   xmlns:sodipodi="http://sodipodi.sourceforge.net/DTD/sodipodi-0.dtd"
   xmlns="http://www.w3.org/2000/svg"
   xmlns:svg="http://www.w3.org/2000/svg"><sodipodi:namedview
   id="namedview5"
   pagecolor="#ffffff"
   bordercolor="#666666"
   borderopacity="1.0"
   inkscape:showpageshadow="2"
   inkscape:pageopacity="0.0"
   inkscape:pagecheckerboard="0"
   inkscape:deskcolor="#d1d1d1"
   showgrid="false"
   inkscape:zoom="5.1618795"
   inkscape:cx="116.043"
   inkscape:cy="46.882148"
   inkscape:window-width="2560"
   inkscape:window-height="1408"
   inkscape:window-x="1920"
   inkscape:window-y="0"
   inkscape:window-maximized="1"
   inkscape:current-layer="svg5" />
  <defs
   id="defs1">
    <path
   id="a"
   d="M81.2 10.2h153.5v51.5H81.2z" />
  </defs>
  <path
   fill="none"
   stroke="#000"
   stroke-linecap="round"
   stroke-linejoin="round"
   stroke-width=".5"
   d="M34.1 1.9h.6m.6 0c-.6-.6 0 1.1 0 0m-1.2 0v.5m2.3 2.3c0 2.9-1.1-1.7 0-1.1.6 2.9 2.9-2.3 3.5-1.2-1.2 3.5 1.7.6 1.7.6M30 2.4c0-1.7 1.7 2.3 0 1.8 0 0 0-1.2 0 0m4.6-2.3v.5m.6-.5-.6.5m-8 1.8c0-.6-.6-3.5.5-1.2 1.2 1.7 1.2 3.5 1.2 4.6 0 1.7-1.7-.6 0 0m2.3-5.2c1.7-1.1.5 2.3 1.1 1.8M33 2.4V3h-.6m2.3-.6-.6 1.2m0-1.2.6.6m.6-.6c0 .6 0 0 0 0m-.6.6.6-.6m1.7 0-.6 1.2m15 .6c-1.8-.6 0-3 0-.6.5 2.3 1.1-1.7 1.1 1.1 0 1.8 2.9 2.9 1.7 0 1.8.6.6 3.5 1.8 1.2 0 1.7.5 2.3 1.1.6-1.1-2.3 2.9.5 0 1.1 0 .6.6 1.2-1.1.6M36.4 3h.6v-.6m-1.7 0 .5.6m-5.7-.6.6.6m3.4-.6V3m.6-.6v0m.6 0V3m0-.6V3M38 3h.6M33 3c.5-.6.5 1.2.5.6m.6-.6v0m.6 0v0m-2.9 0v0M33 3c-.6.6 0 1.7-1.2 1.7M34.1 3v0M33 3h.5m2.3 0v1.2M41.6 3v.6M28.4 3c1.7.6 0 2.3 0 0zm1.7.6v0m9.2 0c-.6.6-1.2 1.7-2.3 1.7l1.1-.6M37 3.6h-.6m11 2.3c1 0-1.2-3.5.5-1.7 0 .5.6 1.1 1.2.5m-24.7 0c-1.8-.5 0-1.7 0 0m5.1-1.1v0m9.2.6s.6-.6 0 0m1.7 0c1.2 0 0 1.1 0 0m-8.6 0h.6m1.7 0h-.6v0m8 0 .7.5m8.6-.5c1.7 1.1-.6 3.4-1.2 1.7-.5 1.1-1.1 0-.5-1.2m2.3-.5s0 0 0 0m0 0h.5m-.5 0h-.6m-23.6 0c1.2 2.3-2.3.5-.5 2.3-1.2 1.7-1.2-1.8-2.3-1.8M38 4.2h.6m-9.7 0c0 1.1 1.7 2.3-.6 1.7m.6-1.2h.5m4 0c1.2.6-1.7 2.3-.5 0h.5m4 2.3c-.4-1.7 3.6-3.4 2-1L37 7.6v0m15-2.9h-.6m.5 0v0l-.5.6m-20.2-.6c1.2 0-.5 1.2 0 0zm3.5 0c1.1.6-.6 2.3 0 1.8m7.5-1.8c0 1.8 2.8.6 0 1.8l-.6 1.7M24.4 4.7c1.7 2.9-4 .6-.6 2.3l.6-.5m10.3-1.2c-.6 0-1.2 1.7-1.2.6m11 3.4c1.7 0-.6-1.7.5-2.3-1.1-2.8.6-1.1 1.2 0 .6 2.9.6-2.3.6 0v0m-.6-.5c-.6-1.2.6-2.3.6 0M34.7 5.3v0m-12 0v.6m5.7 0v-.6m10.3 0v.6m7.5-.6v0m7.5 0v.6m-17.9-.6v.6h.6m-9.2 0h-.5m12 0h-.6v0m2.3.6c-2.3 0 2.3-1.2 0 0 0 0 0 0 0 0m-9.2 0c1.2 0-.5 2.8-.5.5-1.2-1.1.5-1.1 1.1-.5-.6-3 1.7 2.8 0 2.3m7-3v0m-.7 0h.6m8.6 0c0 .7-.5 0 0 0m3 0h.5m-3.5 0v0m-.5 0h.5m5.8 0L51.9 7M33.5 6v.6m5.2-.6v.6M34.1 6l-.6.6v0m1.8-.6c1.7.6 0 2.3.5 2.3M47.3 6l-.5 1m8-1.1v0M37 6.5c-.6.5-.6-.6 0 0zM52 7l.5-.5m-4.6 0c-.6.5 1.2 1.1.6 0m9.2 0H57m-23.6 0c-.5.5.6 1.7.6 1.1m.6-1.1c.6.5 1.1.5.6 1.1m8-1.1v0h-.6m13.3 0v0m2.3 0v0m-30.5 0v0m9.2 0v0m9.8 0v0m-23.6 0v0m8.6 0v0m5.2 0v0m5.2 0v0m-5.2 0V7M38 7v-.5h.6M25 6.5c1.8.5 0 1.1 0 0m5.2 0c-1.7 0 .6 2.3 0 .5m1.7-.5v0l.6.5m4.6-.5v1.1M40 6.5l-.6.5M37 7h.6-.6m-8.6 0h.6m1 0v0m4.6 0 .6 1.2m-4-1.2v0m6.3 0v0M45 7h.6m.6 0h.6m-7.5.6c-1.2 0 0-1.1 0 0m4.6-.6-1.2.6M45 7v0M24.4 7v1.2m25.2-.6c0 .6-.5-1.1.6-.6M60 7c0 .6 1.1 2.3 0 .6M37 7v0m6.9 0c-1.2 1.2-.6 1.2 0 1.2M49.6 7v.6m4 1.2c-1-1.8.6-1.8 1.8-.6 0 1.7-3.5.6-1.7 1.1M43.9 7h-.6m13.8 0v.6m-24.7.6V7m2.3 0 .6.6m6.3 0h.6m-.6 0v0m8.6 0c1.2.6-1.1 1.2-.6 0m-11.5 0h.6M41 8.8c-1.1 1.7 2.9 1.1 0 0 0-.6-.6-1.2.6-1.2m1.7 0v0m-1.1 0h-.6m1.7 0v0m-1.1 0h.5m1.2 0v0m4 .6c-.6 1.1 1.2-2.3 1.2 0m-5.8-.6v0m1.7 0v0m7 .6c-.6-1.2 1.7 0 .5 0v0m-28.1-.6c1.1-.6 2.8 2.9 2.8 1.7-.5-.5 0-1.7-1.1-1.7m16.6 0v0m-8.6.6.6.6m25.9-.6h.5m-16.6 0v0M29 8.2c2.8-.6 1.7 1.7 0 0v0m31 0c-1.7 1.1 1.1 1.7 0 0m-16.1 0c1.1.6-.6 1.1-.6.6m2.3-.6.6.6m5.2-.6v1.1M56 8.2v0m-11.5 0h-.6v0m-16.7 0v.6m28.2-.6c0 1.1 1.1 0 .6.6m-22.5-.6c1.8 0 .6 3.4-.5 1.1v-.5zm1.8 0c1.1.6 0 1.1 0 1.1M41 8.2v.6m2.3-.6v.6M56 8.2v0m0 0h.5m-7.4 0v.6m2.3-.6.5 1.1m-2.8-1.1c1.1.6.5 1.7 0 1.1m-15-.5v0m.6 0v0m6.3 0v0m6.3 0c1.8.5-1.7 1.1 0 0m-6.3 0v0m20.7 0c.6 0 0 1.1.6.5m-27.6-.5h.6m8.6 1.7s-2.9-1.7-.6-1.7m.6 0v0m9.8 0H53m-13.8 0-.6.5m9.2-.5 1.2.5m6.9-.5c0 .5 1.7 1.7-.6 1.1-1.7-.6-3.5 4-1.2 1.7 1.2-2.3 1.8 1.7.6 1.2v0M61 9.9c.6 1.7-3.4 1.2-.5 0l1.1-1.1m-7.5 0v0m-2.3 0 1.2.5m.6-.5v0m-14.4 0c.6 1.1-.6 2.3-.6.5m-2.9-.5v0m23.6 0c-2.3 0 1.2 1.1-1.1 2.3 0 1.1-.6 4-2.3 2.8l1.1-.6m-36.8-1.1c2.3-1.1-1.7-4 .6-2.9l.6.6M49 8.8v.5m-16.7 3.5c-.6-1.2-1.7-4.6 0-3.5v0m2.9 0v0m0 0v0m4 0h.6m8.6 0v0m4.6 0v0m-1.2 0h-.5v0m1.1 0c-1.1 1.2.6 1.2 0 0m-33.9 0c-.6 1.2 0 1.2.6 1.2l-.6.6M21 9.3v0m6.9 0 3.4 3.5c0 1.7-3.4.5-2.2-.6m10.3-2.9v0M17 10.5l1.7-1.2m26.4 0h.6m14.4 0 .6.6m-42-.6v0m1.2 0v0m31.6 0v0m-19 0v0m1.1 0v.6m28.2-.6v.6m-14.4-.6c1.2.6 1.8 1.2.6 1.2m2.9-.6h.6m10.9-.6c-1.2 2.3.6 1.8.6 1.2M19.8 9.3v.6m-3.5 0h1.2m2.8 0v0m31 0v0M33 9.9s.5.6 0 0m12 0c1.8 0 0 1.2 1.2 1.2m6.3-1.2v0m-32.2 0v0m9.2 0h.6m4 0v0m-17.8 0h-.6m19.6 0v1.2m-9.8 1.1c-1.1-.6-2.3-1.7 0-1.1 1.2 1.1 0-3 1.2-.6-1.2 1.7 1.7 2.3 1.7.6v1.1m6.3-1.1.6-1.2m28.1 0s0 0 0 0M48 9.9v.6m2.9-.6h.6m-32.8 0v0m.6 0v0m2.3 0v.6m21.2-.6v0m7.5 0h.6m1.1 0v0m-31.6 0v0m13.8 0v0m-17.8.6.6-.6h.6m15.5 0v.6m14.3.6c-1.1-2.3 1.8 1.1-.5 0v0m4-1.2v.6m-34 0s0 0 0 0m0 0v0m16.2 0h.5m-16 0c1.1 1.1-1.2.6-1.2 1.1m21.8-1.1c2.3.6-.5 3.4 0 2.3m9.8-2.3v0m2.9 0v0m-34 0v0m4.1 0v0m12.6 0c0 1.1-1.1-.6-1.1.6v0M18 10.5s.6.6 0 0m26.5 0v0m6.3 0h-.6m-33.3 0v0m17.8 0v0m11.5 0v0m4.6 0v0h-.6m-8.6 0c1.7.6-.6 2.3 0 0m5.7 0-.5.6m16.6-.6c1.8 1.1-2.8 2.3.6 2.3v0-.6m-31.6-1.7h.6m0 0v.6m10.9-.6c0 1.1 4 3.4 2.3 1.1m.6-1.1v0m-28.2 0v0m19.5 0v2.3m-19-1.7-.5-.6.6.6m32.2.5c-.6-.5 1.1-1.1 0 0m-30-.5c-1 .5 3.5 1.7 1.2 1.7m11-1.7.5.5m5.2 2.3C38 12.2 41 10 41 12.2c-.6 1.7-1.7 1.7-2.9 2.9-.5-1.2 1.2-.6 0-.6m3-3.4v0m5.7 0v0m-25.9 0v0m23.6 0v.5m-28.8 0c-1.1-.5 1.2-.5 0 0v0m.6-.5v0m2.3 0-.6 1.1m29.3-1.1v0m-32.1 0h.5m18.4 0c2.9 2.2-.6 3.4-.6 1.1l1.2 1.1m16.7-2.2v.5m-35 0v-.5m34.4 0c0 .5 1.1 1.1 0 1.7m-31.6-.6c1.1-1.1-.6-.6 1.1-.6m5.8-.5v.5m-7 0v0m-2.8 0h.6m44.2.6c-2.3 1.1-1.1-1.1 0-.6v.6m-10.3-.6c-.6.6-.6 1.2.6 1.2m.5-1.2v0h-.5m7.4 0h.6m-42.5 0-1.2 1.7m5.2-1.7c-.6.6 1.2.6.6.6m-5.2-.6v0m27 0s3.5 2.3 1.2 2.9l-1.2-2.3m19 0c-1.2 0-.6-1.1 0 0m-43.7-.6v.6m9.8-.6v.6m26.4-.6v1.2m-35.6-1.2v.6m24.1 0s0 0 0 0m4 0c1.8 0-.5.6 0 0zm16.1 0v0m-47 0v0m1.6 0v0m42.6 0h.5m-36.7 0c-.6.6 2.8 1.1 1.7 2.9-1.2.5 2.9 1.1.6 1.1v-.6m-7.5-3.4v0m11.5 0v0m-10.4 0v0m34.5 0 .6.6M18 12.2v.6m32.2-.6h-.6zm-25.3 0h.6m-5.2 0c-.5 0-.5-.6 0 0m-3.4.6c0-.6 1.1 1.7-.6 1.1 0 0 0 .6 0 0m2.9-1.7L18 13.3m1.8-1.1v0m18.3 0v0m-19 0v0m3 0 .5.6v0m19.6 1.7c-1.8 2.9-1.8-1.7 0-2.3h1.1m5.8 1.1c-.6-1.1 1.1-1.1.5 0m-36.2 1.2c.6.6 3 0 1.8-1.7h1.1m2.9-.6v0m.6 0v0m-3 0v.6m15 .5c-1.7 1.8 2.3.6 0-.5-.6-1.2 0 .5 0 0M56 13.9c0-1.7.5-1.7 1.1-.6m1.7-.5c0-1.2.6 0-.5.5m-40.8-1.1.5.6v0m1.8-.6v.6m31.6-.6v.6m2.8 0v-.6m-37.9.6h.6m15.5 0c.6 1.1 4 4.6 4 3.4m-19-3.4v0m2.4 0v0m23 0c-.6 1.1 1.7 2.3 1 3.4m10.4-3.4v0m-28.1.5c-.6-1.1 3.4 1.2.6 1.2v-1.2m27.5-.5c.6.5-1.7 3.4.6 1.7 1.2.6 0-.6 1.2-1.2m-40.8-.5v0m16.6 0 .6.5m20.1 0 1.7-.5m10.4 0h.6m-45.4 0c-1.2 1.1-.6 1.1 0 2.3m27-2.3c1.1 0-.6.5 0 0m-20.7 0v0m8 0v0m2.3 0c.6 2.3-1.1.5 0 0m17.8 0h.6m9.2 0v0m-9.8 0c-.5 1.1-2.3 1.1-2.3 1.1v0m-34.4-.6v-.5.5m2.3-.5v1.1m9.2-.6c0 3-2.3-1.7 0 0m25.8-.5v0m-31.6 0 .6 1.7M18 13.3v0m2.3 0h2.3m42.6 0c-2.3.6-.6.6.5 1.8-1.1-.6-3.4.5-2.3 1.7l1.2-1.2M18 13.3v0m3 0v0m39.6 0c1.7.6-2.3 1.2 0 0zm-44.9 0c.6 0 0 0 0 0m34 0H49m-30 0v0m43.2 0c2.3 0-.6 1.2 0 0m-33.3 0v0m16.6 0c1.2 0-.6 1.2 0 0zm-25.8 0h.5m8.7 0v0m2.2 0v0m7 .6h1m8.7-.6c1.7 2.3-1.1 1.2 0 0m-27.6 0-.5.6m32.7-.6-.6.6m2.3 0v-.6 0m-37.9 0v.6m31.6-.6v0m-31 0h.6m11.5 0v.6m25.2 0v-.6m-1.1 0v.6m6.3-.6c1.2 1.2-1.7 1.2 0 0m-40.8.6h.6m1.1 0H22m3.4 0c-1.1 0 0 1.2 0 0m8.6 0c1.2 0 1.7.6 1.7 1.2m18.4-1.2s-.5-.6 0 0m-37.9 0v0m1.2 0c.5.6-.6 0 0 0zm1.1 0h.6m-2.9 0h.6m11.5 0h.6m-12.7 0v0m.6 0h.6m29.3 0c1.7 0 0 1.7.5 1.2m-31-1.2c-.6 1.2-.6 0 0 0zm.6 0v0m5.2 0h1.1m13.2 0v.6m-19-.6c1.2.6 3.5 4.6 1.2 1.7 0 .6.6 2.3-1.1 1.2v-.6m1.7-2.3v0m0 0v.6m2.9-.6v.6m8.6.6c-2.9.5.5-2.3 0 0m31.6-.6c-2.3 1.7-2.3-1.2 0 0m-30.5 0v0m25.9 0c1.1 0-.6.6 0 0zm-25.9 0v0m-12.6 0v0m21.8 0v0m5.8 0v.6m-23-.6c1.7 0 .6 1.7 1.1 1.1v0m1.8-1.1h.5m21.3 0v0m-32.8 0h-.5m30.4 0c2.3 1.1-1.1 1.7 0 0zm-32.2 0v0m7 0 1 .6m-1-.6v0m13.7.6c1.2.5 1.2 3.4-.6 1.7-.5-.6-1.7-3.5.6-1.7zm-12-.6 1.1.6m.6-.6c1.1 1.1-1.2 1.1-.6 2.3m27-2.3H52c1.2 0 1.2 1.1 1.8.6m3.4-.6h.6m0 0h.6m-40.3 0v0m4 1.1v-1.1m28.8 0v.6m11.5-.6v0M40 15.6c-.6-.5 1.1-1.1 0 0v0m-26.5-.5c1.2.5.6 1.1 0 1.1m7-1.1s0 0 0 0m-9.8 0h.5m5.2.5c.6-1.7 1.2.6 1.7.6m1.8-1.1h.5m-.5 0v0m40.8 0h.5m-19 0 1.2 1.1m-32.2-1.1c1.2 0 3 3.4 0 2.3H10m4.6-2.3v1.7m36.2-1.7v0m2.3 0h.6m6.9 0v0m-11 1.1c-1.1.6 1.8 0 .6-1.1m-39.6 0 1.1 2.3M18 15h.6m4.6 0 .6.5m2.9 0c1.1-1.7 1.7 1.2 1.1 2.3m8-2.8v1.1M61.1 15h-.5m.5 0c3.5 0-1.7 4-.5 0m-44.3 0v0m30.5 0h.5m-23.5 0-1.2 1.1M47.3 15v.5m4-.5v.5M21.5 15h.6m6.3.5C29 14 30 18 30 15.6c1.1 0-1.1 5.2-1.7 1.8v-1.2m25.8-1.1v0m-32.1 0v.5h-.6m16.6-.5v1.1m13.3-.6h-.6v0m-27.6 0v0m27.6 0v0m.6 0v0m8 1.2c0-3.5 1.7 0 0 0zm-13.8-.6c-.6 1.7-1.7-1.7-.6-.6m5.8.6c.6 0 1.1-1.1 2.3-.6m-42.5 0v0m5.7 0c.6 0 1.2.6.6 1.2m19-1.2v0m-24.8 0v0m11.5 0v0m2.3 0c1.2.6 2.3 3.5 3.5 3l-.6-.7v0m2.9-2.3v0m8 1.2c-1.7 4 0-3.5.6 0 0 1.1-1.2-.6 0-.6m-23 0c-.6-1.1.6 2.9.6.6m-2.3 0c.6.6.6-1.2 1.1-1.2m0 0v0m-1.1 0v0m13.8 0v.6m29.9-.6c1.7.6-1.2 1.2 0 0zm-36.2.6c-1.8 0-.6-1.1 0 0m-4.6 0 .5-.6m5.8 0 .6 1.2m2.8-1.2h.6m-9.8.6v0m2.3 0c1.2 0-.5.6 0 0zm2.3 0h.6m45.4 0c1.1 1.7-5.2 1.2-1.7 1.7v0m-54.6-1.7v0m5.7 0v0m4.6 0h.6m-5.7 0zm14.3 0c-.6-1.1.6 1.7.6.6m33.3-.6c.6 1.2 1.7 0 2.9 0m-26.4 0c.5 1.2-2.3 1.7-1.2 0zm15 0c.5 0-.7.6 0 0zm-26 0v0m-20 .6c-1.2 0 0-1.2 0-.6m13.2.6 1.1-.6m5.7 2.9v-2.9s0 0 0 0m8 0c1.2-.6 0 2.9-.5 1.2M14 16.2c.6.6-.6 1.2-1.1.6m19-.6v0m33.8 0h-1.1m-39.7 0h.6m13.8 0v0m5.2 0v0m5.1.6 1.2-.6m-38 1.2c-1-.6-1-1.8 0-.6m7-.6v0m5.7 0v1.2m23.6-1.2.5.6m-33.9 0h.6m20.1 0s0 .6 0 0m13.8 0v0m-20.1 0v0m20.1 0h-.6v0m-26.4 0v0m6.9 0v0m6.3 0v.6m0-.6v0m7.5 0c.6 1.7-3.5 2.9-1.7.6l1.1-.6m-12.6 0v0m-15.5 0v0m14.9 0v0m0 0v0m29.3 0v0m-36.2 0 1.2 1.1m3.4-1.1v0m20.7 0c-.6.6.6 0 .6.6m10.3-.6v0m-15.5 1.1c0-2.3 3.4 0 .6 0-.6 0 0 0 0 0m-34-.5.6-.6v0m34 0v.6m9.7 0c1.2-1.2 2.3 1.1 0 0m9.8-.6v0m-41.4 0v.6m4.6-.6v0m28.2.6c2.3-.6 3.4 1.1 1.1 1.1l-.6-1.1m5.8-.6v.6m2.3-.6c2.8 1.1-4 1.7-1.2.6h1.2m-32.2 0c0 1.1 1.1 1.7 0 2.8 0 1.2-1.7-.5 0 0m6.9-2.8v0m-13.8 0c1.2 0-.6 1.1.6.5m10.3-.5s0 0 0 0m0 0c.6.5-.6 1.1 0 0m12.7 0s0 0 0 0m-18.4 0v0m-20.7 0v0m1.1 0v0m12.7 0v0m10.3 0c-.6 1.1 1.7.5.6 1.7-.6 1.7 1.7-.6.6 1.7-.6 1.2.5.6.5.6m12.1-4v.5m8-.5v0m-6.8 0-.6.5v0m-29.9-.5v0m20.7 0s-.6 0 0 0m-15 0v0m11 0c1.1 0 .5 2.8 1.1 2.8m2.9-2.3v-.5m-27.6 0v0m1.2 0-.6.5m49.4-.5v.5m-45.4-.5v0m9.8 0-.6.5m27 0c1.2-1.1 2.3 1.8 0 .6-2.3.6 0-.6 0-.6m9.8 0h-.6m-37.3 0h.5m14.4 0v0m9.2 0v0m4 0h.6m-39.7 0c.6-.5.6 1.2-1.1 1.2l-1.7.6M22 17.9c1.7-.5 1.1.6-.6.6V18m3.4 0c.6.6-2.3 0 0 .6v0m-9.7-.6c-.6 0 .5 0 0 0m0 0c1.7 0-.6 1.2-.6.6M53 18v0m12 0h1.2m-53.4 0v0M26 18v0m12.6 0h.6m-15.5 0h.6m15.5 0c1.7 1.2-1.2 1.8 0 0zm-25.3.6V18h.6m22.4 0h.5m9.8 0h.6m18.4 0c2.3.6-2.9 0-1.2 1.8-1.1 0-2.3-.6-.5.5-1.2 0-3-.5-3.5 1.2m-43.6-3c1.2-1.1 1.8 0 3 0m4-.6h.5m31.6 0v0M17 18h.6m8 0v0m-6.3.6V18h.6m0 0v0M48 18v0m8 .6c-2.2 1.2-1.7-1.1 0 0m11-.6h.5M17 18v0m-.6 0v.6m43.7.6c-.6.6-.6-1.7.6-.6 2.8-.6-1.2 4.6-1.8 2.9m-12.6-2.9c-.6.6-3.5 1.2-1.7 0h2.3m5.1 0v0m-36.7 0h.5m3.5 0v0m11.5 0c0 2.9-1.7.6-.6 0m-3.4 0c-.6 1.2.5-1.1.5.6m3.5-.6v0m-4 0v0m20.6 0v0m-31.6 0v0m12.1 0v0m16.7 0v0m-24.2 0s-.5.6 0 0m4.6 0 1.2.6m-.6-.6c.6-.6.6 0 .6.6m-8.6-.6c.5 1.2.5 0 .5 0m33.4 0s0 0 0 0m-34 .6c.6.6 1.8-1.2 2.4 0m0-.6h.5m5.8 0v0m31.6 2.3c-2.3-1.7-.6-2.3.6-.6L57 21.4m8.6-2.9v0M7 18.5c-.6.6 1.7.6 1.7 1.2m9.8-.6v-.6m7.5 0v0m1.7 0v.6m-20 1.1c0 .6 1.7 0 0-.5L7 19m7 0c1 .6 2.8-1.2 2.2 1.1v1.2m2.3-2.3v0m27.6 0v0m-19.5 0h.5m7 0h.5m16 0c-1 .6.7-.6 0 0M18 19v0m1.2 0h2.3m-5.2 0h.6m41.4 0c1.7 0-1.2 1.1 0 0M18 19v0m20.7 2.3c-1.7-1.2 1.7-3.5.6-1.2-1.2.6-1.7 3.5-1.2 1.8m7-3v0m-31 0v0m48.8.7c-1.8 0 .5-1.2 0 .5M20.3 19v0m5.8 0c-.6 0-.6 0 0 0m27.6 1.1c1.7-2.3 3.4.6 0 .6v0l-.6.6M31.2 19s0 .6 0 0M52 19c1.8-.6 0 2.3-.5 2.3v0M7.7 19v.6m3.4 0c.6.5 1.8-.6 3-.6m2.2 0h.6m0 0v0m34.5 0c1.1 0-1.2 1.1-.6 1.1M66.3 19c2.9 0 1.7 1.7-.6.6M26.1 19c2.3 1.7-2.3.6-.6 0v0m0 0v0M60 19c1.1.6-1.7 1.1-.6 2.3h-.6M15.2 19h.5m5.8 0 1.1.6m9.2 0h.6m15.5 0h1.7m1.8 0V19m-38 .6V19m3.5 0v1.7m9.2-1.7-.6.6v0m23.6 0v0m-31 0h.5m12.6 0v0m10.4.5c-.6 0 2.9-1.1 1.1.6.6 2.3-1.7 3.5-2.8 4 1.7.6-1.2 1.8 1.1 1.2.6 1.1 0 1.1-.6 1.1m10.4-7.4c.6 0-.6 0 0 0m-33.3 0h.5m-.5 0v0m1.7 0h-.6v0m32.2 0v0M7 19.7v0m15 0v0m22.4.5c-.6.6 0-1.1 1.7-.5 0 0 0 0 0 0m6.3 0h.6m-4.6 0h.6m-40.3 0v0m20.2.5c-1.2-1.1 1.1.6.5 0v0m1.2-.5-.6.5m-21.3-.5 1.2.5m1.7-.5v0m11 0 1.7.5M11 19.7v0m14.4 0v0m5.2 0v.5m15.5-.5-1.7.5m5.1-.5h.6m.6 0v0M29 20.8c.5 2.3-1.8 1.2-1.8-.6.6-.5 1.8.6 1.2.6m20.7-.6v0l.5-.5m3.5 0h.6M20.3 22c0 .5-.5-3.5.6-1.2-1.1 1.2 1.7 3.5.6 2.3m4.6-2.9v0m23 0c-.6 0 0-.5 0 0m0-.5v.5m6.9-.5h.5m-14.3.5h-.6m6.9 0h.6m2.8 0h.6m-6.9 0h.6m7.5 0H53v0m-35 .6c-1.2 1.2 1-1.7.5.6h.6m6.9-1.2v0m4.6 0v0m13.8 0h.5m.6 0v0m7.5 0v0m-12.7 0h1.2m10.3 0c-.5 0 0 0 0 0m-15.5 0V22m14.4-1.8h.6m-13.3 0v0m9.8 0c.6 0-.6 0 0 0zm.6 0v0m2.9 0h.5m0 0v0m3.5 0v0m-38.5 0v0m2.9.6v-.6m4.6 0s0 .6 0 0m4.6 0c0 .6 1.7 1.2 1.1 0m-11 0v0m.7 0v0m9.7 0v0m22.4 0v0m-32.1 0v.6m10.3-.6v0h-.6m20.1 0s-.5.6 0 0m1.8 0v0m1.7 0v.6m-45.4-.6v0m2.3 0c0 .6 0 0 0 0zm0 0c.6.6 2.3 0 1.7.6m9.2-.6v.6m27-.6h.6-.6m1.2 0s0 .6 0 0m2.3 0v0m-43 1.2c0-.6-2.3 0-.6-1.2m39.6.6v-.6h.6m.6 0h-.6m.6 0h.6m.5 0c1.2 0-.5 1.2 0 1.2M10 20.2l-.6.6M14 22c0 .5-1.1-2.3.6-.6 1.7.6.6-1.7 1.7-.6m2.9-.6v.6m5.2-.6c2.8.6 0 4 2.3 3m21.8-3v0m-36.8.6h.6-.6m37.4 0v0l.5-.6M48 21.4c.6.6-1.1 0-.6-.6m4.6 0v0m-39.6 0h1.1m15 0h.6m11.4 0c-1.1 1.7 4-.6.6 1.7-2.3 1.2 2.3 1.2 0 0v0m6.3-1.7v0m-36.7 0v0m40.8.6c-.6-.6 0-.6.5-.6m-22.4 0H29m-8.7 0v0m38.5 0v0m-47 0v0m19.4.6c-.5 1.1-1.1-1.2 0 0m5.2-.6v0m5.8.6v-.6h.5m-25.2 0v0m1.1 0v0m3.5.6c.5-1.7 2.8 2.3.5.6l.6-.6m-15.5-.6v0m9.2 0v.6m1.1-.6.6.6m1.7-.6v.6m-13.2-.6v.6m11-.6-.6.6v0m1.1-.6v0m5.2 1.2c0-1.8 1.1 0 0 .5m28.7-1.7v0m-45.4.6v0m11 0v0m14.9 0c0-.6.5 0 0 0zm5.1 0v0m11 0s.5 0 0 0m-40.8 0c0 .6 1.7-.6 1.1 1.1m52.3-1.1c1.7 0 2.3.6 3.5 1.7h.5m-52.3-1.7c-.5 0-.5 0 0 0zm1.8 0v0M43.3 23l1.7-1.7m-9.7 0s-.6 0 0 0m13.2 0s0 0 0 0m1.1 0v0m1.2 0c-2.3 1.7-.6-.6 0 0m-39 .6c.5.5 1 0 1-.6m20.7 0H33m15.5 0h.6m-27 0h.5m24.7.6c-1.7 2.3-.5-1.8 0 0m.6-.6v0m-33.3 0v0m.6 0v0m2.8 0h-1m29.9 0v0m-35 .6 1-.6m6.4 0 .6.6m12 0h.6m-8-.6 1.1.6m3.5-.6c1.1 0 .5 1.1 1.1 1.1m5.7-1.1h.6m7.5 1.1c-.6-.5 0-1.1.6-1.1m-34 0v0m6.4 0v.6m9.8 0v-.6m2.8 0v.6M18 21.4v.6m25.9-.6.6.6m2.3-.6v0m4 0v0m10.3 0c1.8 1.1-1.1.6 0 0zm-50 .6c-1.7.5-1.1-1.2 0 0m8.7 0v.5M10 22v0m2.9 0H14m15.5 0v0m6.3 0v0l-.5.5M56 22c.5 1.1-3 0 0 0m1.1 0c2.9-.6-.6 1.7-.6 0 .6 0 0 0 0 0m-35 .5c-.6-1.1.6-1.1.6 0m4.6-.5v1m2.8-1.1h.6m20.7 0h-.6M21 22v0m1.7 0v0m3.5 0v0m2.9 0 .5 1.7m6.3-1.7v0m11.5 0h.6m-21.2 0 .5 1.7m9.2-1.7v0m0 0v0m-12.6 0v0m8.6 0c1.1.5-.6 1.1 0 .5m28.2-.5h.5M9.4 22v0m4.6 0 1.2.5M22 22l1.1.5m9.2-.5v0m-21.8 0v0m12.6 0v0m12 .5.6-.5v0m28.8 0v0m-44.8 0v.5M26 22v0m10.3 0v0M8.8 22c-1.1 0 .6 0 .6.5m25.9 0V22v0M8.8 22v0m4 .5c0 1.2 0-.5 1.2-.5m5.8 0v.5m13.7-.5c2.3 1.1 0 2.3 0 0m3 0v1m18.8-1v0M7 22l1.2.5m14.3 0V22v.5m1.2-.5v0m12.6 0v0M30 22v.5m1.7-.5v.5m21.3 0c.6-.5.6.6 0 0m-45.4 0h.6m.5 0h-.5m2.8 0h-.5v0m19.5 0h1.1m31.7 0c1.1.6-1.2.6 0 0m-39.1 0h.6m4.6 0c-.6 0 0 0 0 0m1.1 0v0m5.7 0h.6m1.7 0v0m5.2 0h.6m-28.7 0-1.8.6m15-.6h.6m1.7 0v0m15.5 0c.6 0 0 0 0 0m6.9 0v0m5.7 1.2c0-1.7 3.5-1.7 1.2 0-1.7-.6-.6 1.7-1.2.6v0M18 22.5c-1.1 1.2-2.8 0-.5 0h.5l.6.6m17.8-.6v0m7 0v.6m.5-.6v0m8 .6c-.5-.6 0-.6 1.2-.6m-34 0h.7m4.6 0c.5-.5 1.1 1.2 0 .6m4-.6v0m17.8 0v0m-17.8 0v0m9.7 2.3c.6 0 .6-2.3 2.3-2.3m-32.7 0c0 1.2 1.7.6 2.3.6m13.2-.6v.6m29.9-.6-1.2.6m-44.2 0c-1.2.6-1.2-.6 0-.6m5.2 0v0m23.5 0v.6m28.2 0h.6m-41.4-.6v0m7.4 0c1.2.6.6 3 .6 1.8m-8-1.2v0m25.8.6c.6-.6 2.3-1.2 1.8 0m-34-.6v0m7.5 0v0m6.3 0v0m-18.3 0-1.8.6c-.5 1.1-2.8.6-.5.6M23.8 23v0m10.3 0v0M6.5 23v0m18.4 0c.6.6-.5.6 0 0m-12 0 4 1.2M34 23h.6m31.6 0c0 1.2-.6-.6 0 0l.6.6m-42-.6h.6M49 23c1.1-.6.5 1.7-.6 1.2M7 23v0m21.9 0v.6M30 23l-1.1.6m4.5-.6h.6m32.2 0v.6-.6M9.9 23c.6.6.6 0 0 0m.6 0c.5 0 0 .6 0 0zm10.9 0v0m3.4 0v0m25.3 0 .6.6m-38-.6v0m16.7 0v0l.6.6m35 0c1.8.6-4.5 0 0-.6m.6 0v0M9.9 23v.6m.6-.6v.6h.5m8.7 0h.5c3.5 1.7-1.7.6-1.7 1.7m11-2.3v.6M49 23l-.6.6v0m1.1-.6v.6m.6-.6v.6m8 .6c-2.8 1.7-1.7-2.3 0 0m-41.3 0c0-1.2 1.7-.6 2.3-.6m10.3-.6v.6m3.5 0c1.7 0 0 2.3 0 0zm6.3-.6v.6m26.4-.6v.6m-47.7 0v0m.6 0h.6m3.4 0c1.8.6-.5.6 0 0zm6.4 0v0m2.8 0v0m-2.8 0v0m20.6 0h.6m.6 0v0m15.5 0c1.1.6 5.2 0 1.7 1.1-2.3-.5-1.7.6-.6 1.2 0 0 1.2-.6 0-.6m-48.2-1.7v0m5.7 0h.6m38.5 0v0m2.3 0v0m-48.3 0v0m32.2 0h.6m16 0v0m-40.1 0v0m-15.6 0v0m51.8 0h.5m-44.8 0v0m11 0v0m5.1 0c1.1 1.1-.6 1.1 0 0zm24.7 0v.6m6.3 0 1.2-.6m-.6 0v0m-49.4 0v0m1.7 0v.6m29.3-.6h.6m-.6 0h.6m-19.5 0 .5.6m-9.7-.6v0m-1.2 0v0m.6 0h.6m29.3.6h.5m-1.7 0v-.6m-27.6 0v.6m-1.1 0h1.1m27.6 0h.6m-24.7 0c.6 0-1.2 0 0 0m10.3 0h.6m-24.7 0v0m13.8 0c1.7 0 5.2 1.1 4.6 2.3h-1.7m8-2.3h.6m-17.8 0v0m.5 0v0m30 0v0m-24.8 0v0m6.9 0c-.6-.6.6 2.8.6.5h.5m23.6-.5c2.9-.6 0 1.7 0 0M14.6 26c0 .6 1.7.6 0-.6-2.9-2.3 2.3.6 1.7-.6v0m1.2-.5v0m2.3 0h-.6m-9.8 0v0m1.2 0v0m20.6 0h-.5m17.8 0v0m5.7 0c-1.7 0-1.7 2.8 0 .5v0-.5m-30.4 0c.6.5.6.5 0 0m-14.4 0v0m8.6 0v0m1.2 0v0m10.9 0-.6.5v0m-10.9-.5v.5M47.3 26c-1.7-1.2 1.2-2.3 1.2-.6l-1.2.6m-33.9-1.7v.5m17.8-.5v.5m-12.6-.5v.5m0 0v0m11 0v0m35.6 0c1.1 1.2-1.8 0 0 0v0m-40.8 0 1.7 1.8m4.6-1.8h.5m32.2 0c1.8 0-1.1 1.2 0 0m-32.2 0V26M48 24.8v0m-16.7 0v0m8.7 0v0m1.1.6c1.7-1.7.6 1.2 0-.6m-27 0v0m5.8 0v0m10.9 0h.5m-8.6 0c1.8 0 2.9 2.3.6 1.2zm16.1 0v0m2.3 0v0m-2.9 0v0m-14.9 0v0m37.4 0c1.7 1.8-4 .6 0 0v0m-29.4 0c2.3 1.2-.5 3 0 1.2m0-1.2v.6m7.5-.6V26m-20-.6c-.7.6 1 0 1.6 1.2h.6m31-1.2c0 1.2-1.7 0 0 0m-21.2 0v0m39.6.6c-1.7 0 1.2-.6 0 .6 1.2-.6 2.3-2.3 2.3 0 1.2.5 1.2 1.7-1.1 1.7-3.5 1.1 1.1 1.7 2.3.6.5 0 2.3-.6.5.5 0 .6-1.7 1.2 0 .6M17 25.4c1.1 1.2-.6 2.3-1.2 1.7-1.1 1.2-1.1-.5-1.7-.5m30.5 0c1.7-3 2.8 1.1 0 .5 1.1.6-.6 1.2-1.2 1.8M64 25.4v0m-43.7.6c-.5-.6 1.2-.6 1.2-.6m11.5 0c.5 0 2.3 1.7 1.7 2.9m16.7-2.9v.6m6.3.6c-2.3-.6 1.7-1.8 0 0 .6 1.7 1.1 0 0 0m-36.2-1.2v.6m49.4-.6v0m-38 0c.6.6 0 4 1.2 2.3M55.4 26c1.1-1.2 1.1 1.1 0 0zm-36.8-.6v.6m38.5-.6v0m-15.5.6H41m-19.5 0-.6.6m20.7-.6H41m-21.8 0h.6m31.6 0v0m-32.8 0v0m-2.3 0 .7 1m1.7-1.1H18m44.3 0v0m5.7 0h-.6M29 26c.5 0 1.1 0 .5.6m19.6 0c.5 0 .5-1.2 1.1-.6m-39 0c1-.6 0 2.9 1.7 1.7v-1.1M38 26v.6m10-.6c.6-.6 1.2.6 0 .6m20-.6v0m-38.5 0c-.5.6 1.2 1.1 0 .6m20.1-.6h.6m-20.7 0v0m-18.4 0c-.5 2.9-2.3 1.1-3.4 0-.6 1.1-.6 0 0 0m8.6 0v1m38.5-1h.6m14.3 0-1.1.6M15.2 26v.6m0-.6v.6m4.6-.6c-1.2.6 0 .6 0 .6m30.4-.6v0m12 .6c1.2-.6 1.2.5 0 0m-57.4 0h.6m9.8-.6v0m23.5 0c-.6 1.1 0 2.3.6 1.7M49.6 26v.6l.6-.6m3.5.6c2.8.5-3 1.1 0 0M72 26v0m-57.4.6h.6m12.6 0h.6m2.8 0v0m18.4 0v0m14.4 0c1.7 0-.6.5 0 0zm-59.2 0v0m15.5 0c0 .5-1.7 1.1.6 1.7 0 0 .6-.6 0 0m17.8-1.7v0m-33.3 0h1.1m12.1 0h.6m2.3 0h.6m-15 0c.6.5 0 0-.6.5m21.9-.5v0m1.7 0v0m29.9 0c2.3 1.1-2.3 1.1 0 0m-55.2 0s.6 0 0 0m11 0c-.6 0 0 .5 0 0m-3 0v.5m28.2-.5v.5m-32.7-.5v0m4.6 0v0m6.9 0v.5m.5-.5v.5m.6-.5v0m23.6.5c-.6-.5 0-.5 0 0m12.6 0c-1.1 1.2-3.4-.5-.6-.5l1.2.5M6 26.6v0m23 0v0h-.6m3.4 0 .6 1.7m-12-1.2.5-.5v0m9.2 0-.6.5m31.6-.5c1.2.5 4.6 1.1 2.3 1.7 0-.6-1.1 0-1.1-1.2m-57-.5v.5m3-.5v.5m13.8-.5v1.1m22.4-1.1c-1.2.5-.6 1.1-1.2 2.3M5.3 27v0m9.9 0h.5m23.6.6c.6-1.1.6-1.1 1.1-.6m20.7 0h.6M7.1 27h-.6v0m12.1 0-1.7.6m35-.6c0 1.2-1.7 0 0 0m-37.3 0H14m-8 0c-.6-.5 1.1.6 0 .6m9.7-.6v0m3 0h.5-.6m6.3 0c.6 1.2 1.8 0 0 0M5.4 27H6m22.4 0c2.3 3-3.5-.5 0 0zm16 0v0m-32.7 0v0m2.3 0h-.6m60.4 0v0m-54.6 0h-.6m1.2 0v0m12.6 2-.6-1.8m2.9 0v0m-17.8 0h.6m48.2 0c1.2 0-.5 1.2 0 0m-52.8 0v0m5.7 0v0m4.6.6c.6-.6 2.3 2.3.6 1.2 0 .5 1.1 1.1.6 2.3m-7-4v0m11 0v0M6 27.1l.5.5m.6-.6.6.6m11-.6v.6m25.2-.6v0m5.2.6c-1.8.6-.6-1.1 0 0m-42.6 0h.6m.6-.6-.6.6v0m12.7-.6-.6.6m9.2-.6v.6m-21.9 0h.6m11.5 0h.6m4 0L21 29m6.3-1.2h.6m-21.3 0v0m0 0v0m7 0h.5m4.6 0v0m43.1 0c1.2 1.2-.6.6-1.1.6m-54-.6v0m4 0h.5m8.7 0h-.6v0m2.9 0s-.6 0 0 0m-3 0v0m0 0v0m25.4 0v0m-24.7 0v0m6.9 0 1.1 1.2M48 27.8v0m10.4 0c1.7 0 1.1 1.7 0 0M7 27.7v0m14.4.6v-.6m9.7.6c1.2 2.3-1.7-1.2-.5 0v0m-9.2-.6v0m0 0v0m6.3 1.2c-.6.5-2.3-.6-1.7-1.2m12.6 0v0M54.8 29c-1.1-1.8 5.2-.6 1.7-.6l-1.1.6m5.2-.6 1.1-.6m-33.9 0h.6m5.7 0c0 1.2.6 2.9 1.7 2.3-1.1-.6 0-1.1-.5-2.3m-27.6.6-.7 1m8-1.1h-.5m3.4 0s0 0 0 0zm-.5.6c-.6 0-1.2-.6.5-.6m0 0v.6M5.4 30.6c2.9 1.1 2.9-4 5.7-1.7 1.8-.6 4.6 1.1 5.2 0h-.6m2.3-.6v0m1.2 0 1.1.6m7-.6h-.6m27 0c1.1.6-1.2.6 0 0m-3 .6c-2.2-.6 3-.6 0 0 0 0 0 0 0 0m-6.8-.6h.6m-35.7 0v0m11 0h.5m1.2 0h.6m17.2 0s0 .6 0 0zm0 0c0 1.7-1.2.6-.6 0m-17.8.6v0M19.2 30s-1.7-1.1 0-1.1M30 30c-1.7-.6-.6-2.3 0 0m13.9-1h-.6.6m-23.6 0v0m19.6 0c1.1.5-1.2 1.1 0 0zM18 29h-.5m22.4 0h.5m3 0v0m4 .5c-1.2 0 .5-.5 0 0m-30-.5v0m8.7 0c1.1 1.1 0 1.1 0 1.1M43.3 29v0m19 0c.6-.6.6 1.1 0 0zm-16.7 0c1.2.5-.6.5 0 0zm1.2.5V29v0m-26.5 0v0m3.5 0v.5m4-.5v.5m7.5-.5v.5m11.5 0V29v0m.5 0v.5m15 0c-1.7 1.8-2.9-.5 0-.5m-38.5 0v.5m49.4-.5.6.5v0M24.9 29s1.8 1.1.6 1.1m27.6.6c.6-.6 4-1.7 5.7-1.2-1.7 1.2-2.8 1.2-4.6 1.2l-2.8.6M14 29.4v0m-6.9 0c.6.6-1.1.6-1.1 1.2m9.7-1.2v0m11.5 0v0m5.8 0v0m-17.3.6c-.5 0 2.3-1.1 1.8 0v0m10.3-.6v0m48.3 0c-.6.6-1.2 3 0 1.8M12.3 30c.6 1.7-2.9-1.1 0 0l1.7-.6m24.7 0s0 0 0 0m21.9 0v0m13.2 0v0m-59.8 0c-.6 1.2-.6 1.2-1.1.6m25.8-.6v0m-23 0v.6m3-.6v0m7.4 0v.6m47.7-.6v0m-55.2 0v.6m21.3-.6v.6m-16.1 0c-.6 2.3-3.5 0-4.6 0m45.4 0c-1.2 0-2.9 2.3-2.9.6.6-.6 1.7-1.2 2.9-.6m5.7 0c0-.6 0 1.2-1.7 0m-36.8 0c0 .6 2.9 4 1.2 2.3M46.2 30c0-.6.6 1.2-1.2 0m30.5 1.2c-1.2-.6-.6-1.2 0-1.2m-58 0v0m-2.3 0h.5m2.3 0c2.3 0-1.1 1.2 0 .6m27.6-.6v0m4 0c-1.7 1.2 3.5-.6 3.5.6m16.6 0V30m-43.6 0v0m21.8 0c-1.7.6 2.9 3.5 1.2.6M13.4 30v0m6.4 0v0m48.8 0h1.1m-43 0c1.1 1.2-2.3.6-1.8.6m7-.6c1 0 1.6 1.2 1 1.7M64 30v0m-16 0h-.7m.6 0 1.2.6m-.6-.6v0m21.2 0v.6M21 30v.6m13.2-.6.6.6m-.6-.6.6.6m16.7-.6h.5m22.4 0v.6h.6M13.4 30v.6m26.5 0c-.6 0-.6 0 0 0zm-12.1 0h.6m6.9 0v0m-12 0v0m4.5 0s0 .6 0 0m7.5 0v0m.5 0h-.5v.6m-21.9-.6v0m13.8 0h-.5m23 0H49m25.8 0h.6m-56.9 0c1.7-.6 3.5 3.4 1.2 1.1v-.5m6.9-.6h.5m8 0c.6 0 0 0 0 0m4.7 0c.5.6-1.8 1.1-1.2 1.7m.6-1.7v.6h.6m0-.6v.6m-4.6-.6v0m15 0c-.7.6 0 1.1.5.6m-31.6-.6v0m15.5 0v.6h.6m3.4 1.1c-.6-1.1 0-1.7.6-1.1M18 30.6l-.5.6v0m2.3-.6v0m4.6 0 .5.6m9.8-.6v0m-16 .6v0m-3 0c-1.1 0 4 3.4 1.8.5M43.9 33c-3.5 1.7 0-4 1.7-1.2-1.1 1.8-2.3 4-4 5.2v0m-16.7-5.7h.6m9.2 0v0m25.3 0c2.3 0-1.2 1.1 0 0m5.7.5c1.7-1.7 3.5.6.6 0h-.6M8.8 35.2c-1.7.6-2.3-.6-.5-.6L11 33c-.5-1.7 2.3 2.9 2.3 0 2.3 0 .6-2.3 2.3-1.2m23.6-.5v.5m-18.4-.5.6.5m3.4-.5v0m34 0c1 2.3-5.2.5-1.8.5zm9.7.5c2.3-1.7 2.9.6 0 0zm-43.7-.5c-.5 0 0 0 0 0m2.3 0v0m1.2 0c2.3.5-.6 1.7 0 0m-12.7 0v0m9.8 1.1c1.2 1.7-4-1.7-1.1-1.1m47.6 0h1.2m-52.3 0v.5m6.3-.5v0m33.4 0v0m-40.3 0v0m1.2 0v.5m5.2-.5h.5m-18.4 0c2.3 0-.5 2.3 0 0m16.7 0h1.2m.5 0v1.1m-8.6-1.1c.6.5 0 1.7-1.1.5m2.8-.5v0m4 0h.6m-6.3 0v0m0 0v0m52.9 0v0m1.1 0-.6.5m-46-.5v0m.7 0v.5-.5m-7.5 0 .6.5m7.4-.5v.5m-6.3 0h.6m0 0v0m4.6 0v0m50 0v0m0 0c0 1.2-3 0-3.5 0m-59.2.6c-1.7 0 0-1.7 0 .6m7.5-1.2v0m18.4 0v0m29.3 0v0m4 0C71 33 76.1 33 72.6 33H71m-51.1-1.2c.5 0 .5 0 0 0m31 .6c1.7-1.1 6.9-.6 2.9.6-.6-.6-2.3.6-3-.6m-33.2-.6h.5m43.1 0c1.8 0 0 1.2 0 0zm-39 0v0m31.6 0v0m11.5 0v0m-55.2 0V33m0-1.2.6.6v.6m14.9-.6c-.6-1.1 1.2.6 1.7 0M45.6 34c0-2.3 2.9-2.3 2.3-1.1L45.6 34M25 31.7h.6m1.7.6h1.2M3.7 33.5c0 1.1-1.2-1.8.5-.6 1.8 2.3.6-1.2 2.3 1.1 1.2-.5-1.1-2.8 1.2-1.1.6-1.2 1.7 0 1.1 1.1M68 32.3c1.2 0-.6 1.2 0 0m-58.6 0v0m8.6 0v0m15.5 0H33m-15 0v0m9.8 0v0m.6 0c1.1.6.6 1.7-.6.6m0-.6v0m21.8 0c1.2.6-1.1.6 0 0zm-34.4 0c1.1 0 0 1.2 0 0zm-2.3 0 .5.6m11.5-.6v.6m48.3 2.3c2.3 0 .6-1.7-1.2-1.2-.5 0-4 0-2.8-1.1.5 1.1 1.1-.6 1.7 0m-67.2 0v0m16 0c.6 1.1-2.2 0 0 0v0m54 0c1.8-.6 1.8 1.1 0 .6m-60.3-.6v0m28.8 0v0m21.8 0c1.7 1.1-2.3.6 0 0m-41.4 0c4 1.7-1.1 1.1 0 0zm6.4 0v.6m37.3 0c-3.4-1.2 3.4 1.1 0 0v0m-32.2.5c-.6-1.7 1.2-.5.6 0m35.6-.5v0m-67.2 0v0m39 0v0m-39 0v0m40.2 0h-.6v0m1.2 0c.6.5-1.7.5-1.2.5m-35 .6S7 32.3 8.8 34m25.3-.5v0m.6 0v0m36.2 0v0m-67.8 0v0m11 .5 1-.5m5.8 0c3.5.5-1.1 2.3 0 0m13.8 0v0m27 0v0m-58.6 0v0m13.2.5c2.9-1.1 1.7.6 0 .6h-1.7m47.1-1.1.6.5m0-.5v.5m-39.7 0h-.5m.5 0h-.5m25.8 0c.6 1.2-5.2 2.3-1.7 0h1.7M3.7 34h.5M17 34v0m17.8 0h.6m6.3.6 1.1-.6m19.6 0v0m5.1 0v0m-33.3 0h.6m0 0v0m27.6 0c.6 1.8 3.4 1.2 3.4 3.5M62.3 34c.6-1.1 4 1.8 2.3.6M23.2 34h.6m19.5 0v0m18.4 1.8s-5.2-.6-2.9-1.8c.6 1.8 1.2-1.1 2.9.6.6.6 1.2 1.2 1.7.6M52 34.6c1.8-1.1 1.2.6-.5 0m-35-.6v0m2.8.6c-1.2-1.7 3.4 1.2.6.6l-.6-.6h.6m4-.6v0M3 34h.6m8.6 0c1.7.6 2.3 1.8 0 .6V34m2.3.6h1.1m49.5 0c1.1-1.7 1.7 2.9 2.2 0 2.3.6 4 1.7 5.2 4m-4-4.6.6.6M47.9 34h.6m3.4 0 .6.6H52m21.9-.6v0M3 35.2c.6-.6-1.2 0 0-1.2m29.3.6c1.7 0 0 1.2 0 0zm25.9-.6c-1.2 1.8-3.5-.5-4.6 1.2l.5.6m-8-1.2v0m-27.6 0h.6m-11 0v0m27 0s0 0 0 0m6.4 0v0m-38 0s.6.6-.5.6h-.6m18.4-.6v0m14.4 0zm0 0v0m34.4 0h.6m-57.4 0v0m18.3 0c1.8.6-.5 1.7 0 0zM3 34.6s.6 0 0 0m66.6 0v0h-.5m1.7 0c1.7 0 0 1.7 0 0m-68.4 0v0m32.8 0v.6m0-.6h.5m5.8 0c-.6 1.2 1.1 1.7-1.2 1.7-.5.6 1.2 0 1.2.6M3 34.6v.6m0-.6v.6m21.3-.6v0m10.9 0v0m22.4 0c1.7 2.3 5.2 1.7 7.5 1.7v0M2.5 34.6h.6m.6 0v.6m.5-.6v0m4 0v.6h.6m4.6-.6v.6m13.8.6c-1.1.5-2.3-1.8-.5-.6l.5.6m8.6-1.2v.6m8 0v0m29.4 0h1.1m-71.2 0v0m11 0h-.7m39.7 0h.6m-50 0H3v0m19.5 0c.6 0 2.3.6 1.8 1.1m11.4-1.1v0m38 0v0m-71.3 0v0m48.3.6c-1.2.5-4.6 0-1.7-.6h2.3m23 0-.6.6M3 35.2v0m12.6.6c2.3-1.2 1.8 1.1-.5 0m5.7-.6c-.6 1.1-2.9 0-1.1 1.7H22m5.1-1.7c1.2 0 1.2 1.7 0 0zm8.6 0v0m17.9 0h.5m18.4 0c-.6 1.7 2.9 1.1 2.3 2.3h.6m-73-2.3H3m19 0h.5m30.5 0v0m10.9 0c-.6 1.1-1.7 0-2.3.6m11-.6h.5m-45.4 0h-.6m-24.7 0v0m.6 0v0m65 0c0 1.7 2.8 0 1 1.7-.5.6-2.8 0-2.8 1.2v.5m8-3.4h-.5m-69.6.6c.6-.6 4.6 0 4.6 1.1-.5 1.7-4 2.3-4 1.7 0-.5 3.5 0 1.2-1.1m4-2.3c1.1 0-.6 1.1 0 0zm-6.9.6h.6m17.2-.6c.6.6 3.5 2.3 3.5 1.1m29.3-1.1v.6m9.2-.6v.6m-58.7-.6-.5.6m0 0v0m19 0 1 .5M3 35.8v0m1.1 0v0m29.3.5c-.5-1.7 1.8-.5 0 0m20.7-.5c1.8 1.7 4 .5 5.2 1.7H61m-40-1.7v0m47.1 0c.6 1.7-2.3.5-1.1 1.1m6.9-1.1v0m-45.4 0h.6m23.5 1.7c0-.6 0-2.9 1.2-1.2 0 1.8-.6 1.8-1.2 1.2m-6.3-1.2c1.1-1.1.6.6 0 0m-24.7-.5v.5m14.3-.5v.5m-1.7 0v-.5m7 .5v0m11.4 0s.6-.5 0 0m-11.5 0v0m24.7 0H67m-39.1 0c1.7.6-.6.6 0 0zm27.6 0c-1.7 0-1.2 1.8 0 1.2l2.9 1.1v0m-46.6-2.3c1.2 0 .6 1.2 0 0m-.6 0c.6 0 0 .6 0 0zm0 0h.6m44.3 0 .5.6m8.7-.6v0m1.7 0v0M8.3 37.5l2.8-1.2m12.1 0-1.1.6m2.8-.6v.6m10.4.6c-1.2.6-1.2-1.7 0-.6m16.6-.6v.6l.6.6M67 36.3v.6m-47.1.6c-3 0-.6-1.7 0 0 0 0 .5 0 0 0m32.7 0c-1.7.6-2.9-1.2-.6-.6m4.6-.6v.6m-22.4 0v0m-22.4 1.2c.6 1.1 2.3-2.3 3.5-1.2m28.1 0h.6m31 0v0m-1.1 1.2c-.6 0-2.3-2.3 0-.6h1.7m-63.8 1.1c-1.7 0-2.9 1.2-4 2.3 0-1.1-4 1.8-2.3-.5l6.9-3.5m2.9 0 4 1.7M29.5 37c1.2 0 1.7 2.9 0 1.2L29 37m21.2 0v0M29 37h.5m35.7 0c-.6 0-4.6 2.3-4.6.6m-4-.6c.5.6 2.2 0 1.7 1.7m6.9-1.7h.5M8.8 37v.6m26.5-.6v.6m39-.6v.6M52.5 37v0m0 0v.6m-2.3 1.1c-1.1.6-2.9 1.8-3.4 0-.6 1.2-1.8-1.7.5-1.1.6-.6 4.6.6 3 1.1m16-1.7v.6m-57.5 0v0m66.7 0v0m-40.2 0v0m-3.5.6c-1.1-2.3.6 1.1 0 0m8 0c.6-2.3.6 1.1 0 0m35.7-.6v0m-.6 0v0m-68.4 0h1.2m16.7 0c-1.8 1.1 2.8-1.2 2.3 1.1M53 37.5v0m22.4 0h.6m-56.3 0v0h-.6m.6 0v0m46.5 0v0m-34.5 0v0m-8.6.6c-2.3.5 0-1.2.6 0v0m29.3-.6h-.6v0m16.7.6c2.3-1.2 1.1.5 1.7 1.1.6 0 .6-1.1 1.1 0m-12-1.7v0m6.9 0v0M14 38s-.6-.6 0 0zm50.6 0c1.7 0-3.5 0-.6 1.1v-.6m-48.8 1.8c-.6-1.2-2.3-1.8-1.8-2.3m8 0h.7m7.4 0v0m36.2 0v0m-33.9 0v0M14 38c.6 1.7 1.7-1.2 1.7 1.7.6 0 2.3.6 1.2-.6v0l.6.6m6.9-1.7h2.3m20 .5c-.5-.5 1.2-1.1.6 0m13.3-.5v0M8.8 38h.6m60.3 0c0 1.7-2.3-.6-2.8.5M32.4 38v0m28.2 0v0m4 0v0l-.6.5m1.2-.5v.5M32.4 38v0m28.2 1.7c-1.2-1.2 2.8 1.1.5-.6 1.2-2.9 2.9 2.9 2.9-.6m-44.8 0h4.6m50 0c2.3 0 .5.6-.6.6m-12.6-.6v.6m0-.6v0m-1.8 0 1.2.6m-12 0c.5-1.1.5 0 0 0m5 0c-1 0-1.6 2.3-1.6 0 0-.6 2.3-1.1 1.7.6M4.8 38.6h-.6m.6 0v0m0 0h.6m0 0H6m57.4 0H63l.5.6m-13.2-.6v0m4 1.2c1.2 1.7-2.3 1.1-.5-.6.5-1.7 5.7 1.2 2.8 1.2 0 0 .6 1.1-.5 1.1m17.2-2.9v0m-68.4 0v0m27 0v0m16.1 0 .6.6m15-.6v.6m-18.5 0c1.2-1.7 1.2 1.2-.5.6m16.6-.6c-.5.6-1.1-.6-.5-.6m6.3 0v0m6.3 0v0M6 44.4c.5-.6-2.9-1.7-.6-1.7 1.7 1.1 2.9-2.3 4.6-2.3 1.7 0 1.7-.6 2.3-1.8 1.7 1.2 1.1 1.8.6 2.9.5 0 1.7-.6.5-1.1m4.6-1.2c-1.1 0 1.2-1.1 1.2.6l1.1 1.7m3.5-2.9c1.1.6 4 1.2 1.1 1.2-1.1 0-4-.6-2.8.6v-.6 0m36.7-1.2v0m8 0 1.2 1.2m5.2-1.2v0m-23.6 0v0m9.2 0c0 1.2-.5 1.2-1.1 1.2m1.7-1.2.6.6m4.6-.6v0m-.6.6h.6m-21.3 0c-1.1 1.2-1.1-1.1.6 0m14.4 0v0m2.8 0s.6-.6 0 0m5.8 0H64m9.2 0h.6m-24.2 0v0m13.3 0v0m.5 0h.6m.6 0v0m7.4 0c-.5 0 .6.6 0 0m3 0c1 1.2-.7 0 0 1.2m-57-1.2.6.6m-.6-.6h-.5m13.7 0c1.8.6-.5.6 0 0m-14.9 0v0m25.9 0c.5 1.2-1.8 0 0 0m19 0h.5v.6m-11.5-.6c1.7 2.9-2.9.6 0 0m7.5 0v.6m13.2-.6v0m-52.9 0c-1.1.6 1.2 1.7.6.6m9.2.6c1.2 1.1-1.1-2.3 1.7-.6 1.7.6.6 2.3.6 2.9V42m19-2.9v0m-31.6 0v.6h.5m39.1-.6v.6l-.6.6M71 39.2v0m4 0v.6m-2.9 0v0m1.8 0H72m-4.6 0c0 1.7-1.7 1.1-2.2.6l.5.5m2.3-1.1v0m4.6 0v0m-4.6 0v0m2.9 0v0m2.9 0h.5m-29.3 0v0m18.4 0H63h.5m9.8 0v0m-.6 0v0m-51.1 0v0m-4 0v0m5.1 0-.5.6m11.4 1.1c-2.3-1.1 0-2.9 0 0zm35.1-1.7c-1.7.6.6 2.3-.6 1.7m-54.6-1.7v0m1.2 0-1.2.6m54.6 0c1.7-1.2 1.7 0 1.2 1.1 1.1.6 0-.6 0 0m1.7-1.1h1m-53.4-.6.6.6v0m43.7-.6c0 1.1 1.7 1.1 0 .6m-3.5 0h-.6m.6 0h.6m8.6 0h.6m-55.2 0v0m8 0h.6m45.4 0v0m4.6 6.3c0 2.3 2.9 1.1.6 0-2.3-1.2 3.4-1.2.6-1.7-1.2-1.2 2.8-1.2 0-1.8 0-.5 1.7-1.1.5-1.1l.6-1.7m-63.8 0v0h-.5m3.4 0v0m40.8 0H56m0 0h.5m.6 0v0m-48.8 0v0m1.1 0v0m48.9 0c.5.5-.6.5 0 0zm1.1 0v1.1m8.6-1.1v0m4 0h-.5m2.8.5.6-.5m-55.1.5 1.7-.5m44.8 0h-.6m-6.3 0c.6 1.1 1.7.5 2.3 0m-9.8 0v0m19 0v0m-2.9 0h.6m-43.7 0c.6 1.1.6 0 1.2 0m21.2.5c.6-1.1.6.6 0 0zm21.3-.5v0m-43.1 0h.6m43.6 0h.6m-13.2 0c0 .5 0 1.1-.6.5M17 41c2.3.6 1.7 2.3-.6.6-1.1-.6 0-.6.6-.6m9.2 0h.6m-12.1 0c2.3 0 0 1.2 0 0m4.6 0c1.7 2.3-2.3-.5 0 0v0m49.4 0c0 .6 0-.5 0 0zM14 41h.6M61 41c.6 1.8 1.8.6 2.3 0m5.2 0h.6m-11 0h-1m1 0 1.2.6m8.6-.6s-.6.6 0 0m1.2 0v0m-42.5 0c1.7.6-1.2 1.8 0 .6m6.8-.6v0m30 0c1 1.8.5-.5 1.7 0m-54.6 0c1.1 1.2-2.3 1.2 0 0zM30 42.1c-.6.6-2.9-.6-1.7-1.2m40.8 0v0m-3.5 0v0m3.5 0v0m-46.6 1.2c1.2-2.3 4.6.6 1.2 0h-.6m8-1.2c3 0 1.8 2.9 0 0zm16.7.6c-1.1-.6 4-.6 1.2 1.2 0 .5-1.2-1.2-.6 0m20.1-1.8v.6m-2.9-.6c-.5 1.2-1.1.6 0 1.2m-32.2-1.2v0m11.5.6h2.3m22.4-.6-.5.6m.5 0h-.5M53 42.7c-2.3-1.2 1.1-1.8 0 0m15-1.2v0m-46.6 0c2.9.6-2.9 1.2 0 0m5.2 0v0m43 0h-.5m-28.8.6c.6-1.7 1.2.6-.5 0m15-.6c1-.6.5 1.2 0 0zm10.8 0h.6m.6 0v0m-.6 0v0m.6 0 .5.6m-25.2 0 .5.6m8.7-1.2c.5 1.2-1.2 0 0 0zm2.8 0h.6m-45.4.6v-.6 0m35.6 0c1.8 0 2.3 1.7 3.5 2.3-.6.6 2.3-.6 1.1-1.1m-16-.6v0M26 42h.6m39 0H67m-4.6 0c1.7 0-1.2 1.1 0 0m-46.6 0c4 .6-1.7 1.7-.5 0h.5m15 0c2.8.6-1.7 1.7-.6.6m16.7-.6v0m-18.4.6c-2.3 0 0-1.2.6.5l.5-.5M29 42l-.6.6m1.1-.6v.6h.6m36.2-.6h.6m-33.4 0c1.2 1.1-1.7 1.1 0 0zm15 0v.6m5.2-.6c2.3 1.1-1.8 2.3 0 .6V42m-5.2 0 1.1.6m23 0c1.2 0 0 .5 0 0m-44.2 0h.6m0 0c-1.2 1.7 1.1 0 0 .5m1.1-.5v0m32.2 0v0m-21.9.5c1.2-1.7 2.3 2.3 0 .6v-.6H40m24.7 0c-1.7-1.1 1.1 0 .6 0m-35.7-.5v.5m0-.5h.6m-22.4 0h1.1m20.2 0h.5m16.7.5c-.6-.5.6-.5 0 0m3.4 0h.6M24.4 45c-3.5 0 .5-3 1.7-1.8-1.2.6 0 1.8-1.7 1.8m5.7-1.8h-.6m20.1 0h.6m2.3 0c-.6 3.5-4-1.1 0 0m12.7 0h-.6m-31 .6c1.1-.6.5-1.1 1.7 0m-6.3-.6v0m14.3 0c1.2.6-.6 1.2 0 0zm19 0c1.7-.5.6.6 0 0m2.3 0v0m-10.4.6c2.3-1.7 2.3 1.2 0 0zm-8-.6v.6m-31.6 0c-2.3.6-.6-1.1 1.1 0m2.3 0c-.5 1.2-2.3-.6 0 0m-.5 0v0m14.9 0c1.1 0-.6.6 0 0zm-14.4 0c2.3 0 0 1.7.6 0m13.2 0c-.6 0-.6 1.7-.6 0m-19 0v0l-.5.6m5.2-.6h.6m16.6 0h.6m-26.4.6c-.6 0 .5-1.2 1.7 0m21.8-.6v.6m0-.6h.6m-.6 0v0m8 0 2.4 1.7c.5 1.7-3.5 1.2-2.3-1.1v-.6m31.6.6c2.3-1.2 1.1 1.1 0 0m1.1-.6v.6m-59.2-.6c-.5.6 0 .6.6.6m34.5-.6v0m5.7 0v0m-29.3 0v0m1.8 0v0m.5 0c-1.1 1.2-.5 2.9.6.6h-.6M6 43.8c-.6.6-2.3 1.2-.6 2.3 1.1 1.1 2.3 0 3.4.6-1.1 1.7-6.3-.6-4 1.1m23-4v0m-19.5.6v0m1.1 0H8.3m9.2 0h.5m8 0v0m-13.1 0v0m18.3 0v0m27 5.1c4-1.7-3.4-1.7 0-3.4 1.2.6 4.7-2.3 5.2 1.1 0-1.1 1.8-2.2 1.8 0 .5.6 2.2 2.3 2.2.6-1.7.6-2.8-2.8-.5-.6 1.1-.5-2.3-2.8 0-1.7h2.3c-1.8-2.8 2.3.6 2.8 1.2h.6M8.8 44.4v0m.6 0h-.6m0 0s-.5 0 0 0m19 0c.6 0 2.3.6 1.2 1.1M9.4 44.4v.6m12 0c0-1.8 1.2 1.7.7.5m19-1.1c1 0 0 1.1 0 0zm23.5 0c1.1 0 .6 1.7 0 0zm-56.3 0v0m.5 0v0M22.1 46s-1.2-1.1-.6-1.7m-1.7 2.8c-2.3 1.2-4.6-.5-4.6-2.2 2.3-.6 4.6 1.1 5.7 1.7m14.4 0v-1.2.6m-8.6-1v0m27.5 0c-1.7 1.7-2.8-.6 0 0m9.8 0c-1.7 1.1-1.1-1.2.6 0v0m6.3 0h.6m-47.1 0v0m4 0c-2.3 1.1 2.3 1.7 1.1.5m24.7-.5v0m20.1 0h.6m-48.8 0h.6m3.4 0c1.7.5.6 2.2 0 0M56 45c1.1 0-.6 1.1 0 0zm-49 .5c-2.3.6-.6-1.1.6 0m13.2-.5c.6 1.7-1.7 0 0 0m29.9.5c1.1-1.1 1.1 1.2-.6 0m-37.3 0c-1.8 2.3-3-1.1.5 0m8-.5-.5.5m34 0h-.7m-46 0c.6-1.1 2.4 1.2 0 0l.6.6m43.7-.6v0m-43.7 0v.6m25.3-.6c-.6 1.7-2.9 0-.6 0h.6l.6.6m8.6-.6c.6 0-.6.6 0 0zm-29.9.6c1.2-1.7 2.3 1.7 0 0m30.5-.6c1.7 0 0 1.2 0 0m-34 0c2.4 1.2-1 2.3 0 0m35.7.6c1.2 0 0 0 0 0m-10.9 0v0m-25.9 0h-.5m2.8 0v0m-2.3 0v0m24.7 0v0m-4.5 0h.5m-.5 0v0m4.5 0v0m.6 0s0 0 0 0m1.2 0v0m0 0v.6m-5.8-.6v0m1.7 0c2.3 1.1-1.1 1.1 0 0m14.4 0v0m-11.5 0c-.6.6.6.6.6.6m-.6-.6v.6m23 0c-.6 0-.6-.6 0 0m-23 0v0m-13.2 0c2.3 1.7-1.1.5-1.7 0m8 1.1c-.5-.6-2.8 0-4.6-1.1h.6m0 0c.6 0 7.5 0 4 1.1m-4.6-1.1v0M53 48.4c-2.3 0-2.3-2.3 0-1.2.6-1.1 3.4-.5 4 .6 0 1.2 2.3-.6 1.2 1.2m-35-2.3v0m10.8 0v0m-10.3 0v0m-11 0c.6-.6 3 1.7 3.5 1.1M34 46.7h.6M6 48.4l5.1-1.2c.6 1.2 1.2-.5 1.8-.5m6.3 0 .6.5m5.1-.5v0m-1.1 0v.5m16-.5c1.2 0 1.2 1.7 0 .5m23.6 0c.6 0 0 .6 0 0m-49.4 0v0m13.2 0v0m16.1 0c-1.7 1.2-2.3-.5 0 0m-23 0v0m31 .6v-.6m-1 0h.5m-22.4 0h.6m28.1 0h.6m8 0v.6M43.3 49l4-.6c1.8-.6 3-1.2 4.6 0h.6m-47.1-.6.6.6m22.4-.6v0m20.7 0v0m-29.3 0 1.7.6m-1.2-.6v.6m-1.1 0v-.6m-2.9 0v0m0 0h1.2m31 0v0m-31 .6h.5m1.8-.6v.6-.6m-4 .6v0m1.7 0v0m.5 0h-.5v0m-1.2 0v0m4.6 0v0m36.2 0s0 0 0 0M25 49c0-1.2 1.2 0-.5 0m6.8-.6h-1.1m-12 0h.5m.6 0h-.6v0m2.3 0c.6 1.1-1.1 1.1-1.1 1.1m12-1.1h.6m19 0s0 .6 0 0m-33.4 0-.5.6m.5-.6v0m3 1.7c.5-1.7 1.6-1.7 2.8-1.1m3.4.5c0-1.1 1.8 0 2.3-1.1m2.9 0 .6.6m.5 0c1.8-.6 1.8 4 1.8 5.7 0 1.7-.6 5.2-2.9 4.6v0m25.3-10.9-.6.6v0m-29.3 0v0m5.2 0h.5m-10.3 0h.6m0 0 1.1.5m0-.5h.6m3.5 0v0m17.2 12L41 57.6c-.6-2.3-1.7-5.8-.6-7.5 1.2-1.1 1.8 1.2 2.3-1.1M25 49v0m1.2.5 1.1-.5m-2.3.5h.6m-5.7 0h.5m3.5 0h.6m.5 0v0m-4.6 0v0l.6.6m-1.1-.6v.6m0-.6v0m.5 0v0h-.5m0 .6v0m.5 0h.6m14.4.6v.6m0 0v.5m0 0v0m-.6 3.5v.6h.6m-4.6 5.7c1.1.6-2.9.6.5-1.1l1.2-1.2m8 .6c-2.3 1.1-1.7-1.7 0 0-.5.6.6 0 0 0m-2.3-.6h.6m-3.4.6c.5-.6-1.2 2.3-1.8 1.1m1.8-1.7v0m0 0-1.8 1.2m7.5-1.2h.6m0 .6c0 1.1 0-1.2.6 0m-5.8 0 .6.6h.6m4.6-.6h.5m-2.3 0c1.2 0-.5.6-.5.6m-2.9-.6v.6m5.7-.6v0m-1.1 0v.6l.6-.6m-1.8.6v0m-2.8 0v.5m-6.4.6 2.3-1.1m-2.8 0v0m6.9 0v0m5.1 0c.6 0 2.3.5 1.8 1.1m-7-1.1v0m4.7.5.5-.5m-5.1.5v0m3.4 0c0-.5 0 1.2 1.2.6M30 61s0 0 0 0m9.8 0H41m0 0h.6v.6m.6-.6s.5 1.2 1.1.6m2.9-.6c.6.6 1.1 0 1.1 1.2m-8-1.2c0 .6-.6 0 0 0zm1.7 0v0m2.9 0c0 .6.6 0 0 0m.6 0v0m0 0v0m1.7 0v0m-12.7 0v0m.6.6c.6-1.7 1.7 1.2 2.3.6v0m1.2-1.2h.5m1.2 0v0m5.2 0 2.3 1.2M37 61c-.6.6 1.1.6 0 1.2m2.9-1.2v0m-5.2 0v0m-1.2 0v0m-.5 0 .5.6V61m5.8.6 1.1.6m1.2-1.2-.6.6v0m-2.9-.6 2.3 1.2m0-.6v0m-6.3 0H33m11.5 0v0m-13.8 0h.5m12.1 0h-.6m-8.6 0v0m-4.6.6h.6m0-.6v.6m12.6-.6v0l.6.6m-1.7-.6v0m-12 0h.5m6.3 0v0m.6 0v0m-2.9 0v0m7.5 0v0m1.7 0v0m-4.6 0h.6m-4 .6v0-.6m6.9 0v0m0 0v.6m.5 0v0m-6.3 0v0m-2.3 0v0m-5.1 0h.5m5.8 0h.5"
   id="path1" />
  <g
   transform="translate(-112.8 -144.5) scale(3.77953)"
   id="g5">



    <g
   id="text5"
   style="font-size:13.3px;line-height:1.25;font-family:Marcellus;-inkscape-font-specification:'Marcellus, Normal';text-align:center;letter-spacing:0;word-spacing:0;white-space:pre"
   transform="translate(15.6 33.8) scale(.36342)"
   aria-label="STOWARZYSZENIE &#10;IM. ALEKSANDRY&#10;WACHNIEWSKIEJ"><path
     d="m 104.66479,14.362145 h -0.14287 q -0.0519,-0.149365 -0.16884,-0.337695 -0.1104,-0.18833 -0.29874,-0.350684 -0.18183,-0.168848 -0.44809,-0.279248 -0.25977,-0.1104 -0.61694,-0.1104 -0.31822,0 -0.56499,0.09741 -0.24678,0.09741 -0.41563,0.272754 -0.16235,0.175341 -0.24678,0.415625 -0.0844,0.240283 -0.0844,0.532519 0,0.467578 0.25977,0.896192 0.26625,0.422119 0.6624,0.837744 0.39614,0.415625 0.85722,0.83125 0.46109,0.415625 0.85723,0.863721 0.39614,0.448095 0.65591,0.94165 0.26626,0.48706 0.26626,1.052051 0,0.422119 -0.14937,0.850732 -0.14287,0.422119 -0.44809,0.759815 -0.30523,0.337695 -0.78579,0.552002 -0.48057,0.207812 -1.14297,0.207812 -0.37017,0 -0.70786,-0.07143 -0.3312,-0.06494 -0.61695,-0.162354 -0.27924,-0.103906 -0.50654,-0.220801 -0.2208,-0.116894 -0.36367,-0.214306 l 0.14936,-1.435205 h 0.16236 q 0.0714,0.305224 0.23379,0.584472 0.16235,0.272754 0.39614,0.487061 0.24028,0.207812 0.54551,0.337695 0.30522,0.123389 0.66889,0.123389 0.3312,0 0.59097,-0.09741 0.26626,-0.103907 0.45459,-0.279248 0.18833,-0.181836 0.28574,-0.428614 0.10391,-0.246777 0.10391,-0.539013 0,-0.409131 -0.14937,-0.753321 -0.14936,-0.350683 -0.39614,-0.662402 -0.24028,-0.311719 -0.552,-0.603955 -0.30523,-0.292237 -0.62993,-0.584473 -0.32471,-0.29873 -0.63643,-0.610449 -0.30522,-0.311719 -0.552,-0.662402 -0.24028,-0.357178 -0.38965,-0.759815 -0.14936,-0.409131 -0.14936,-0.896191 0,-0.513037 0.19482,-0.922168 0.20132,-0.415625 0.52602,-0.707862 0.33121,-0.292236 0.74683,-0.448095 0.41563,-0.15586 0.85723,-0.15586 0.3247,0 0.59746,0.05195 0.27275,0.05195 0.48706,0.123389 0.2208,0.07144 0.38315,0.142871 0.16236,0.07144 0.26626,0.116895 z m 4.61734,-0.90918 q -0.76631,0 -1.38325,0.07144 -0.61695,0.06494 -1.06504,0.142871 -0.51953,0.09741 -0.92866,0.214307 l 0.18833,-1.052051 q 0.0779,0.0065 0.23378,0.01299 0.15586,0.0065 0.34419,0.01299 0.19483,0.0065 0.40264,0.01299 0.21431,0 0.40264,0.0065 0.18833,0 0.3312,0.0065 0.14936,0 0.21431,0 h 3.70815 q 0.0649,0 0.20781,0 0.14937,-0.0065 0.3377,-0.0065 0.18833,-0.0065 0.39614,-0.0065 0.21431,-0.0065 0.40264,-0.01299 0.19482,-0.0065 0.35068,-0.01299 0.15586,-0.0065 0.23379,-0.01299 l 0.18833,1.052051 q -0.41563,-0.116895 -0.93516,-0.214307 -0.44809,-0.07793 -1.06504,-0.142871 -0.61694,-0.07144 -1.38325,-0.07144 v 6.201905 q 0,0.552002 0.013,0.967627 0.0195,0.409131 0.039,0.707861 0.026,0.29873 0.0584,0.500049 0.039,0.201318 0.0779,0.337695 v 0.02598 h -1.5521 v -0.02598 q 0.039,-0.136377 0.0714,-0.337695 0.0325,-0.201319 0.0585,-0.500049 0.026,-0.29873 0.039,-0.707861 0.013,-0.415625 0.013,-0.967627 z m 9.47495,-0.727343 q 1.08452,0 2.0002,0.357177 0.92216,0.350684 1.59106,0.993604 0.6689,0.636426 1.04556,1.532617 0.37666,0.896191 0.37666,1.980713 0,0.616943 -0.14287,1.214404 -0.14288,0.597461 -0.42212,1.129981 -0.27276,0.532519 -0.67539,0.987109 -0.40264,0.448096 -0.92217,0.779297 -0.51304,0.324707 -1.13648,0.506543 -0.62343,0.18833 -1.34428,0.18833 -1.08453,0 -2.00669,-0.344189 -0.91568,-0.350684 -1.58457,-0.98711 -0.6689,-0.636426 -1.04556,-1.526123 -0.37666,-0.896191 -0.37666,-1.987207 0,-0.616943 0.14287,-1.214404 0.14287,-0.597461 0.41563,-1.136475 0.27924,-0.539013 0.67539,-0.987109 0.40263,-0.45459 0.91567,-0.785791 0.51953,-0.331201 1.14297,-0.513037 0.62993,-0.18833 1.35078,-0.18833 z m 0.37017,9.085302 q 0.72085,0 1.31831,-0.259765 0.59746,-0.259766 1.02607,-0.753321 0.43511,-0.493554 0.67539,-1.201416 0.24028,-0.714355 0.24028,-1.617041 0,-1.000097 -0.23378,-1.85083 -0.2273,-0.857226 -0.68189,-1.480664 -0.45459,-0.629931 -1.13647,-0.980615 -0.67539,-0.357178 -1.57808,-0.357178 -0.72085,0 -1.31831,0.259766 -0.59746,0.253271 -1.03257,0.740332 -0.42861,0.48706 -0.6689,1.194922 -0.24028,0.707861 -0.24028,1.610547 0,0.993603 0.2273,1.857324 0.22729,0.857227 0.68188,1.487158 0.45459,0.629932 1.13648,0.993604 0.68188,0.357177 1.58457,0.357177 z m 12.183,-7.70205 2.59766,6.30581 2.52622,-6.188916 q 0.14937,-0.383154 0.2208,-0.649414 0.0714,-0.26626 0.0714,-0.45459 0,-0.05845 -0.007,-0.116894 -0.006,-0.06494 -0.0195,-0.09741 v -0.02598 h 1.28584 v 0.02598 q -0.12988,0.142871 -0.28574,0.454589 -0.14937,0.311719 -0.35069,0.772803 l -3.46787,8.260547 h -0.49355 l -2.52622,-6.130469 -2.30542,6.130469 h -0.48706 l -3.18213,-7.942334 q -0.1169,-0.279248 -0.24029,-0.539014 -0.11689,-0.259765 -0.22729,-0.467578 -0.10391,-0.207812 -0.18833,-0.350683 -0.0909,-0.142872 -0.12988,-0.18833 v -0.02598 h 1.79887 v 0.02598 q -0.013,0.07143 -0.013,0.1104 0,0.03896 0,0.09092 0,0.220801 0.0455,0.467578 0.052,0.246777 0.19483,0.597461 l 2.4418,6.169434 2.33139,-6.208399 z m 13.45586,8.085205 v -0.02598 q 0.013,-0.03247 0.0195,-0.09741 0.006,-0.06494 0.006,-0.116894 0,-0.201319 -0.0584,-0.441602 -0.052,-0.246777 -0.20781,-0.610449 l -0.78579,-1.766407 q -0.36367,-0.01299 -0.96763,-0.01299 -0.60395,0 -1.30532,0 -0.51304,0 -0.9936,0 -0.47407,0 -0.85723,0.01299 l -0.74682,1.714454 q -0.0974,0.240283 -0.20782,0.526025 -0.1104,0.285742 -0.1104,0.577979 0,0.08442 0.013,0.142871 0.013,0.05195 0.026,0.07144 v 0.02598 h -1.32481 v -0.02598 q 0.1169,-0.123389 0.29224,-0.435107 0.17534,-0.318213 0.38315,-0.792285 l 3.72115,-8.254053 h 0.51953 l 3.52632,7.93584 q 0.12338,0.279248 0.25327,0.545508 0.13637,0.259765 0.25327,0.467578 0.11689,0.207812 0.20781,0.350683 0.0909,0.142871 0.12339,0.181836 v 0.02598 z m -4.2082,-3.630225 q 0.37666,0 0.7728,0 0.39615,-0.0065 0.77281,-0.0065 0.38315,-0.0065 0.73384,-0.0065 0.35068,-0.0065 0.63642,-0.01299 l -1.82485,-4.12378 -1.79239,4.149756 z m 8.15664,1.091016 q 0,0.552002 0.013,0.967627 0.0195,0.409131 0.039,0.707861 0.026,0.29873 0.0584,0.500049 0.039,0.201318 0.0779,0.337695 v 0.02598 h -1.55859 v -0.02598 q 0.039,-0.136377 0.0714,-0.337695 0.039,-0.201319 0.0584,-0.500049 0.026,-0.29873 0.039,-0.707861 0.0195,-0.409131 0.0195,-0.967627 v -4.227686 q 0,-0.552002 -0.0195,-0.961133 -0.013,-0.415625 -0.039,-0.714355 -0.0195,-0.298731 -0.0584,-0.500049 -0.0325,-0.207813 -0.0714,-0.344189 v -0.02598 l 0.27275,0.02598 q 0.12339,0.01299 0.27275,0.01948 0.15586,0 0.31822,0 0.25327,0 0.68188,-0.05845 0.43511,-0.06494 1.10401,-0.06494 0.62343,0 1.14946,0.168848 0.53252,0.168848 0.92217,0.493555 0.38965,0.324707 0.60395,0.798779 0.2208,0.467578 0.2208,1.065039 0,0.467578 -0.12339,0.870215 -0.11689,0.396142 -0.33769,0.720849 -0.21431,0.324708 -0.51953,0.577979 -0.30523,0.246777 -0.68189,0.415625 l 2.27945,3.201611 q 0.16884,0.240284 0.31171,0.415625 0.14937,0.175342 0.27925,0.305225 0.13638,0.123389 0.25977,0.207812 0.12339,0.07793 0.25327,0.123389 v 0.02598 h -1.87681 q -0.0195,-0.123389 -0.12988,-0.324707 -0.10391,-0.207813 -0.24678,-0.409131 l -2.29892,-3.240576 q -0.14937,0.01299 -0.29873,0.02598 -0.14937,0.0065 -0.30523,0.0065 -0.18183,0 -0.37016,-0.01299 -0.18184,-0.01299 -0.37017,-0.04546 z m 0,-1.967725 q 0.17534,0.03896 0.35718,0.05845 0.18183,0.01299 0.35068,0.01299 0.48706,0 0.8897,-0.142871 0.40264,-0.149366 0.68188,-0.448096 0.28575,-0.298731 0.4416,-0.740332 0.15586,-0.448096 0.15586,-1.045557 0,-0.48706 -0.1104,-0.883203 -0.1104,-0.396143 -0.3312,-0.668897 -0.2143,-0.279248 -0.54551,-0.428613 -0.3312,-0.155859 -0.7728,-0.155859 -0.44809,0 -0.71435,0.04546 -0.26626,0.04546 -0.40264,0.09741 z m 7.48774,3.935449 h 2.7795 q 0.75981,0 1.40273,-0.06494 0.64941,-0.06494 1.12998,-0.149365 0.5585,-0.09092 1.01958,-0.214307 l -0.31821,1.052051 q -0.0779,-0.0065 -0.23379,-0.01299 -0.15586,-0.0065 -0.35068,-0.01299 -0.18833,-0.0065 -0.40264,-0.01299 -0.20781,0 -0.39614,-0.0065 -0.18833,0 -0.3377,-0.0065 -0.14287,0 -0.20781,0 h -5.86421 v -0.162354 l 6.32529,-8.57876 h -2.44179 q -0.76631,0 -1.41573,0.07144 -0.64292,0.06494 -1.12348,0.142871 -0.5585,0.09741 -1.01309,0.214307 l 0.4481,-1.052051 q 0.0779,0.0065 0.23379,0.01299 0.16235,0.0065 0.35068,0.01299 0.19482,0.0065 0.40264,0.01299 0.20781,0 0.39614,0.0065 0.18833,0 0.3312,0.0065 0.14936,0 0.21431,0 h 5.40312 v 0.175342 z m 11.33228,-3.896484 v 1.92876 q 0,0.552002 0.013,0.967627 0.013,0.409131 0.039,0.707861 0.026,0.29873 0.0584,0.500049 0.039,0.201318 0.0779,0.337695 v 0.02598 h -1.55859 v -0.02598 q 0.039,-0.136377 0.0714,-0.337695 0.039,-0.201319 0.0584,-0.500049 0.026,-0.29873 0.039,-0.707861 0.0195,-0.415625 0.0195,-0.967627 v -1.798877 l -2.90288,-3.948438 q -0.14937,-0.201318 -0.29874,-0.370166 -0.14287,-0.168848 -0.27275,-0.292236 -0.12988,-0.129883 -0.23379,-0.214307 -0.1039,-0.08442 -0.16235,-0.123388 v -0.02598 h 1.96772 q 0,0.149365 0.12339,0.493555 0.12988,0.337695 0.46109,0.798779 l 2.13007,2.915869 2.08462,-3.045752 q 0.1104,-0.162353 0.2208,-0.331201 0.1104,-0.168848 0.20132,-0.324707 0.0909,-0.155859 0.14287,-0.285742 0.0584,-0.129883 0.0584,-0.220801 h 1.26636 v 0.02598 q -0.14287,0.123388 -0.38316,0.370166 -0.24028,0.240283 -0.51953,0.642919 z m 8.35147,-3.363965 h -0.14287 q -0.052,-0.149365 -0.16885,-0.337695 -0.1104,-0.18833 -0.29873,-0.350684 -0.18184,-0.168848 -0.4481,-0.279248 -0.25976,-0.1104 -0.61694,-0.1104 -0.31821,0 -0.56499,0.09741 -0.24678,0.09741 -0.41562,0.272754 -0.16236,0.175341 -0.24678,0.415625 -0.0844,0.240283 -0.0844,0.532519 0,0.467578 0.25977,0.896192 0.26626,0.422119 0.6624,0.837744 0.39614,0.415625 0.85723,0.83125 0.46108,0.415625 0.85723,0.863721 0.39614,0.448095 0.6559,0.94165 0.26626,0.48706 0.26626,1.052051 0,0.422119 -0.14936,0.850732 -0.14287,0.422119 -0.4481,0.759815 -0.30522,0.337695 -0.78579,0.552002 -0.48057,0.207812 -1.14297,0.207812 -0.37016,0 -0.70786,-0.07143 -0.3312,-0.06494 -0.61694,-0.162354 -0.27925,-0.103906 -0.50655,-0.220801 -0.2208,-0.116894 -0.36367,-0.214306 l 0.14937,-1.435205 h 0.16235 q 0.0714,0.305224 0.23379,0.584472 0.16235,0.272754 0.39614,0.487061 0.24029,0.207812 0.54551,0.337695 0.30523,0.123389 0.6689,0.123389 0.3312,0 0.59096,-0.09741 0.26626,-0.103907 0.45459,-0.279248 0.18833,-0.181836 0.28575,-0.428614 0.1039,-0.246777 0.1039,-0.539013 0,-0.409131 -0.14936,-0.753321 -0.14937,-0.350683 -0.39614,-0.662402 -0.24029,-0.311719 -0.55201,-0.603955 -0.30522,-0.292237 -0.62993,-0.584473 -0.32471,-0.29873 -0.63642,-0.610449 -0.30523,-0.311719 -0.55201,-0.662402 -0.24028,-0.357178 -0.38964,-0.759815 -0.14937,-0.409131 -0.14937,-0.896191 0,-0.513037 0.19482,-0.922168 0.20132,-0.415625 0.52603,-0.707862 0.3312,-0.292236 0.74683,-0.448095 0.41562,-0.15586 0.85722,-0.15586 0.32471,0 0.59746,0.05195 0.27276,0.05195 0.48706,0.123389 0.2208,0.07144 0.38316,0.142871 0.16235,0.07144 0.26626,0.116895 z m 3.16914,7.260449 h 2.77949 q 0.75981,0 1.40273,-0.06494 0.64942,-0.06494 1.12998,-0.149365 0.5585,-0.09092 1.01958,-0.214307 l -0.31821,1.052051 q -0.0779,-0.0065 -0.23379,-0.01299 -0.15586,-0.0065 -0.35068,-0.01299 -0.18833,-0.0065 -0.40264,-0.01299 -0.20781,0 -0.39614,-0.0065 -0.18833,0 -0.3377,-0.0065 -0.14287,0 -0.20781,0 h -5.86421 v -0.162354 l 6.3253,-8.57876 h -2.4418 q -0.76631,0 -1.41572,0.07144 -0.64292,0.06494 -1.12349,0.142871 -0.5585,0.09741 -1.01309,0.214307 l 0.4481,-1.052051 q 0.0779,0.0065 0.23379,0.01299 0.16235,0.0065 0.35068,0.01299 0.19483,0.0065 0.40264,0.01299 0.20781,0 0.39614,0.0065 0.18833,0 0.3312,0.0065 0.14937,0 0.21431,0 h 5.40312 v 0.175342 z m 7.53969,-8.741113 q 0.81177,0 1.61055,-0.0065 0.80527,-0.0065 1.47417,-0.01299 0.6689,-0.01299 1.14297,-0.03247 0.47407,-0.01948 0.64292,-0.05195 l -0.31821,0.86372 q -0.21431,-0.05845 -0.50005,-0.103906 -0.24678,-0.03896 -0.60396,-0.07143 -0.35068,-0.03896 -0.81177,-0.03896 -0.15585,0 -0.37666,0.01299 -0.2143,0.0065 -0.41562,0.01948 -0.23379,0.01299 -0.47407,0.02598 v 3.545801 q 0.66889,-0.0065 1.20791,-0.03897 0.53901,-0.03247 0.91567,-0.06494 0.4416,-0.03896 0.7793,-0.09092 l -0.20132,0.94165 q -0.4481,-0.05845 -0.91567,-0.1104 -0.40264,-0.04546 -0.87671,-0.07793 -0.47408,-0.03896 -0.90918,-0.03896 v 4.071826 q 0.76631,0 1.40923,-0.06494 0.64292,-0.06494 1.12348,-0.149365 0.5585,-0.09092 1.01958,-0.214307 l -0.18833,1.052051 q -0.0779,-0.0065 -0.23379,-0.01299 -0.15586,-0.0065 -0.35068,-0.01299 -0.18833,-0.0065 -0.40264,-0.01299 -0.20781,0 -0.39614,-0.0065 -0.18833,0 -0.33769,-0.0065 -0.14288,0 -0.20782,0 h -2.80547 v -0.02598 q 0.039,-0.136377 0.0714,-0.337695 0.039,-0.201319 0.0649,-0.500049 0.026,-0.29873 0.039,-0.707861 0.013,-0.415625 0.013,-0.967627 v -4.227686 q 0,-0.552002 -0.013,-0.961133 -0.013,-0.415625 -0.039,-0.714355 -0.026,-0.305225 -0.0649,-0.506543 -0.0325,-0.201319 -0.0714,-0.337695 v -0.02598 z m 6.88379,0 6.68897,7.117578 v -4.571875 q 0,-0.552002 -0.013,-0.961133 -0.013,-0.415625 -0.039,-0.714355 -0.026,-0.305225 -0.065,-0.506543 -0.0325,-0.201319 -0.0714,-0.337695 v -0.02598 h 1.15596 v 0.02598 q -0.039,0.136376 -0.0714,0.337695 -0.0325,0.201318 -0.0584,0.506543 -0.026,0.29873 -0.039,0.714355 -0.013,0.409131 -0.013,0.961133 v 6.896778 h -0.22729 l -6.68897,-7.111085 v 4.441993 q 0,0.552002 0.013,0.967627 0.013,0.409131 0.039,0.707861 0.026,0.29873 0.0584,0.500049 0.0325,0.201318 0.0714,0.337695 v 0.02598 h -1.15596 v -0.02598 q 0.039,-0.136377 0.0714,-0.337695 0.039,-0.201319 0.065,-0.500049 0.026,-0.29873 0.039,-0.707861 0.013,-0.415625 0.013,-0.967627 v -4.227686 q 0,-0.552002 -0.013,-0.961133 -0.013,-0.415625 -0.039,-0.714355 -0.026,-0.305225 -0.065,-0.506543 -0.0325,-0.201319 -0.0714,-0.337695 v -0.02598 z m 9.52042,9.286621 q 0.039,-0.136377 0.0714,-0.337695 0.0325,-0.201319 0.0584,-0.500049 0.026,-0.29873 0.039,-0.707861 0.013,-0.415625 0.013,-0.967627 v -4.227686 q 0,-0.552002 -0.013,-0.961133 -0.013,-0.415625 -0.039,-0.714355 -0.026,-0.305225 -0.0584,-0.506543 -0.0325,-0.201319 -0.0714,-0.337695 v -0.02598 h 1.5521 v 0.02598 q -0.039,0.136376 -0.0779,0.337695 -0.0325,0.201318 -0.0584,0.506543 -0.0195,0.29873 -0.039,0.714355 -0.013,0.409131 -0.013,0.961133 v 4.227686 q 0,0.552002 0.013,0.967627 0.0195,0.409131 0.039,0.707861 0.026,0.29873 0.0584,0.500049 0.039,0.201318 0.0779,0.337695 v 0.02598 h -1.5521 z m 3.46786,-9.286621 q 0.81177,0 1.61055,-0.0065 0.80527,-0.0065 1.47417,-0.01299 0.6689,-0.01299 1.14297,-0.03247 0.47407,-0.01948 0.64292,-0.05195 l -0.31821,0.86372 q -0.21431,-0.05845 -0.50005,-0.103906 -0.24678,-0.03896 -0.60396,-0.07143 -0.35068,-0.03896 -0.81176,-0.03896 -0.15586,0 -0.37666,0.01299 -0.21431,0.0065 -0.41563,0.01948 -0.23379,0.01299 -0.47407,0.02598 v 3.545801 q 0.66889,-0.0065 1.20791,-0.03897 0.53901,-0.03247 0.91567,-0.06494 0.4416,-0.03896 0.7793,-0.09092 l -0.20132,0.94165 q -0.4481,-0.05845 -0.91567,-0.1104 -0.40264,-0.04546 -0.87671,-0.07793 -0.47407,-0.03896 -0.90918,-0.03896 v 4.071826 q 0.76631,0 1.40923,-0.06494 0.64292,-0.06494 1.12348,-0.149365 0.5585,-0.09092 1.01958,-0.214307 l -0.18833,1.052051 q -0.0779,-0.0065 -0.23379,-0.01299 -0.15586,-0.0065 -0.35068,-0.01299 -0.18833,-0.0065 -0.40264,-0.01299 -0.20781,0 -0.39614,-0.0065 -0.18833,0 -0.33769,-0.0065 -0.14288,0 -0.20782,0 h -2.80547 v -0.02598 q 0.039,-0.136377 0.0714,-0.337695 0.039,-0.201319 0.0649,-0.500049 0.026,-0.29873 0.039,-0.707861 0.013,-0.415625 0.013,-0.967627 v -4.227686 q 0,-0.552002 -0.013,-0.961133 -0.013,-0.415625 -0.039,-0.714355 -0.026,-0.305225 -0.0649,-0.506543 -0.0325,-0.201319 -0.0714,-0.337695 v -0.02598 z"
     id="path45" /><path
     d="m 106.79812,38.793102 q 0.039,-0.136377 0.0714,-0.337695 0.0325,-0.201319 0.0584,-0.500049 0.026,-0.29873 0.039,-0.707861 0.013,-0.415625 0.013,-0.967627 v -4.227686 q 0,-0.552002 -0.013,-0.961133 -0.013,-0.415625 -0.039,-0.714355 -0.026,-0.305225 -0.0584,-0.506543 -0.0325,-0.201319 -0.0714,-0.337695 v -0.02598 h 1.5521 v 0.02598 q -0.039,0.136376 -0.0779,0.337695 -0.0325,0.201318 -0.0584,0.506543 -0.0195,0.29873 -0.039,0.714355 -0.013,0.409131 -0.013,0.961133 v 4.227686 q 0,0.552002 0.013,0.967627 0.0195,0.409131 0.039,0.707861 0.026,0.29873 0.0584,0.500049 0.039,0.201318 0.0779,0.337695 v 0.02598 h -1.5521 z m 3.00679,0 q 0.0714,-0.103906 0.16235,-0.305224 0.0909,-0.207813 0.14287,-0.519532 0.0714,-0.45459 0.15586,-1.01958 0.0909,-0.571484 0.18184,-1.194922 0.0974,-0.623437 0.18833,-1.272851 0.0974,-0.655908 0.18183,-1.28584 0.0909,-0.636426 0.16885,-1.220899 0.0844,-0.590966 0.14937,-1.078027 0.0649,-0.48706 0.1039,-0.844238 0.0455,-0.363672 0.0649,-0.545508 h 0.82476 l 4.08481,7.637109 4.05235,-7.637109 h 0.61694 l 1.06504,7.715039 q 0.0455,0.363672 0.0974,0.623438 0.0519,0.259765 0.10391,0.448095 0.0519,0.181836 0.0974,0.305225 0.0519,0.116894 0.0974,0.194824 v 0.02598 h -1.63652 v -0.02598 q 0.0325,-0.07144 0.0585,-0.233789 0.0325,-0.162353 0.0325,-0.389648 0,-0.08442 -0.007,-0.168848 -0.006,-0.09092 -0.0195,-0.194824 l -0.82476,-6.221387 -3.83154,7.208496 -0.44809,-0.05195 -3.85752,-7.221484 q -0.2273,1.539111 -0.39615,2.844433 -0.0714,0.558496 -0.14287,1.116992 -0.0714,0.552002 -0.12988,1.032569 -0.052,0.480566 -0.0844,0.850732 -0.0325,0.363672 -0.0325,0.539014 0,0.220801 0.013,0.389648 0.013,0.168848 0.026,0.285743 0.0195,0.136376 0.039,0.240283 h -1.29882 z m 13.7351,-0.545508 q 0,-0.142871 0.052,-0.266259 0.0584,-0.129883 0.14936,-0.220801 0.0974,-0.09741 0.2208,-0.149365 0.12989,-0.05845 0.27276,-0.05845 0.14936,0 0.27275,0.05845 0.12988,0.05195 0.2208,0.149365 0.0974,0.09092 0.14937,0.220801 0.0584,0.123388 0.0584,0.266259 0,0.298731 -0.20131,0.500049 -0.20132,0.201319 -0.50005,0.201319 -0.14287,0 -0.27276,-0.05845 -0.12339,-0.05195 -0.2208,-0.142871 -0.0909,-0.09741 -0.14936,-0.220801 -0.052,-0.129882 -0.052,-0.279248 z m 13.42339,0.571485 v -0.02598 q 0.013,-0.03247 0.0195,-0.09741 0.006,-0.06494 0.006,-0.116894 0,-0.201319 -0.0585,-0.441602 -0.0519,-0.246777 -0.20781,-0.610449 l -0.78579,-1.766407 q -0.36367,-0.01299 -0.96763,-0.01299 -0.60395,0 -1.30532,0 -0.51304,0 -0.9936,0 -0.47408,0 -0.85723,0.01299 l -0.74683,1.714454 q -0.0974,0.240283 -0.20781,0.526025 -0.1104,0.285742 -0.1104,0.577979 0,0.08442 0.013,0.142871 0.013,0.05195 0.026,0.07144 v 0.02598 h -1.32481 v -0.02598 q 0.1169,-0.123389 0.29224,-0.435107 0.17534,-0.318213 0.38315,-0.792285 l 3.72114,-8.254053 h 0.51954 l 3.52631,7.93584 q 0.12339,0.279248 0.25328,0.545508 0.13637,0.259765 0.25327,0.467578 0.11689,0.207812 0.20781,0.350683 0.0909,0.142871 0.12339,0.181836 v 0.02598 z m -4.2082,-3.630225 q 0.37666,0 0.7728,0 0.39615,-0.0065 0.77281,-0.0065 0.38315,-0.0065 0.73383,-0.0065 0.35069,-0.0065 0.63643,-0.01299 l -1.82485,-4.12378 -1.79239,4.149756 z m 8.15664,3.05874 q 0.76631,0 1.40923,-0.06494 0.64292,-0.06494 1.12349,-0.149365 0.55849,-0.09092 1.01958,-0.214307 l -0.18833,1.052051 q -0.0779,-0.0065 -0.23379,-0.01299 -0.15586,-0.0065 -0.35069,-0.01299 -0.18833,-0.0065 -0.40263,-0.01299 -0.20781,0 -0.39614,-0.0065 -0.18833,0 -0.3377,-0.0065 -0.14287,0 -0.20781,0 h -2.80547 v -0.02598 q 0.039,-0.136377 0.0714,-0.337695 0.039,-0.201319 0.065,-0.500049 0.026,-0.29873 0.039,-0.707861 0.013,-0.415625 0.013,-0.967627 v -4.227686 q 0,-0.552002 -0.013,-0.961133 -0.013,-0.415625 -0.039,-0.714355 -0.026,-0.305225 -0.065,-0.506543 -0.0325,-0.201319 -0.0714,-0.337695 v -0.02598 h 1.55859 v 0.02598 q -0.039,0.136376 -0.0779,0.337695 -0.0325,0.201318 -0.0584,0.506543 -0.0195,0.29873 -0.039,0.714355 -0.013,0.409131 -0.013,0.961133 z m 4.74722,-8.741113 q 0.81176,0 1.61054,-0.0065 0.80528,-0.0065 1.47417,-0.01299 0.6689,-0.01299 1.14297,-0.03247 0.47407,-0.01948 0.64292,-0.05195 l -0.31821,0.86372 q -0.21431,-0.05845 -0.50005,-0.103906 -0.24678,-0.03897 -0.60396,-0.07144 -0.35068,-0.03897 -0.81176,-0.03897 -0.15586,0 -0.37666,0.01299 -0.21431,0.0065 -0.41563,0.01948 -0.23379,0.01299 -0.47407,0.02598 v 3.545801 q 0.6689,-0.0065 1.20791,-0.03896 0.53901,-0.03247 0.91567,-0.06494 0.44161,-0.03897 0.7793,-0.09092 l -0.20132,0.94165 q -0.44809,-0.05845 -0.91567,-0.1104 -0.40264,-0.04546 -0.87671,-0.07793 -0.47407,-0.03897 -0.90918,-0.03897 v 4.071826 q 0.76631,0 1.40923,-0.06494 0.64292,-0.06494 1.12348,-0.149365 0.5585,-0.09092 1.01958,-0.214307 l -0.18833,1.052051 q -0.0779,-0.0065 -0.23378,-0.01299 -0.15586,-0.0065 -0.35069,-0.01299 -0.18833,-0.0065 -0.40263,-0.01299 -0.20782,0 -0.39615,-0.0065 -0.18833,0 -0.33769,-0.0065 -0.14287,0 -0.20782,0 h -2.80546 v -0.02598 q 0.039,-0.136377 0.0714,-0.337695 0.039,-0.201319 0.0649,-0.500049 0.026,-0.29873 0.039,-0.707861 0.013,-0.415625 0.013,-0.967627 v -4.227686 q 0,-0.552002 -0.013,-0.961133 -0.013,-0.415625 -0.039,-0.714355 -0.026,-0.305225 -0.0649,-0.506543 -0.0325,-0.201319 -0.0714,-0.337695 v -0.02598 z m 6.52011,9.286621 q 0.039,-0.136377 0.0714,-0.337695 0.039,-0.201319 0.0649,-0.500049 0.026,-0.29873 0.039,-0.707861 0.013,-0.415625 0.013,-0.967627 v -4.227686 q 0,-0.552002 -0.013,-0.961133 -0.013,-0.415625 -0.039,-0.714355 -0.026,-0.305225 -0.0649,-0.506543 -0.0325,-0.201319 -0.0714,-0.337695 v -0.02598 h 1.5586 v 0.02598 q -0.039,0.136376 -0.0779,0.337695 -0.0325,0.201318 -0.0584,0.506543 -0.0195,0.29873 -0.039,0.714355 -0.013,0.409131 -0.013,0.961133 v 1.448193 l 3.79258,-3.097705 q 0.63642,-0.519531 0.63642,-0.896191 h 1.82486 v 0.02598 q -0.38316,0.09092 -0.7793,0.350683 -0.38965,0.253272 -0.83125,0.623438 l -3.35098,2.805468 4.03286,4.429004 q 0.25328,0.259766 0.42862,0.435108 0.18183,0.168847 0.31821,0.285742 0.13638,0.1104 0.24678,0.18833 0.11689,0.07144 0.24028,0.142871 v 0.02598 h -1.90278 q -0.026,-0.05845 -0.0909,-0.149366 -0.0585,-0.09092 -0.14287,-0.18833 -0.0779,-0.09741 -0.17534,-0.201318 -0.0909,-0.103906 -0.17535,-0.194824 l -4.07182,-4.467969 v 2.662598 q 0,0.552002 0.013,0.967627 0.0195,0.409131 0.039,0.707861 0.026,0.29873 0.0584,0.500049 0.039,0.201318 0.0779,0.337695 v 0.02598 h -1.5586 z m 12.47525,-7.805957 h -0.14287 q -0.052,-0.149365 -0.16885,-0.337695 -0.1104,-0.18833 -0.29873,-0.350684 -0.18184,-0.168848 -0.4481,-0.279248 -0.25976,-0.1104 -0.61694,-0.1104 -0.31821,0 -0.56499,0.09741 -0.24678,0.09741 -0.41563,0.272754 -0.16235,0.175341 -0.24677,0.415625 -0.0844,0.240283 -0.0844,0.532519 0,0.467578 0.25977,0.896192 0.26626,0.422119 0.6624,0.837744 0.39614,0.415625 0.85723,0.83125 0.46108,0.415625 0.85722,0.863721 0.39615,0.448095 0.65591,0.94165 0.26626,0.48706 0.26626,1.052051 0,0.422119 -0.14936,0.850732 -0.14287,0.422119 -0.4481,0.759815 -0.30522,0.337695 -0.78579,0.552002 -0.48057,0.207812 -1.14297,0.207812 -0.37016,0 -0.70786,-0.07144 -0.3312,-0.06494 -0.61694,-0.162354 -0.27925,-0.103906 -0.50655,-0.220801 -0.2208,-0.116894 -0.36367,-0.214306 l 0.14937,-1.435205 h 0.16235 q 0.0714,0.305224 0.23379,0.584472 0.16235,0.272754 0.39614,0.487061 0.24029,0.207812 0.54551,0.337695 0.30523,0.123389 0.6689,0.123389 0.3312,0 0.59096,-0.09741 0.26626,-0.103907 0.45459,-0.279248 0.18833,-0.181836 0.28575,-0.428614 0.1039,-0.246777 0.1039,-0.539013 0,-0.409131 -0.14936,-0.753321 -0.14937,-0.350683 -0.39615,-0.662402 -0.24028,-0.311719 -0.552,-0.603955 -0.30522,-0.292237 -0.62993,-0.584473 -0.32471,-0.29873 -0.63643,-0.610449 -0.30522,-0.311719 -0.552,-0.662402 -0.24028,-0.357178 -0.38965,-0.759815 -0.14936,-0.409131 -0.14936,-0.896191 0,-0.513037 0.19482,-0.922168 0.20132,-0.415625 0.52603,-0.707862 0.3312,-0.292236 0.74683,-0.448095 0.41562,-0.15586 0.85722,-0.15586 0.32471,0 0.59746,0.05195 0.27276,0.05195 0.48706,0.123389 0.2208,0.07144 0.38316,0.142871 0.16235,0.07144 0.26626,0.116895 z m 8.61123,7.831934 v -0.02598 q 0.013,-0.03247 0.0195,-0.09741 0.006,-0.06494 0.006,-0.116894 0,-0.201319 -0.0584,-0.441602 -0.052,-0.246777 -0.20781,-0.610449 l -0.78579,-1.766407 q -0.36368,-0.01299 -0.96763,-0.01299 -0.60396,0 -1.30532,0 -0.51304,0 -0.99361,0 -0.47407,0 -0.85722,0.01299 l -0.74683,1.714454 q -0.0974,0.240283 -0.20781,0.526025 -0.1104,0.285742 -0.1104,0.577979 0,0.08442 0.013,0.142871 0.013,0.05195 0.026,0.07144 v 0.02598 h -1.3248 v -0.02598 q 0.11689,-0.123389 0.29223,-0.435107 0.17535,-0.318213 0.38316,-0.792285 l 3.72114,-8.254053 h 0.51953 l 3.52632,7.93584 q 0.12339,0.279248 0.25327,0.545508 0.13638,0.259765 0.25327,0.467578 0.1169,0.207812 0.20782,0.350683 0.0909,0.142871 0.12338,0.181836 v 0.02598 z m -4.2082,-3.630225 q 0.37666,0 0.7728,0 0.39614,-0.0065 0.7728,-0.0065 0.38316,-0.0065 0.73384,-0.0065 0.35068,-0.0065 0.63643,-0.01299 l -1.82486,-4.12378 -1.79238,4.149756 z m 7.15004,-5.682373 6.68897,7.117578 v -4.571875 q 0,-0.552002 -0.013,-0.961133 -0.013,-0.415625 -0.039,-0.714355 -0.026,-0.305225 -0.0649,-0.506543 -0.0325,-0.201319 -0.0714,-0.337695 v -0.02598 h 1.15595 v 0.02598 q -0.039,0.136376 -0.0714,0.337695 -0.0325,0.201318 -0.0585,0.506543 -0.026,0.29873 -0.039,0.714355 -0.013,0.409131 -0.013,0.961133 v 6.896778 h -0.2273 l -6.68896,-7.111085 v 4.441993 q 0,0.552002 0.013,0.967627 0.013,0.409131 0.039,0.707861 0.026,0.29873 0.0584,0.500049 0.0325,0.201318 0.0714,0.337695 v 0.02598 h -1.15595 v -0.02598 q 0.039,-0.136377 0.0714,-0.337695 0.039,-0.201319 0.0649,-0.500049 0.026,-0.29873 0.039,-0.707861 0.013,-0.415625 0.013,-0.967627 v -4.227686 q 0,-0.552002 -0.013,-0.961133 -0.013,-0.415625 -0.039,-0.714355 -0.026,-0.305225 -0.0649,-0.506543 -0.0325,-0.201319 -0.0714,-0.337695 v -0.02598 z m 10.88419,0.558496 q -0.013,0.727344 -0.026,1.409229 -0.006,0.292236 -0.013,0.597461 0,0.305224 -0.006,0.603955 0,0.292236 -0.007,0.56499 0,0.26626 0,0.474072 0,0.435108 0.007,1.052051 0.006,0.616943 0.013,1.266357 0.013,0.649414 0.0325,1.246875 0.0195,0.597461 0.0455,0.993604 0.0909,0.01299 0.24029,0.03247 0.15586,0.01299 0.3247,0.02598 0.16885,0.0065 0.33121,0.01299 0.16235,0.0065 0.27275,0.0065 0.45459,0 0.92866,-0.05845 0.48057,-0.06494 0.92217,-0.233789 0.4481,-0.168847 0.83774,-0.461084 0.39615,-0.29873 0.68838,-0.766308 0.29873,-0.467578 0.46758,-1.123487 0.16885,-0.662402 0.16885,-1.558593 0,-0.993604 -0.24028,-1.766407 -0.24029,-0.779297 -0.70787,-1.311816 -0.46108,-0.53252 -1.14946,-0.805274 -0.68188,-0.279248 -1.57158,-0.279248 -0.17534,0 -0.39614,0.01299 -0.2208,0.0065 -0.4416,0.01948 -0.21431,0.0065 -0.40914,0.02598 -0.18833,0.01299 -0.31171,0.01948 z m -1.42222,-0.584473 q 0.14936,0.0065 0.27925,0.01299 0.1104,0.0065 0.22729,0.01299 0.1169,0 0.18833,0 0.12339,0 0.40913,-0.01299 0.29224,-0.01299 0.66241,-0.02598 0.37016,-0.01299 0.7663,-0.02598 0.40264,-0.01299 0.75332,-0.01299 0.94165,0 1.79239,0.233789 0.85073,0.233789 1.49365,0.766309 0.64292,0.532519 1.01958,1.39624 0.37666,0.863721 0.37666,2.123584 0,0.902686 -0.20132,1.623535 -0.19482,0.72085 -0.552,1.272852 -0.35718,0.552002 -0.85723,0.948145 -0.49355,0.389648 -1.09751,0.642919 -0.59746,0.253272 -1.27934,0.370166 -0.68189,0.116895 -1.40923,0.116895 -0.25977,0 -0.62993,-0.01948 -0.36368,-0.01299 -0.73384,-0.03247 -0.37017,-0.01948 -0.70137,-0.03896 -0.32471,-0.01299 -0.50654,-0.01299 v -0.02598 q 0.039,-0.136377 0.0714,-0.337695 0.039,-0.201319 0.0649,-0.500049 0.026,-0.29873 0.039,-0.707861 0.013,-0.415625 0.013,-0.967627 v -4.227686 q 0,-0.552002 -0.013,-0.967627 -0.013,-0.422119 -0.039,-0.720849 -0.026,-0.305225 -0.0649,-0.513038 -0.0325,-0.207812 -0.0714,-0.344189 z m 10.86469,6.799366 q 0,0.552002 0.013,0.967627 0.0195,0.409131 0.039,0.707861 0.026,0.29873 0.0584,0.500049 0.039,0.201318 0.0779,0.337695 v 0.02598 h -1.55859 v -0.02598 q 0.039,-0.136377 0.0714,-0.337695 0.039,-0.201319 0.0584,-0.500049 0.026,-0.29873 0.039,-0.707861 0.0195,-0.409131 0.0195,-0.967627 v -4.227686 q 0,-0.552002 -0.0195,-0.961133 -0.013,-0.415625 -0.039,-0.714355 -0.0195,-0.298731 -0.0584,-0.500049 -0.0325,-0.207813 -0.0714,-0.344189 v -0.02598 l 0.27275,0.02598 q 0.12339,0.01299 0.27276,0.01948 0.15586,0 0.31821,0 0.25327,0 0.68188,-0.05845 0.43511,-0.06494 1.10401,-0.06494 0.62344,0 1.14946,0.168848 0.53252,0.168848 0.92217,0.493555 0.38965,0.324707 0.60395,0.798779 0.22081,0.467578 0.22081,1.065039 0,0.467578 -0.12339,0.870215 -0.1169,0.396142 -0.3377,0.720849 -0.21431,0.324708 -0.51953,0.577979 -0.30522,0.246777 -0.68188,0.415625 l 2.27944,3.201611 q 0.16885,0.240284 0.31172,0.415625 0.14936,0.175342 0.27925,0.305225 0.13637,0.123389 0.25976,0.207812 0.12339,0.07793 0.25327,0.123389 v 0.02598 h -1.8768 q -0.0195,-0.123389 -0.12989,-0.324707 -0.1039,-0.207813 -0.24677,-0.409131 l -2.29893,-3.240576 q -0.14937,0.01299 -0.29873,0.02598 -0.14937,0.0065 -0.30522,0.0065 -0.18184,0 -0.37017,-0.01299 -0.18184,-0.01299 -0.37017,-0.04546 z m 0,-1.967725 q 0.17534,0.03896 0.35718,0.05845 0.18184,0.01299 0.35068,0.01299 0.48706,0 0.8897,-0.142871 0.40264,-0.149366 0.68189,-0.448096 0.28574,-0.298731 0.4416,-0.740332 0.15586,-0.448096 0.15586,-1.045557 0,-0.48706 -0.1104,-0.883203 -0.1104,-0.396143 -0.3312,-0.668897 -0.21431,-0.279248 -0.54551,-0.428613 -0.3312,-0.155859 -0.7728,-0.155859 -0.4481,0 -0.71436,0.04546 -0.26626,0.04546 -0.40264,0.09741 z m 10.01397,0.03896 v 1.92876 q 0,0.552002 0.013,0.967627 0.013,0.409131 0.039,0.707861 0.026,0.29873 0.0585,0.500049 0.039,0.201318 0.0779,0.337695 v 0.02598 h -1.55859 v -0.02598 q 0.039,-0.136377 0.0714,-0.337695 0.039,-0.201319 0.0584,-0.500049 0.026,-0.29873 0.039,-0.707861 0.0195,-0.415625 0.0195,-0.967627 v -1.798877 l -2.90289,-3.948438 q -0.14936,-0.201318 -0.29873,-0.370166 -0.14287,-0.168848 -0.27275,-0.292236 -0.12988,-0.129883 -0.23379,-0.214307 -0.1039,-0.08442 -0.16235,-0.123388 v -0.02598 h 1.96772 q 0,0.149365 0.12339,0.493555 0.12988,0.337695 0.46109,0.798779 l 2.13007,2.915869 2.08462,-3.045752 q 0.1104,-0.162353 0.2208,-0.331201 0.1104,-0.168848 0.20132,-0.324707 0.0909,-0.155859 0.14287,-0.285742 0.0584,-0.129883 0.0584,-0.220801 h 1.26636 v 0.02598 q -0.14287,0.123388 -0.38316,0.370166 -0.24028,0.240283 -0.51953,0.642919 z"
     id="path46" /><path
     d="m 113.88323,47.358874 2.59765,6.30581 2.52622,-6.188916 q 0.14937,-0.383154 0.2208,-0.649414 0.0714,-0.26626 0.0714,-0.45459 0,-0.05845 -0.006,-0.116894 -0.007,-0.06494 -0.0195,-0.09741 v -0.02598 h 1.28584 v 0.02598 q -0.12988,0.142871 -0.28574,0.454589 -0.14936,0.311719 -0.35068,0.772803 l -3.46787,8.260547 h -0.49356 l -2.52622,-6.130469 -2.30542,6.130469 h -0.48706 l -3.18213,-7.942334 q -0.11689,-0.279248 -0.24028,-0.539014 -0.1169,-0.259765 -0.2273,-0.467578 -0.1039,-0.207812 -0.18833,-0.350683 -0.0909,-0.142872 -0.12988,-0.18833 v -0.02598 h 1.79888 v 0.02598 q -0.013,0.07144 -0.013,0.1104 0,0.03897 0,0.09092 0,0.220801 0.0455,0.467578 0.052,0.246777 0.19482,0.597461 l 2.4418,6.169434 2.3314,-6.208399 z m 13.45586,8.085205 v -0.02598 q 0.013,-0.03247 0.0195,-0.09741 0.006,-0.06494 0.006,-0.116894 0,-0.201319 -0.0584,-0.441602 -0.052,-0.246777 -0.20782,-0.610449 l -0.78579,-1.766407 q -0.36367,-0.01299 -0.96762,-0.01299 -0.60396,0 -1.30533,0 -0.51303,0 -0.9936,0 -0.47407,0 -0.85723,0.01299 l -0.74682,1.714454 q -0.0974,0.240283 -0.20782,0.526025 -0.1104,0.285742 -0.1104,0.577979 0,0.08442 0.013,0.142871 0.013,0.05195 0.026,0.07144 v 0.02598 h -1.32481 v -0.02598 q 0.1169,-0.123389 0.29224,-0.435107 0.17534,-0.318213 0.38315,-0.792285 l 3.72115,-8.254053 h 0.51953 l 3.52632,7.93584 q 0.12339,0.279248 0.25327,0.545508 0.13638,0.259765 0.25327,0.467578 0.11689,0.207812 0.20781,0.350683 0.0909,0.142871 0.12339,0.181836 v 0.02598 z m -4.20821,-3.630225 q 0.37666,0 0.77281,0 0.39614,-0.0065 0.7728,-0.0065 0.38315,-0.0065 0.73384,-0.0065 0.35068,-0.0065 0.63642,-0.01299 l -1.82485,-4.12378 -1.79238,4.149756 z m 14.31958,-4.253662 -0.0584,0.02598 q -0.50655,-0.467578 -1.2209,-0.746826 -0.70786,-0.279248 -1.5586,-0.279248 -0.81826,0 -1.50014,0.259766 -0.68189,0.253271 -1.17544,0.740332 -0.48706,0.48706 -0.75982,1.194922 -0.27275,0.707861 -0.27275,1.610547 0,0.993603 0.25977,1.857324 0.25976,0.857227 0.7728,1.487158 0.51303,0.629932 1.27934,0.993604 0.77281,0.357177 1.79888,0.357177 0.37017,0 0.74033,-0.07793 0.37017,-0.07793 0.70786,-0.227295 0.34419,-0.15586 0.64292,-0.370166 0.30523,-0.220801 0.55201,-0.500049 l 0.0714,0.04546 -0.51953,1.324805 q -0.48706,0.18833 -1.07803,0.285742 -0.58447,0.103906 -1.18193,0.103906 -1.20142,0 -2.20151,-0.344189 -0.99361,-0.350684 -1.71446,-0.98711 -0.71435,-0.636426 -1.11699,-1.526123 -0.39614,-0.896191 -0.39614,-1.987207 0,-0.616943 0.15586,-1.214404 0.16235,-0.597461 0.46757,-1.136475 0.30523,-0.539013 0.75333,-0.987109 0.44809,-0.45459 1.01958,-0.785791 0.57797,-0.331201 1.26635,-0.513037 0.69488,-0.18833 1.50015,-0.18833 1.25337,0 2.3249,0.383154 z m 7.90987,3.428906 q -0.25977,-0.0065 -0.64942,-0.0065 -0.38964,-0.0065 -0.85073,-0.01299 -0.45459,-0.0065 -0.95464,-0.0065 -0.49355,-0.0065 -0.96762,-0.0065 -0.47408,-0.0065 -0.90269,0 -0.42861,0.0065 -0.74683,0.01948 v 1.92876 q 0,0.552002 0.013,0.967627 0.0195,0.409131 0.039,0.707861 0.026,0.29873 0.0584,0.500049 0.039,0.201318 0.0779,0.337695 v 0.02598 h -1.55859 v -0.02598 q 0.039,-0.136377 0.0714,-0.337695 0.039,-0.201319 0.0649,-0.500049 0.026,-0.29873 0.039,-0.707861 0.013,-0.415625 0.013,-0.967627 v -4.227686 q 0,-0.552002 -0.013,-0.961133 -0.013,-0.415625 -0.039,-0.714355 -0.026,-0.305225 -0.0649,-0.506543 -0.0325,-0.201319 -0.0714,-0.337695 v -0.02598 h 1.55859 v 0.02598 q -0.039,0.136376 -0.0779,0.337695 -0.0325,0.201318 -0.0584,0.506543 -0.0195,0.29873 -0.039,0.714355 -0.013,0.409131 -0.013,0.961133 v 1.6625 q 0.3377,0.01299 0.76631,0.01948 0.42862,0 0.89619,0 0.46758,-0.0065 0.94815,-0.01299 0.48706,-0.0065 0.93516,-0.01299 0.45459,-0.01299 0.84423,-0.02598 0.39615,-0.01299 0.68189,-0.02598 v -1.604053 q 0,-0.552002 -0.0195,-0.961133 -0.013,-0.415625 -0.039,-0.714355 -0.0195,-0.305225 -0.0585,-0.506543 -0.0325,-0.201319 -0.0714,-0.337695 v -0.02598 h 1.55859 v 0.02598 q -0.039,0.136376 -0.0779,0.337695 -0.0325,0.201318 -0.0584,0.506543 -0.026,0.29873 -0.039,0.714355 -0.013,0.409131 -0.013,0.961133 v 4.227686 q 0,0.552002 0.013,0.967627 0.013,0.409131 0.039,0.707861 0.026,0.29873 0.0584,0.500049 0.039,0.201318 0.0779,0.337695 v 0.02598 H 145.172 v -0.02598 q 0.039,-0.136377 0.0714,-0.337695 0.039,-0.201319 0.0585,-0.500049 0.026,-0.29873 0.039,-0.707861 0.0195,-0.415625 0.0195,-0.967627 z m 3.59126,-4.857617 6.68896,7.117578 v -4.571875 q 0,-0.552002 -0.013,-0.961133 -0.013,-0.415625 -0.039,-0.714355 -0.026,-0.305225 -0.0649,-0.506543 -0.0325,-0.201319 -0.0714,-0.337695 v -0.02598 h 1.15596 v 0.02598 q -0.039,0.136376 -0.0714,0.337695 -0.0325,0.201318 -0.0584,0.506543 -0.026,0.29873 -0.039,0.714355 -0.013,0.409131 -0.013,0.961133 v 6.896778 h -0.22729 l -6.68897,-7.111085 v 4.441993 q 0,0.552002 0.013,0.967627 0.013,0.409131 0.039,0.707861 0.026,0.29873 0.0584,0.500049 0.0325,0.201318 0.0714,0.337695 v 0.02598 h -1.15596 v -0.02598 q 0.039,-0.136377 0.0714,-0.337695 0.039,-0.201319 0.0649,-0.500049 0.026,-0.29873 0.039,-0.707861 0.013,-0.415625 0.013,-0.967627 v -4.227686 q 0,-0.552002 -0.013,-0.961133 -0.013,-0.415625 -0.039,-0.714355 -0.026,-0.305225 -0.0649,-0.506543 -0.0325,-0.201319 -0.0714,-0.337695 v -0.02598 z m 9.52041,9.286621 q 0.039,-0.136377 0.0714,-0.337695 0.0325,-0.201319 0.0584,-0.500049 0.026,-0.29873 0.039,-0.707861 0.013,-0.415625 0.013,-0.967627 v -4.227686 q 0,-0.552002 -0.013,-0.961133 -0.013,-0.415625 -0.039,-0.714355 -0.026,-0.305225 -0.0584,-0.506543 -0.0325,-0.201319 -0.0714,-0.337695 v -0.02598 h 1.5521 v 0.02598 q -0.039,0.136376 -0.0779,0.337695 -0.0325,0.201318 -0.0584,0.506543 -0.0195,0.29873 -0.039,0.714355 -0.013,0.409131 -0.013,0.961133 v 4.227686 q 0,0.552002 0.013,0.967627 0.0195,0.409131 0.039,0.707861 0.026,0.29873 0.0584,0.500049 0.039,0.201318 0.0779,0.337695 v 0.02598 h -1.5521 z m 3.46787,-9.286621 q 0.81177,0 1.61055,-0.0065 0.80527,-0.0065 1.47417,-0.01299 0.66889,-0.01299 1.14297,-0.03247 0.47407,-0.01948 0.64292,-0.05195 l -0.31822,0.86372 q -0.2143,-0.05845 -0.50005,-0.103906 -0.24677,-0.03896 -0.60395,-0.07143 -0.35069,-0.03897 -0.81177,-0.03897 -0.15586,0 -0.37666,0.01299 -0.21431,0.0065 -0.41562,0.01948 -0.23379,0.01299 -0.47408,0.02598 v 3.545801 q 0.6689,-0.0065 1.20791,-0.03896 0.53902,-0.03247 0.91568,-0.06494 0.4416,-0.03897 0.77929,-0.09092 l -0.20131,0.94165 q -0.4481,-0.05845 -0.91568,-0.1104 -0.40263,-0.04546 -0.87671,-0.07793 -0.47407,-0.03897 -0.90918,-0.03897 v 4.071826 q 0.76631,0 1.40923,-0.06494 0.64292,-0.06494 1.12349,-0.149365 0.55849,-0.09092 1.01958,-0.214307 l -0.18833,1.052051 q -0.0779,-0.0065 -0.23379,-0.01299 -0.15586,-0.0065 -0.35068,-0.01299 -0.18833,-0.0065 -0.40264,-0.01299 -0.20781,0 -0.39614,-0.0065 -0.18833,0 -0.3377,-0.0065 -0.14287,0 -0.20781,0 h -2.80547 v -0.02598 q 0.039,-0.136377 0.0714,-0.337695 0.039,-0.201319 0.0649,-0.500049 0.026,-0.29873 0.039,-0.707861 0.013,-0.415625 0.013,-0.967627 v -4.227686 q 0,-0.552002 -0.013,-0.961133 -0.013,-0.415625 -0.039,-0.714355 -0.026,-0.305225 -0.0649,-0.506543 -0.0325,-0.201319 -0.0714,-0.337695 v -0.02598 z m 12.59863,1.227393 2.59766,6.30581 2.52622,-6.188916 q 0.14937,-0.383154 0.2208,-0.649414 0.0714,-0.26626 0.0714,-0.45459 0,-0.05845 -0.007,-0.116894 -0.006,-0.06494 -0.0195,-0.09741 v -0.02598 h 1.28584 v 0.02598 q -0.12988,0.142871 -0.28574,0.454589 -0.14937,0.311719 -0.35068,0.772803 l -3.46788,8.260547 h -0.49355 l -2.52622,-6.130469 -2.30542,6.130469 h -0.48706 l -3.18213,-7.942334 q -0.1169,-0.279248 -0.24028,-0.539014 -0.1169,-0.259765 -0.2273,-0.467578 -0.10391,-0.207812 -0.18833,-0.350683 -0.0909,-0.142872 -0.12988,-0.18833 v -0.02598 h 1.79887 v 0.02598 q -0.013,0.07144 -0.013,0.1104 0,0.03897 0,0.09092 0,0.220801 0.0455,0.467578 0.052,0.246777 0.19482,0.597461 l 2.4418,6.169434 2.33139,-6.208399 z m 11.29332,0.253271 h -0.14288 q -0.052,-0.149365 -0.16884,-0.337695 -0.1104,-0.18833 -0.29873,-0.350684 -0.18184,-0.168848 -0.4481,-0.279248 -0.25977,-0.1104 -0.61694,-0.1104 -0.31822,0 -0.56499,0.09741 -0.24678,0.09741 -0.41563,0.272754 -0.16235,0.175341 -0.24678,0.415625 -0.0844,0.240283 -0.0844,0.532519 0,0.467578 0.25977,0.896192 0.26626,0.422119 0.6624,0.837744 0.39614,0.415625 0.85723,0.83125 0.46108,0.415625 0.85722,0.863721 0.39614,0.448095 0.65591,0.94165 0.26626,0.48706 0.26626,1.052051 0,0.422119 -0.14937,0.850732 -0.14287,0.422119 -0.44809,0.759815 -0.30523,0.337695 -0.78579,0.552002 -0.48057,0.207812 -1.14297,0.207812 -0.37017,0 -0.70786,-0.07144 -0.3312,-0.06494 -0.61695,-0.162354 -0.27924,-0.103906 -0.50654,-0.220801 -0.2208,-0.116894 -0.36367,-0.214306 l 0.14936,-1.435205 h 0.16236 q 0.0714,0.305224 0.23379,0.584472 0.16235,0.272754 0.39614,0.487061 0.24028,0.207812 0.54551,0.337695 0.30522,0.123389 0.66889,0.123389 0.33121,0 0.59097,-0.09741 0.26626,-0.103907 0.45459,-0.279248 0.18833,-0.181836 0.28574,-0.428614 0.10391,-0.246777 0.10391,-0.539013 0,-0.409131 -0.14937,-0.753321 -0.14936,-0.350683 -0.39614,-0.662402 -0.24028,-0.311719 -0.552,-0.603955 -0.30523,-0.292237 -0.62993,-0.584473 -0.32471,-0.29873 -0.63643,-0.610449 -0.30522,-0.311719 -0.552,-0.662402 -0.24028,-0.357178 -0.38965,-0.759815 -0.14936,-0.409131 -0.14936,-0.896191 0,-0.513037 0.19482,-0.922168 0.20132,-0.415625 0.52603,-0.707862 0.3312,-0.292236 0.74682,-0.448095 0.41563,-0.15586 0.85723,-0.15586 0.32471,0 0.59746,0.05195 0.27275,0.05195 0.48706,0.123389 0.2208,0.07144 0.38315,0.142871 0.16236,0.07144 0.26626,0.116895 z m 2.16904,7.805957 q 0.039,-0.136377 0.0714,-0.337695 0.039,-0.201319 0.0649,-0.500049 0.026,-0.29873 0.039,-0.707861 0.013,-0.415625 0.013,-0.967627 v -4.227686 q 0,-0.552002 -0.013,-0.961133 -0.013,-0.415625 -0.039,-0.714355 -0.026,-0.305225 -0.0649,-0.506543 -0.0325,-0.201319 -0.0714,-0.337695 v -0.02598 h 1.55859 v 0.02598 q -0.039,0.136376 -0.0779,0.337695 -0.0325,0.201318 -0.0584,0.506543 -0.0195,0.29873 -0.039,0.714355 -0.013,0.409131 -0.013,0.961133 v 1.448193 l 3.79258,-3.097705 q 0.63642,-0.519531 0.63642,-0.896191 h 1.82486 v 0.02598 q -0.38316,0.09092 -0.7793,0.350683 -0.38965,0.253272 -0.83125,0.623438 l -3.35098,2.805468 4.03286,4.429004 q 0.25328,0.259766 0.42862,0.435108 0.18183,0.168847 0.31821,0.285742 0.13638,0.1104 0.24678,0.18833 0.11689,0.07144 0.24028,0.142871 v 0.02598 h -1.90278 q -0.026,-0.05845 -0.0909,-0.149366 -0.0584,-0.09092 -0.14287,-0.18833 -0.0779,-0.09741 -0.17534,-0.201318 -0.0909,-0.103906 -0.17534,-0.194824 l -4.07183,-4.467969 v 2.662598 q 0,0.552002 0.013,0.967627 0.0195,0.409131 0.039,0.707861 0.026,0.29873 0.0584,0.500049 0.039,0.201318 0.0779,0.337695 v 0.02598 h -1.55859 z m 8.65019,0 q 0.039,-0.136377 0.0714,-0.337695 0.0325,-0.201319 0.0584,-0.500049 0.026,-0.29873 0.039,-0.707861 0.013,-0.415625 0.013,-0.967627 v -4.227686 q 0,-0.552002 -0.013,-0.961133 -0.013,-0.415625 -0.039,-0.714355 -0.026,-0.305225 -0.0584,-0.506543 -0.0325,-0.201319 -0.0714,-0.337695 v -0.02598 h 1.5521 v 0.02598 q -0.039,0.136376 -0.0779,0.337695 -0.0325,0.201318 -0.0584,0.506543 -0.0195,0.29873 -0.039,0.714355 -0.013,0.409131 -0.013,0.961133 v 4.227686 q 0,0.552002 0.013,0.967627 0.0195,0.409131 0.039,0.707861 0.026,0.29873 0.0584,0.500049 0.039,0.201318 0.0779,0.337695 v 0.02598 h -1.5521 z m 3.46787,-9.286621 q 0.81177,0 1.61055,-0.0065 0.80527,-0.0065 1.47417,-0.01299 0.66889,-0.01299 1.14297,-0.03247 0.47407,-0.01948 0.64292,-0.05195 l -0.31822,0.86372 q -0.2143,-0.05845 -0.50005,-0.103906 -0.24677,-0.03896 -0.60395,-0.07143 -0.35068,-0.03897 -0.81177,-0.03897 -0.15586,0 -0.37666,0.01299 -0.21431,0.0065 -0.41562,0.01948 -0.23379,0.01299 -0.47408,0.02598 v 3.545801 q 0.6689,-0.0065 1.20791,-0.03896 0.53902,-0.03247 0.91568,-0.06494 0.4416,-0.03897 0.77929,-0.09092 l -0.20131,0.94165 q -0.4481,-0.05845 -0.91568,-0.1104 -0.40263,-0.04546 -0.87671,-0.07793 -0.47407,-0.03897 -0.90918,-0.03897 v 4.071826 q 0.76631,0 1.40923,-0.06494 0.64292,-0.06494 1.12349,-0.149365 0.55849,-0.09092 1.01958,-0.214307 l -0.18833,1.052051 q -0.0779,-0.0065 -0.23379,-0.01299 -0.15586,-0.0065 -0.35068,-0.01299 -0.18833,-0.0065 -0.40264,-0.01299 -0.20781,0 -0.39614,-0.0065 -0.18833,0 -0.3377,-0.0065 -0.14287,0 -0.20781,0 h -2.80547 v -0.02598 q 0.039,-0.136377 0.0714,-0.337695 0.039,-0.201319 0.0649,-0.500049 0.026,-0.29873 0.039,-0.707861 0.013,-0.415625 0.013,-0.967627 v -4.227686 q 0,-0.552002 -0.013,-0.961133 -0.013,-0.415625 -0.039,-0.714355 -0.026,-0.305225 -0.0649,-0.506543 -0.0325,-0.201319 -0.0714,-0.337695 v -0.02598 z m 7.83843,7.968311 q 0,0.876709 -0.18184,1.519629 -0.17534,0.642919 -0.50005,1.136474 -0.31821,0.500049 -0.75981,0.889697 -0.43511,0.389649 -0.95464,0.766309 l -0.11689,-0.162353 q 0.44809,-0.409131 0.70786,-0.850733 0.26626,-0.441601 0.40264,-0.948144 0.14287,-0.500049 0.18183,-1.078028 0.039,-0.584472 0.039,-1.272851 v -5.422608 q 0,-0.552002 -0.013,-0.961133 -0.013,-0.415625 -0.039,-0.714355 -0.026,-0.305225 -0.0649,-0.506543 -0.0325,-0.201319 -0.0714,-0.337695 v -0.02598 h 1.55859 v 0.02598 q -0.039,0.136376 -0.0779,0.337695 -0.0325,0.201318 -0.0584,0.506543 -0.026,0.29873 -0.039,0.714355 -0.013,0.409131 -0.013,0.961133 z"
     id="path47" /></g>
  </g>
</svg>
