<svg xmlns="http://www.w3.org/2000/svg" width="54" height="54">
  <g style="image-rendering:auto">
    <path d="M96 96h1m1 0c-1-1 0 2 0 0m-2 0v1m4 4c0 5-2-3 0-2 1 5 5-4 6-2-2 6 3 1 3 1m-20-1c0-3 3 4 0 3 0 0 0-2 0 0m8-4v1m1-1-1 1m-14 3c0-1-1-6 1-2 2 3 2 6 2 8 0 3-3-1 0 0m4-9c3-2 1 4 2 3m2-3v1h-1m4-1-1 2m0-2 1 1m1-1c0 1 0 0 0 0m-1 1 1-1m3 0-1 2m26 1c-3-1 0-5 0-1 1 4 2-3 2 2 0 3 5 5 3 0 3 1 1 6 3 2 0 3 1 4 2 1-2-4 5 1 0 2 0 1 1 2-2 1m-34-9h1v-1m-3 0 1 1m-10-1 1 1m6-1v1h0m1-1h0m1 0v1m0-1v1h0m5 0h1m-10 0c1-1 1 2 1 1m1-1h0m1 0h0m-5 0h0m2 0c-1 1 0 3-2 3m4-3h0m-2 0h1m4 0v2m10-2v1m-23-1c3 1 0 4 0 0zm3 1h0m16 0c-1 1-2 3-4 3l2-1m-2-2h-1m19 4c2 0-2-6 1-3 0 1 1 2 2 1m-43 0c-3-1 0-3 0 0m9-2h0m16 1s1-1 0 0m3 0c2 0 0 2 0 0m-15 0h1m3 0h-1 0m14 0 1 1m15-1c3 2-1 6-2 3-1 2-2 0-1-2m4-1s0 0 0 0m0 0h1m-1 0h-1m-41 0c2 4-4 1-1 4-2 3-2-3-4-3m24-1h1m-17 0c0 2 3 4-1 3m1-2h1m7 0c2 1-3 4-1 0h1m7 4c-1-3 6-6 3-2l-4 3h0m26-5h-1m1 0h0l-1 1m-35-1c2 0-1 2 0 0zm6 0c2 1-1 4 0 3m13-3c0 3 5 1 0 3l-1 3m-30-6c3 5-7 1-1 4l1-1m18-2c-1 0-2 3-2 1m19 6c3 0-1-3 1-4-2-5 1-2 2 0 1 5 1-4 1 0h0m-1-1c-1-2 1-4 1 0m-21-2h0m-21 0v1m10 0v-1m18 0v1m13-1h0m13 0v1h0m-31-1v1h1m-16 0h-1m21 0h-1 0m4 1c-4 0 4-2 0 0 0 0 0 0 0 0m-16 0c2 0-1 5-1 1-2-2 1-2 2-1-1-5 3 5 0 4m12-5h0m-1 0h1m15 0c0 1-1 0 0 0m5 0h1m-6 0h0m-1 0h1m10 0-2 2m-32-2v1h0m9-1v1h0m-8-1-1 1h0m3-1c3 1 0 4 1 4m20-4-1 2m14-2h0m-31 1c-1 1-1-1 0 0zm26 1 1-1m-8 0c-1 1 2 2 1 0m16 0h-1m-41 0c-1 1 1 3 1 2m1-2c1 1 2 1 1 2m14-2h0-1m23 0h0m4 0h0m-53 0h0m16 0h0m17 0v0m-41 0h0m15 0v0m9 0h0m9 0h0m-9 0v1m2 0v-1h1m-24 0c3 1 0 2 0 0m9 0c-3 0 1 4 0 1m3-1h0l1 1m8-1v2m5-2-1 1m-4 0h1-1m-15 0h1m2 0h0m8 0 1 2m-7-2h0m11 0h0m13 0h1m1 0h1m-13 1c-2 0 0-2 0 0m8-1-2 1m4-1h0m-36 0v2m44-1c0 1-1-2 1-1m17 0c0 1 2 4 0 1m-40-1h0m12 0c-2 2-1 2 0 2m10-2v1m7 2c-2-3 1-3 3-1 0 3-6 1-3 2m-17-4h-1m24 0v1m-43 1v-2m4 0 1 1m11 0h1m-1 0h0m15 0c2 1-2 2-1 0m-20 0h1m4 2c-2 3 5 2 0 0 0-1-1-2 1-2m3 0h0m-2 0h-1m3 0h0m-2 0h1m2 0h0m7 1c-1 2 2-4 2 0m-10-1h0m3 0h0m12 1c-1-2 3 0 1 0h0m-49-1c2-1 5 5 5 3-1-1 0-3-2-3m29 0h0m-15 1 1 1m45-1h1m-29 0h0m-27 0c5-1 3 3 0 0h0m54 0c-3 2 2 3 0 0m-28 0c2 1-1 2-1 1m4-1 1 1m9-1v2m8-2h0m-20 0h-1 0m-29 0v1h0m49-1c0 2 2 0 1 1m-39-1c3 0 1 6-1 2v-1zm3 0c2 1 0 2 0 2m10-2v1m4-1v1m22-1h0m0 0h1m-13 0v1m4-1 1 2m-5-2c2 1 1 3 0 2m-26-1h0m1 0h0m11 0h0m11 0c3 1-3 2 0 0m-11 0h0m36 0c1 0 0 2 1 1m-48-1h1m15 3s-5-3-1-3m1 0h0m17 0h-1m-24 0-1 1m16-1 2 1m12-1c0 1 3 3-1 2-3-1-6 7-2 3 2-4 3 3 1 2h0m11-5c1 3-6 2-1 0l2-2m-13 0h0m-4 0 2 1m1-1h0m-25 0c1 2-1 4-1 1m-5-1h0m41 0c-4 0 2 2-2 4 0 2-1 7-4 5l2-1m-64-2c4-2-3-7 1-5l1 1m48-2v1m-29 6c-1-2-3-8 0-6h0m5 0h0m0 0h0m7 0h1m15 0h0m8 0h0m-2 0h-1 0m2 0c-2 2 1 2 0 0m-59 0c-1 2 0 2 1 2l-1 1m4-3h0m12 0 6 6c0 3-6 1-4-1m18-5h0m-39 2 3-2m46 0h1m25 0 1 1m-73-1v0m2 0h0m55 0h0m-33 0h0m2 0v1m49-1v1h0m-25-1c2 1 3 2 1 2m5-1h1m19-1c-2 4 1 3 1 2m-75-2v1m-6 0h2m5 0h0m54 0h0m-32 0s1 1 0 0m21 0c3 0 0 2 2 2m11-2h0m-56 0h0m16 0h1m7 0h0m-31 0h-1m34 0v2m-17 2c-2-1-4-3 0-2 2 2 0-5 2-1-2 3 3 4 3 1v2m11-2 1-2m49 0s0 0 0 0m-27 0h0v1m5-1h1m-57 0h0m1 0h0m4 0v1m37-1v0m13 0h1m2 0h0m-55 0h0m24 0h0m-31 1 1-1h1m27 0v1m25 1c-2-4 3 2-1 0h0m7-2v1m-59 0s0 0 0 0m0 0h0m28 0h1m-28 0c2 2-2 1-2 2m38-2c4 1-1 6 0 4m17-4h0m5 0h0m-59 0h0m7 0h0m22 0c0 2-2-1-2 1h0m-25-1s1 1 0 0m46 0h0m11 0h-1m-58 0h0m31 0v0m20 0h0m8 0h0-1m-15 0c3 1-1 4 0 0m10 0-1 1m29-1c3 2-5 4 1 4h0v-1m-55-3h1m0 0h0v1m19-1c0 2 7 6 4 2m1-2h0m-49 0h0m34 0v4m-33-3-1-1 1 1m56 1c-1-1 2-2 0 0m-52-1c-2 1 6 3 2 3m19-3 1 1m9 4c-2-3 3-7 3-3-1 3-3 3-5 5-1-2 2-1 0-1m5-6h0m10 0h0m-45 0h0m41 0v1m-50 0c-2-1 2-1 0 0h0m1-1h0m4 0-1 2m51-2v0m-56 0h1m32 0c5 4-1 6-1 2l2 2m29-4v1m-61 0v-1m60 0c0 1 2 2 0 3m-55-1c2-2-1-1 2-1m10-1v1m-12 0h0m-5 0h1m77 1c-4 2-2-2 0-1v1m-18-1c-1 1-1 2 1 2m1-2h0-1m13 0h1m-74 0-2 3m9-3c-1 1 2 1 1 1m-9-1v0m47 0s6 4 2 5l-2-4m33 0c-2 0-1-2 0 0m-76-1h0v1m17-1v1h0m46-1v2m-62-2v1h0m42 0s0 0 0 0m7 0c3 0-1 1 0 0zm28 0h0m-82 0h0m3 0h0m74 0h1m-64 0c-1 1 5 2 3 5-2 1 5 2 1 2v-1m-13-6h0m20 0h0m-18 0h0m60 0 1 1m-65-1v1m56-1h-1zm-44 0h1m-9 0c-1 0-1-1 0 0m-6 1c0-1 2 3-1 2 0 0 0 1 0 0m5-3-2 2m3-2h0m32 0v0m-33 0h0m5 0 1 1h0m34 3c-3 5-3-3 0-4h2m10 2c-1-2 2-2 1 0m-63 2c1 1 5 0 3-3h2m5-1h0m1 0h0m-5 0v1m26 1c-3 3 4 1 0-1-1-2 0 1 0 0m42 2c0-3 1-3 2-1m3-1c0-2 1 0-1 1m-71-2 1 1h0m3-1v1m55-1v1m5 0v-1m-66 1h1m27 0c1 2 7 8 7 6m-33-6h0m4 0h0m40 0c-1 2 3 4 2 6m18-6h0m-49 1c-1-2 6 2 1 2v-2m48-1c1 1-3 6 1 3 2 1 0-1 2-2m-71-1h0m29 0 1 1m35 0 3-1m18 0h1m-79 0c-2 2-1 2 0 4m47-4c2 0-1 1 0 0m-36 0h0m14 0h0m4 0c1 4-2 1 0 0m31 0h1m16 0v0m-17 0c-1 2-4 2-4 2h0m-60-1v-1 1m4-1v2m16-1c0 5-4-3 0 0m45-1h0m-55 0 1 3m-10-2h0m4 0h4m74 0c-4 1-1 1 1 3-2-1-6 1-4 3l2-2m-81-4h0m5 0h0m69 0c3 1-4 2 0 0zm-78 0c1 0 0 0 0 0m59 0h-1m-52 0v0m75 0c4 0-1 2 0 0m-58 0h0m29 0c2 0-1 2 0 0zm-45 0h1m15 0h0m4 0v0m12 1h2m15-1c3 4-2 2 0 0m-48 0-1 1m57-1-1 1m4 0v-1h0m-66 0v1m55-1h0m-54 0h1m20 0v1m44 0v-1m-2 0v1h0m11-1c2 2-3 2 0 0m-71 1h1m2 0h3m6 0c-2 0 0 2 0 0m15 0c2 0 3 1 3 2m32-2s-1-1 0 0m-66 0h0m2 0c1 1-1 0 0 0zm2 0h1m-5 0h1m20 0h1m-22 0h0m1 0h1m51 0c3 0 0 3 1 2m-54-2c-1 2-1 0 0 0zm1 0h0m9 0h2m23 0v1h0m-33-1c2 1 6 8 2 3 0 1 1 4-2 2v-1m3-4h0m0 0v1m5-1v1m15 1c-5 1 1-4 0 0m55-1c-4 3-4-2 0 0m-53 0h0m45 0c2 0-1 1 0 0zm-45 0v0m-22 0h0m38 0h0m10 0v1m-40-1c3 0 1 3 2 2h0m3-2h1m37 0h0m-57 0h-1m53 0c4 2-2 3 0 0zm-56 0h0m12 0 2 1m-2-1v0m24 1c2 1 2 6-1 3-1-1-3-6 1-3zm-21-1 2 1m1-1c2 2-2 2-1 4m47-4h3c2 0 2 2 3 1m6-1h1m0 0h1m-70 0h0m7 2v-2m50 0v1h0m20-1h0m-39 2c-1-1 2-2 0 0h0m-46-1c2 1 1 2 0 2m12-2s0 0 0 0m-17 0h1m9 1c1-3 2 1 3 1m3-2h1m-1 0h0m71 0h1m-33 0 2 2m-56-2c2 0 5 6 0 4h-2m8-4v3m63-3h0m4 0h1m12 0h0m-19 2c-2 1 3 0 1-2m-69 0 2 4m11-4h1m8 0 1 1m5 0c2-3 3 2 2 4m14-5v2m44-2h-1m1 0c6 0-3 7-1 0m-77 0h0m53 0h1m-41 0-2 2m43-2h0v1m7-1v1m-52-1h1m11 1c1-3 3 4 3 0 2 0-2 9-3 3v-2m45-2h0m-56 0v1h-1m29-1v2m23-1h-1 0m-48 0h0m48 0h0m1 0h0m14 2c0-6 3 0 0 0zm-24-1c-1 3-3-3-1-1m10 1c1 0 2-2 4-1m-74 0h0m10 0c1 0 2 1 1 2m33-2h0m-43 0h0m20 0h0m4 0c2 1 4 6 6 5l-1-1h0m5-4h0m14 2c-3 7 0-6 1 0 0 2-2-1 0-1m-40 0c-1-2 1 5 1 1m-4 0c1 1 1-2 2-2m0 0h0m-2 0h0m24 0v1h0m52-1c3 1-2 2 0 0zm-63 1c-3 0-1-2 0 0m-8 0 1-1m10 0 1 2m5-2h1m-17 1h0m4 0c2 0-1 1 0 0zm4 0h1m79 0c2 3-9 2-3 3h0m-95-3h0m10 0h0m8 0h1m-10 0v0zm25 0c-1-2 1 3 1 1m58-1c1 2 3 0 5 0m-46 0c1 2-4 3-2 0h2zm26 0c1 0-1 1 0 0zm-45 0v0m-35 1c-2 0 0-2 0-1m23 1 2-1m10 5v-5s0 0 0 0m14 0c2-1 0 5-1 2m-43-2c1 1-1 2-2 1m33-1h0m59 0h-2m-69 0h1m24 0h0m9 0h0m9 1 2-1m-66 2c-2-1-2-3 0-1m12-1h0m10 0v2m41-2 1 1m-59 0h1m35 0s0 1 0 0m24 0h0m-35 0h0m35 0h-1 0m-46 0h0m12 0h0m11 0v1m0-1h0m13 0c1 3-6 5-3 1l2-1m-22 0h0m-27 0h0m26 0h0m0 0h0m51 0h0m-63 0 2 2m6-2h0m36 0c-1 1 1 0 1 1m18-1h0m-27 2c0-4 6 0 1 0-1 0 0 0 0 0m-59-1 1-1h0m59 0v1m17 0c2-2 4 2 0 0m17-1h0m-72 0v1h0m8-1h0m49 1c4-1 6 2 2 2l-1-2m10-1v1m4-1c5 2-7 3-2 1h2m-56 0c0 2 2 3 0 5 0 2-3-1 0 0m12-5h0m-24 0c2 0-1 2 1 1m18-1s0 0 0 0m0 0c1 1-1 2 0 0m22 0s0 0 0 0m-32 0h0m-36 0h0m2 0v0m22 0h0m18 0c-1 2 3 1 1 3-1 3 3-1 1 3-1 2 1 1 1 1m21-7v1m14-1h0m-12 0-1 1h0m-52-1h0m36 0s-1 0 0 0m-26 0v0m19 0c2 0 1 5 2 5m5-4v-1m-48 0h0m2 0-1 1m86-1v1m-79-1h0m17 0-1 1m47 0c2-2 4 3 0 1-4 1 0-1 0-1m17 0h-1m-65 0h1m25 0h0m16 0h0m7 0h1m-69 0c1-1 1 2-2 2l-3 1m20-3c3-1 2 1-1 1v-1m6 0c1 1-4 0 0 1h0m-17-1c-1 0 1 0 0 0m0 0c3 0-1 2-1 1m67-1h0m21 0h2m-93 0h0m23 0h0m22 0h1m-27 0h1m27 0c3 2-2 3 0 0zm-44 1v-1h1m39 0h1m17 0h1m32 0c4 1-5 0-2 3-2 0-4-1-1 1-2 0-5-1-6 2m-76-5c2-2 3 0 5 0m7-1h1m55 0h0m-70 0h1m14 0h0m-11 1v-1h1m0 0h0m49 0h0m14 1c-4 2-3-2 0 0m19-1h1m-88 0v0m-1 0v1h0m76 1c-1 1-1-3 1-1 5-1-2 8-3 5m-22-5c-1 1-6 2-3 0h4m9 0h0m-64 0h1m6 0h0m20 0c0 5-3 1-1 0m-6 0c-1 2 1-2 1 1m6-1h0m-7 0h0m36 0h0m-55 0h0m21 0h0m29 0h0m-42 0s-1 1 0 0m8 0 2 1m-1-1c1-1 1 0 1 1m-15-1c1 2 1 0 1 0m58 0s0 0 0 0m-59 1c1 1 3-2 4 0m0-1h1m10 0h0m55 4c-4-3-1-4 1-1l-2 2m15-5v0m-102 0c-1 1 3 1 3 2m17-1v-1m13 0h0m3 0v1m-35 2c0 1 3 0 0-1l-1-1m12 0c2 1 5-2 4 2v2m4-4h0m48 0h0m-34 0h1m12 0h1m28 0c-2 1 1-1 0 0m-57 0h0m2 0h4m-9 0h1m72 0c3 0-2 2 0 0m-70 0h0m36 4c-3-2 3-6 1-2-2 1-3 6-2 3m12-5h0m-54 0h0m85 1c-3 0 1-2 0 1m-74-2h0m10 0c-1 0-1 0 0 0m48 2c3-4 6 1 0 1h0l-1 1m-38-4s0 1 0 0m36 0c3-1 0 4-1 4h0m-76-4v1m6 0c1 1 3-1 5-1m4 0h1m0 0h0m60 0c2 0-2 2-1 2m27-2c5 0 3 3-1 1m-69-1c4 3-4 1-1 0h0m0 0h0m60 0c2 1-3 2-1 4h-1m-76-4h1m10 0 2 1m16 0h1m27 0h3m3 0v-1m-66 1v-1m6 0v3m16-3-1 1h0m41 0h0m-54 0h1m22 0h0m18 1c-1 0 5-2 2 1 1 4-3 6-5 7 3 1-2 3 2 2 1 2 0 2-1 2m18-13c1 0-1 0 0 0m-58 0h1m-1 0h0m3 0h-1 0m56 0v0m-76 0h0m26 0h0m39 1c-1 1 0-2 3-1 0 0 0 0 0 0m11 0h1m-8 0h1m-70 0h0m35 1c-2-2 2 1 1 0h0m2-1-1 1m-37-1 2 1m3-1h0m19 0 3 1m-23-1h0m25 0h0m9 0v1m27-1-3 1m9-1h1m1 0h0m-38 2c1 4-3 2-3-1 1-1 3 1 2 1m36-1h0l1-1m6 0h1m-58 4c0 1-1-6 1-2-2 2 3 6 1 4m8-5h0m40 0c-1 0 0-1 0 0m0-1v1m12-1h1m-25 1h-1m12 0h1m5 0h1m-12 0h1m13 0h-1 0m-61 1c-2 2 2-3 1 1h1m12-2h0m8 0v0m24 0h1m1 0h0m13 0h0m-22 0h2m18 0c-1 0 0 0 0 0m-27 0v3m25-3h1m-23 0h0m17 0c1 0-1 0 0 0zm1 0h0m5 0h1m0 0h0m6 0h0m-67 0h0m5 1v-1m8 0s0 1 0 0m8 0c0 1 3 2 2 0m-19 0h0m1 0v0m17 0h0m39 0v0m-56 0v1h0m18-1h0-1m35 0s-1 1 0 0m3 0h0m3 0v1m-79-1h0m4 0c0 1 0 0 0 0zm0 0c1 1 4 0 3 1m16-1v1m47-1h1-1m2 0s0 1 0 0m4 0h0m-75 2c0-1-4 0-1-2m69 1v-1h1m1 0h-1m1 0h1m1 0c2 0-1 2 0 2m-69-2-1 1m8 2c0 1-2-4 1-1 3 1 1-3 3-1m5-1v1h0m9-1c5 1 0 7 4 5m38-5h0m-64 1h1-1m65 0h0l1-1m-3 2c1 1-2 0-1-1m8 0h0m-69 0h2m26 0h1m20 0c-2 3 7-1 1 3-4 2 4 2 0 0h0m11-3h0m-64 0h0m71 1c-1-1 0-1 1-1m-39 0h-1m-15 0h0m67 0h0m-82 0h0m34 1c-1 2-2-2 0 0m9-1h0m10 1v-1h1m-44 0v0m2 0h0m6 1c1-3 5 4 1 1l1-1m-27-1h0m16 0v1m2-1 1 1m3-1v1m-23-1v1h0m19-1-1 1h0m2-1h0m9 2c0-3 2 0 0 1m50-3h0m-79 1h0m19 0h0m26 0c0-1 1 0 0 0zm9 0h0m19 0s1 0 0 0m-71 0c0 1 3-1 2 2m91-2c3 0 4 1 6 3h1m-91-3c-1 0-1 0 0 0zm3 0h0m49 3 3-3m-17 0s-1 0 0 0m23 0s0 0 0 0m2 0h0m2 0c-4 3-1-1 0 0m-68 1c1 1 2 0 2-1m36 0h-1m27 0h1m-47 0h1m43 1c-3 4-1-3 0 0m1-1h0m-58 0v0m1 0v0m5 0h-2m52 0h0m-61 1 2-1m11 0 1 1m21 0h1m-14-1 2 1m6-1c2 0 1 2 2 2m10-2h1m13 2c-1-1 0-2 1-2m-59 0h0m11 0v1m17 0v-1m5 0v1m-20-1v1m45-1 1 1m4-1h0m7 0h0m18 0c3 2-2 1 0 0zm-87 1c-3 1-2-2 0 0m15 0v1m-17-1h0m5 0h2m27 0h0m11 0h0l-1 1m36-1c1 2-5 0 0 0m2 0c5-1-1 3-1 0 1 0 0 0 0 0m-61 1c-1-2 1-2 1 0m8-1v2m5-2h1m36 0h-1m-51 0h0m3 0h0m6 0h0m5 0 1 3m11-3h0m20 0h1m-37 0 1 3m16-3h0m0 0v0m-22 0h0m15 0c2 1-1 2 0 1m49-1h1m-90 0h0m8 0 2 1m12-1 2 1m16-1h0m-38 0h0m22 0h0m21 1 1-1h0m50 0h0m-78 0v1m11-1h0m18 0h0m-48 0c-2 0 1 0 1 1m45 0v-1h0m-46 0h0m7 1c0 2 0-1 2-1m10 0v1m24-1c4 2 0 4 0 0m5 0v2m33-2h0m-84 0 2 1m25 0v-1 1m2-1h0m22 0h0m-11 0v1m3-1v1m37 0c1-1 1 1 0 0m-79 0h1m1 0h-1m5 0h-1 0m34 0h2m55 0c2 1-2 1 0 0m-68 0h1m8 0c-1 0 0 0 0 0m2 0h0m10 0h1m3 0h0m9 0h1m-50 0-3 1m26-1h1m3 0v0m27 0c1 0 0 0 0 0m12 0h0m10 2c0-3 6-3 2 0-3-1-1 3-2 1h0m-71-3c-2 2-5 0-1 0h1l1 1m31-1h0m12 0v1m1-1h0m14 1c-1-1 0-1 2-1m-59 0h1m8 0c1-1 2 2 0 1m7-1h0m31 0h0m-31 0h0m17 4c1 0 1-4 4-4m-57 0c0 2 3 1 4 1m23-1v1m52-1-2 1m-77 0c-2 1-2-1 0-1m9 0h0m41 0h0v1m49 0h1m-72-1h0m13 0c2 1 1 5 1 3m-14-2h0m45 1c1-1 4-2 3 0m-59-1h0m13 0h0m11 0v0m-32 0-3 1c-1 2-5 1-1 1m23-2h0m18 0h0v0m-48 0h0m32 0c1 1-1 1 0 0m-21 0 7 2m30-2h1m55 0c0 2-1-1 0 0l1 1m-73-1h1m41 0c2-1 1 3-1 2m-72-2h0m38 0v1m2-1-2 1m8-1h1m56 0v1-1m-98 0c1 1 1 0 0 0m1 0c1 0 0 1 0 0zm19 0h0m6 0h0m44 0 1 1m-66-1h0m29 0h0l1 1m61 0c3 1-8 0 0-1m1 0h0m-97 0v1m1-1v1h1m15 0h1c6 3-3 1-3 3m19-4v1m34-1-1 1h0m2-1v1m1-1v1m14 1c-5 3-3-4 0 0m-72 0c0-2 3-1 4-1m18-1v1m6 0c3 0 0 4 0 0zm11-1v1m46-1v1m-83 0h0m1 0h1m6 0c3 1-1 1 0 0zm11 0h0m5 0h0m-5 0v0m36 0h1m1 0h0m27 0c2 1 9 0 3 2-4-1-3 1-1 2 0 0 2-1 0-1m-84-3h0m10 0h1m67 0v0m4 0h0m-84 0h0m56 0h1m28 0h0m-70 0h0m-27 0v0m90 0h1m-78 0h0m19 0h0m9 0c2 2-1 2 0 0h0zm43 0v1m11 0 2-1m-1 0h0m-86 0h0m3 0v1m51-1h1m-1 0h1m-34 0 1 1m-17-1h0m-2 0h0m1 0h1m51 1h1m-3 0v-1m-48 0v1m-2 0h2m48 0h1m-43 0c1 0-2 0 0 0m18 0h1m-43 0h0m24 0c3 0 9 2 8 4h-3m14-4h1m-31 0h0m1 0v0m52 0h0m-43 0h0m12 0c-1-1 1 5 1 1h1m41-1c5-1 0 3 0 0m-70 3c0 1 3 1 0-1-5-4 4 1 3-1h0m2-1v0m4 0h-1m-17 0h0m2 0h0m36 0h-1m31 0v0m10 0c-3 0-3 5 0 1h0v-1m-53 0c1 1 1 1 0 0m-25 0h0m15 0h0m2 0h0m19 0-1 1h0m-19-1v1h0m50 2c-3-2 2-4 2-1l-2 1m-59-3v1h0m31-1v1h0m-22-1v1m0 0v0m19 0h0m62 0c2 2-3 0 0 0h0m-71 0 3 3m8-3h1m56 0c3 0-2 2 0 0m-56 0v2m29-2h0m-29 0h0m15 0h0m2 1c3-3 1 2 0-1m-47 0h0m10 0h0m19 0h1m-15 0c3 0 5 4 1 2l-1-2zm28 0h0m4 0h0m-5 0h0m-26 0h0m65 0c3 3-7 1 0 0h0m-51 0c4 2-1 5 0 2m0-2v1h0m13-1v2m-35-1c-1 1 2 0 3 2h1m54-2c0 2-3 0 0 0m-37 0h0m69 1c-3 0 2-1 0 1 2-1 4-4 4 0 2 1 2 3-2 3-6 2 2 3 4 1 1 0 4-1 1 1 0 1-3 2 0 1m-100-8c2 2-1 4-2 3-2 2-2-1-3-1m53 0c3-5 5 2 0 1 2 1-1 2-2 3m36-6v0m-76 1c-1-1 2-1 2-1m20 0c1 0 4 3 3 5m29-5v1m11 1c-4-1 3-3 0 0 1 3 2 0 0 0m-63-2v1h0m86-1h0m-66 0c1 1 0 7 2 4m37-3c2-2 2 2 0 0zm-64-1v1m67-1h0m-27 1h-1m-34 0-1 1m36-1h-1m-38 0h1m55 0v0m-57 0v0m-4 0 1 2m3-2h-1m77 0h0m10 0h-1m-67 0c1 0 2 0 1 1m34 0c1 0 1-2 2-1m-68 0c2-1 0 5 3 3v-2m44-1v1m17-1c1-1 2 1 0 1m35-1h0m-67 0c-1 1 2 2 0 1m35-1h1m-36 0h0m-32 0c-1 5-4 2-6 0-1 2-1 0 0 0m15 0v2m67-2h1m25 0-2 1m-93-1v1m0-1v1m8-1c-2 1 0 1 0 1m53-1h0m21 1c2-1 2 1 0 0m-100 0h1m17-1h0m41 0c-1 2 0 4 1 3m18-3v1l1-1m6 1c5 1-5 2 0 0m32-1h0m-100 1h1m22 0h1m5 0h0m32 0h0m25 0c3 0-1 1 0 0zm-103 0h0m27 0c0 1-3 2 1 3 0 0 1-1 0 0m31-3h0m-58 0h2m21 0h1m4 0h1m-26 0c1 1 0 0-1 1m38-1h0m3 0h0m52 0c4 2-4 2 0 0m-96 0s1 0 0 0m19 0c-1 0 0 1 0 0m-5 0v1m49-1h0v1m-57-1h0m8 0h0m12 0v1m1-1v1m1-1h0m41 1c-1-1 0-1 0 0m22 0c-2 2-6-1-1-1l2 1m-90-1h0m40 0h0-1m6 0 1 3m-21-2 1-1h0m16 0-1 1m55-1c2 1 8 2 4 3 0-1-2 0-2-2m-99-1v1h0m5-1v1m24-1v2m39-2c-2 1-1 2-2 4m-66-3h0m17 0h1m41 1c1-2 1-2 2-1m36 0h1m-95 0h-1 0m21 0-3 1m61-1c0 2-3 0 0 0m-65 0h-1m-14 0c-1-1 2 1 0 1m17-1h0m5 0h1-1m11 0c1 2 3 0 0 0m-34 0h1m39 0c4 5-6-1 0 0zm28 0h0m-57 0h0m4 0h-1m105 0h0m-95 0h-1m2 0h0m22 3-1-3m5 0h0m-31 0h1m84 0c2 0-1 2 0 0m-92 0h0m10 0v0m8 1c1-1 4 4 1 2 0 1 2 2 1 4m-12-7h0m19 0h0m-39 0 1 1m1-1 1 1m19-1v1m44-1h0m9 1c-3 1-1-2 0 0m-74 0h1m1-1-1 1h0m22-1-1 1m16-1v1m-38 0h1m20 0h1m7 0-4 2m11-2h1m-37 0h0m0 0h0m12 0h1m8 0h0m75 0c2 2-1 1-2 1m-94-1h0m7 0h1m15 0h-1 0m5 0s-1 0 0 0m-5 0h0m0 0v0m44 0h0m-43 0v0m12 0 2 2m35-2h0m18 0c3 0 2 3 0 0m-89 0h0m25 1v-1m17 1c2 4-3-2-1 0h0m-16-1h0m0 0h0m11 2c-1 1-4-1-3-2m22 0v0m28 2c-2-3 9-1 3-1l-2 1m9-1 2-1m-59 0h1m10 0c0 2 1 5 3 4-2-1 0-2-1-4m-48 1-1 2m14-2h-1m6 0s0 0 0 0zm-1 1c-1 0-2-1 1-1m0 0v1m-22 3c5 2 5-7 10-3 3-1 8 2 9 0h-1m4-1h0m2 0 2 1m12-1h-1m47 0c2 1-2 1 0 0m-5 1c-4-1 5-1 0 0 0 0 0 0 0 0m-12-1h1m-62 0h0m19 0h1m2 0h1m30 0s0 1 0 0zm0 0c0 3-2 1-1 0m-31 1h0m-3 2s-3-2 0-2m19 2c-3-1-1-4 0 0m24-2h-1 1m-41 0h0m34 0c2 1-2 2 0 0zm-38 0h-1m39 0h1m5 0h0m7 1c-2 0 1-1 0 0m-52-1h0m15 0c2 2 0 2 0 2m30-2h0m33 0c1-1 1 2 0 0zm-29 0c2 1-1 1 0 0zm2 1v-1h0m-46 0h0m6 0v1m7-1v1m13-1v1m20 0v-1h0m1 0v1m26 0c-3 3-5-1 0-1m-67 0v1m86-1 1 1h0m-85-1s3 2 1 2m48 1c1-1 7-3 10-2-3 2-5 2-8 2l-5 1m-65-3h0m-12 0c1 1-2 1-2 2m17-2h0m20 0h0m10 0h0m-30 1c-1 0 4-2 3 0h0m18-1h0m84 0c-1 1-2 5 0 3m-111-2c1 3-5-2 0 0l3-1m43 0s0 0 0 0m38 0h0m23 0v0m-104 0c-1 2-1 2-2 1m45-1h0m-40 0v1m5-1h0m13 0v1m83-1h0m-96 0v1m37-1v1m-28 0c-1 4-6 0-8 0m79 0c-2 0-5 4-5 1 1-1 3-2 5-1m10 0c0-1 0 2-3 0m-64 0c0 1 5 7 2 4m23-4c0-1 1 2-2 0m53 2c-2-1-1-2 0-2m-101 0h0m-4 0h1m4 0c4 0-2 2 0 1m48-1h0m7 0c-3 2 6-1 6 1m29 0v-1m-76 0v0m38 0c-3 1 5 6 2 1m-62-1h0m11 0h0m85 0h2m-75 0c2 2-4 1-3 1m12-1c2 0 3 2 2 3m54-3v0m-28 0h-1m1 0 2 1m-1-1h0m37 0v1m-85-1v1m23-1 1 1m-1-1 1 1m29-1h1m39 0v1h1m-107-1v1m46 0c-1 0-1 0 0 0zm-21 0h1m12 0h0m-21 0h0m8 0s0 1 0 0m13 0h0m1 0h-1v1m-38-1v0m24 0h-1m40 0h-1m45 0h1m-99 0c3-1 6 6 2 2v-1m12-1h1m14 0c1 0 0 0 0 0m8 0c1 1-3 2-2 3m1-3v1h1m0-1h0v1m-8-1h0m26 0c-1 1 0 2 1 1m-55-1v0m27 0v1h1m6 2c-1-2 0-3 1-2m-37-1-1 1h0m4-1h0m8 0 1 1m17-1h0m-28 1h0m-5 0c-2 0 7 6 3 1m46 2c-6 3 0-7 3-2-2 3-4 7-7 9h0m-29-10h1m16 0h0m44 0c4 0-2 2 0 0m10 1c3-3 6 1 1 0h-1m-99 6c-3 1-4-1-1-1l5-3c-1-3 4 5 4 0 4 0 1-4 4-2m41-1v1m-32-1 1 1m6-1h0m59 0c2 4-9 1-3 1l3-1zm17 1c4-3 5 1 0 0zm-76-1c-1 0 0 0 0 0m4 0h0m2 0c4 1-1 3 0 0m-22 0v0m17 2c2 3-7-3-2-2m83 0h2m-91 0h0v1m11-1h0m58 0h0m-70 0h0m2 0v1m9-1h1m-32 0c4 0-1 4 0 0m29 0h2m1 0v2h0m-15-2c1 1 0 3-2 1m5-1h0m7 0h1m-11 0v0m0 0v0m92 0h0m2 0-1 1m-80-1h0m1 0v1-1m-13 0 1 1m13-1v1m-11 0h1m0 0h0m8 0h0m87 0h0m0 0c0 2-5 0-6 0m-103 1c-3 0 0-3 0 1m13-2h0m32 0h0m51 0h0m7 0c-3 2 6 2 0 2h-3m-89-2c1 0 1 0 0 0m54 1c3-2 12-1 5 1-1-1-4 1-5-1m-58-1h1m75 0c3 0 0 2 0 0zm-68 0h0m55 0h0m20 0h0m-96 0v2m0-2 1 1v1m26-1c-1-2 2 1 3 0m32 3c0-4 5-4 4-2l-4 2m-36-4h1m3 1h2m-43 2c0 2-2-3 1-1 3 4 1-2 4 2 2-1-2-5 2-2 1-2 3 0 2 2m103-3c2 0-1 2 0 0m-102 0h0m15 0h0m27 0h-1m-26 0h0m17 0h0m1 0c2 1 1 3-1 1m0-1v0m38 0c2 1-2 1 0 0zm-60 0c2 0 0 2 0 0zm-4 0 1 1m20-1v1m84 4c4 0 1-3-2-2-1 0-7 0-5-2 1 2 2-1 3 0m-117 0h0m28 0c1 2-4 0 0 0h0m94 0c3-1 3 2 0 1m-105-1h0m50 0h0m38 0c3 2-4 1 0 0m-72 0c7 3-2 2 0 0zm11 0v1m65 0c-6-2 6 2 0 0h0m-56 1c-1-3 2-1 1 0m62-1h0m-117 0h0m68 0h0m-68 0v0m70 0h-1 0m2 0c1 1-3 1-2 1m-61 1s-1-4 2-1m44-1h0m1 0h0m63 0h0m-118 0h0m19 1 2-1m10 0c6 1-2 4 0 0m24 0h0m47 0h0m-102 0h0m23 1c5-2 3 1 0 1h-3m82-2 1 1m0-1v1m-69 0h-1m1 0h-1m45 0c1 2-9 4-3 0h3m-77 0h1m22 0h0m31 0h1m11 1 2-1m34 0h0m9 0h0m-58 0h1m0 0h0m48 0c1 3 6 2 6 6m-6-6c1-2 7 3 4 1m-72-1h1m34 0h0m32 3s-9-1-5-3c1 3 2-2 5 1 1 1 2 2 3 1m-20-1c3-2 2 1-1 0m-61-1h0m5 1c-2-3 6 2 1 1l-1-1h1m7-1v0m-36 0h1m15 0c3 1 4 3 0 1v-1m4 1h2m86 0c2-3 3 5 4 0 4 1 7 3 9 7m-7-8 1 1m-37-1h1m6 0 1 1h-1m38-1h0m-123 2c1-1-2 0 0-2m51 1c3 0 0 2 0 0zm45-1c-2 3-6-1-8 2l1 1m-14-2h0m-48 0h1m-19 0h0m47 0s0 0 0 0m11 0h0m-66 0s1 1-1 1h-1m32-1v0m25 0h0zm0 0h0m60 0h1m-100 0h0m32 0c3 1-1 3 0 0zm-49 0s1 0 0 0m116 0h0-1m3 0c3 0 0 3 0 0m-119 0h0m57 0v1m0-1h1m10 0c-1 2 2 3-2 3-1 1 2 0 2 1m-67-4v1m0-1v1m37-1h0m19 0h0m39 0c3 4 9 3 13 3h0m-109-3h1m1 0v1m1-1h0m7 0v1h1m8-1v1m24 1c-2 1-4-3-1-1l1 1m15-2v1h0m14 0h0m51 0h2m-124 0v0m19 0h-1m69 0h1m-87 0h-1 0m34 0c1 0 4 1 3 2m20-2h0m66 0h0m-124 0h0m84 1c-2 1-8 0-3-1h4m40 0-1 1m-123-1h0m22 1c4-2 3 2-1 0m10-1c-1 2-5 0-2 3h4m9-3c2 0 2 3 0 0zm15 0h0m31 0h1m32 0c-1 3 5 2 4 4h1m-127-4h1m33 0h1m53 0h0m19 0c-1 2-3 0-4 1m19-1h1m-79 0h-1m-43 0h0m1 0v0m113 0c0 3 5 0 2 3-1 1-5 0-5 2v1m14-6h-1m-121 1c1-1 8 0 8 2-1 3-7 4-7 3s6 0 2-2m7-4c2 0-1 2 0 0zm-12 1h1m30-1c1 1 6 4 6 2m51-2v1m16-1v1m-102-1-1 1m0 0h0m33 0 2 1m-36-1h0m2 0h0m51 1c-1-3 3-1 0 0m36-1c3 3 7 1 9 3h3m-70-3h0m82 0c1 3-4 1-2 2m12-2h0m-79 0h1m41 3c0-1 0-5 2-2 0 3-1 3-2 2m-11-2c2-2 1 1 0 0m-43-1h0v1m25-1v1m-3 0v-1m12 1h0m20 0s1-1 0 0m-20 0h0m43 0h2m-68 0c3 1-1 1 0 0zm48 0c-3 0-2 3 0 2l5 2h0m-81-4c2 0 1 2 0 0m-1 0c1 0 0 1 0 0zm0 0h1m77 0 1 1m15-1h0m3 0h0m-102 2 5-2m21 0-2 1m5-1v1h0m18 1c-2 1-2-3 0-1m29-1v1l1 1m25-2v1h0m-82 1c-5 0-1-3 0 0 0 0 1 0 0 0m57 0c-3 1-5-2-1-1m8-1v1m-39 0h0m-39 2c1 2 4-4 6-2m49 0h1m54 0h0m-2 2c-1 0-4-4 0-1h3m-111 2c-3 0-5 2-7 4 0-2-7 3-4-1l12-6m5 0 7 3m18-3c2 0 3 5 0 2l-1-2m37 0h0m-37 0h1m62 0c-1 0-8 4-8 1m-7-1c1 1 4 0 3 3m12-3h1m-99 0v1m46-1v1m68-1h0v1m-38-1h0m0 0v1m-4 2c-2 1-5 3-6 0-1 2-3-3 1-2 1-1 8 1 5 2m28-3v1m-100 0h0m116 0h0m-70 0v0m-6 1c-2-4 1 2 0 0m14 0c1-4 1 2 0 0m62-1h0m-1 0h0m-119 0h2m29 0c-3 2 5-2 4 2m46-2v0m39 0h1m-98 0h0-1m1 0h0m81 0h0m-60 0h0m-15 1c-4 1 0-2 1 0v0m51-1h-1 0m29 1c4-2 2 1 3 2 1 0 1-2 2 0m-21-3h0m12 0h0m-92 1s-1-1 0 0zm88 0c3 0-6 0-1 2v-1m-85 3c-1-2-4-3-3-4m14 0h1m13 0h0m63 0h0m-59 0h0m-31 0c1 3 3-2 3 3 1 0 4 1 2-1h0l1 1m12-3h4m35 1c-1-1 2-2 1 0m23-1h0m-90 0h1m105 0c0 3-4-1-5 1m-60-1h0m49 0h0m7 0h0l-1 1m2-1v1h0m-57-1v0m49 3c-2-2 5 2 1-1 2-5 5 5 5-1m-78 0h8m87 0c4 0 1 1-1 1m-22-1v1m0-1h0m-3 0 2 1m-21 0c1-2 1 0 0 0m9 0c-2 0-3 4-3 0 0-1 4-2 3 1m-84-2h-1m1 0v0m0 0h1m0 0h1m100 0h-1l1 1m-23-1h0m7 2c2 3-4 2-1-1 1-3 10 2 5 2 0 0 1 2-1 2m30-5h0m-119 0v0m47 0v0m28 0 1 1m26-1h0v1m-32 0c2-3 2 2-1 1m29-1c-1 1-2-1-1-1m11 0h0m11 0h0M47 170c1-1-5-3-1-3 3 2 5-4 8-4s3-1 4-3c3 2 2 3 1 5 1 0 3-1 1-2m8-2c-2 0 2-2 2 1l2 3m6-5c2 1 7 2 2 2-2 0-7-1-5 1v-1h0m64-2h0m14 0 2 2m9-2h0m-41 0h0m16 0c0 2-1 2-2 2m3-2 1 1m8-1h0m-1 1h1m-37 0c-2 2-2-2 1 0m25 0h0m5 0s1-1 0 0m10 0h-5m16 0h1m-42 0h0m23 0h0m1 0h1m1 0h0m13 0c-1 0 1 1 0 0m5 0c2 2-1 0 0 2m-99-2 1 1m-1-1h-1m24 0c3 1-1 1 0 0m-26 0v0m45 0c1 2-3 0 0 0m33 0h1v1m-20-1c3 5-5 1 0 0m13 0h0v1m23-1h0m-92 0c-2 1 2 3 1 1m16 1c2 2-2-4 3-1 3 1 1 4 1 5v-1m33-5h0m-55 0v1h1m68-1v1l-1 1m25-2h0m7 0v1m-5 0h0m3 0h-3m-8 0c0 3-3 2-4 1l1 1m4-2h0m8 0h0m-8 0h0m5 0h0m5 0h1m-51 0h0m32 0h-1 1m17 0h0m-1 0h0m-89 0h0m-7 0h0m9 0-1 1m20 2c-4-2 0-5 0 0zm61-3c-3 1 1 4-1 3m-95-3h0m2 0-2 1m95 0c3-2 3 0 2 2 2 1 0-1 0 0m3-2h2m-93-1 1 1h0m76-1c0 2 3 2 0 1m-6 0h-1m1 0h1m15 0h1m-96 0h0m14 0h1m79 0h0m8 11c0 4 5 2 1 0s6-2 1-3c-2-2 5-2 0-3 0-1 3-2 1-2l1-3m-111 0h0-1m6 0h0m71 0h2m0 0h1m1 0h0m-85 0h0m2 0h0m85 0c1 1-1 1 0 0zm2 0v2m15-2h0m7 0h-1m5 1 1-1m-96 1 3-1m78 0h-1m-11 0c1 2 3 1 4 0m-17 0v0m33 0h0m-5 0h1m-76 0c1 2 1 0 2 0m37 1c1-2 1 1 0 0zm37-1h0m-75 0h1m76 0h1m-23 0c0 1 0 2-1 1m-69 0c4 1 3 4-1 1-2-1 0-1 1-1m16 0h1m-21 0c4 0 0 2 0 0m8 0c3 4-4-1 0 0h0m86 0c0 1 0-1 0 0zm-95 0h1m81 0c1 3 3 1 4 0m9 0h1m-19 0h-2m2 0 2 1m15-1s-1 1 0 0m2 0h0m-74 0c3 1-2 3 0 1m12-1h0m52 0c2 3 1-1 3 0m-95 0c2 2-4 2 0 0zm34 2c-1 1-5-1-3-2m71 0h0m-6 0h0m6 0h0m-81 2c2-4 8 1 2 0h-1m14-2c5 0 3 5 0 0zm29 1c-2-1 7-1 2 2 0 1-2-2-1 0m35-3v1m-5-1c-1 2-2 1 0 2m-56-2h0m20 1h4m39-1-1 1m1 0h-1m-28 2c-4-2 2-3 0 0m26-2h0m-81 0c5 1-5 2 0 0m9 0v0m75 0h-1m-50 1c1-3 2 1-1 0m26-1c2-1 1 2 0 0zm19 0h1m1 0h0m-1 0h0m1 0 1 1m-44 0 1 1m15-2c1 2-2 0 0 0zm5 0h1m-79 1v-1h0m62 0c3 0 4 3 6 4-1 1 4-1 2-2m-28-1v0m-13 0h1m68 0h2m-8 0c3 0-2 2 0 0m-81 0c7 1-3 3-1 0h1m26 0c5 1-3 3-1 1m29-1h0m-32 1c-4 0 0-2 1 1l1-1m-1-1-1 1m2-1v1h1m63-1h1m-58 0c2 2-3 2 0 0zm26 0h0v1m9-1c4 2-3 4 0 1v-1m-9 0 2 1m40 0c2 0 0 1 0 0m-77 0h1m0 0c-2 3 2 0 0 1m2-1v0m56 0h0m-38 1c2-3 4 4 0 1v-1h-1m43 0c-3-2 2 0 1 0m-62-1v1m0-1h1m-39 0h2m35 0h1m29 1c-1-1 1-1 0 0m6 0h1m-45 3c-6 0 1-5 3-3-2 1 0 3-3 3m10-3h-1m35 0h1m4 0c-1 6-7-2 0 0m22 0h-1m-54 1c2-1 1-2 3 0m-11-1h0m25 0c2 1-1 2 0 0zm33 0c3-1 1 1 0 0m4 0h0m-18 1c4-3 4 2 0 0zm-14-1v1h0m-55 0c-4 1-1-2 2 0m4 0c-1 2-4-1 0 0m-1 0v0m26 0c2 0-1 1 0 0zm-25 0c4 0 0 3 1 0m23 0c-1 0-1 3-1 0m-33 0h0l-1 1m9-1h1m29 0h1m-46 1c-1 0 1-2 3 0m38-1h0v1m0-1h1m-1 0h0m14 0 4 3c1 3-6 2-4-2v-1m55 1c4-2 2 2 0 0m2-1h0v1m-103-1c-1 1 0 1 1 1m60-1h0m10 0h0m-51 0h0m3 0h0m1 0c-2 2-1 5 1 1h-1m-37-1c-1 1-4 2-1 4 2 2 4 0 6 1-2 3-11-1-7 2m40-7h0m-34 1h0m2 0h-2m16 0h1m14 0h0m-23 0h0m32 0h0m47 9c7-3-6-3 0-6 2 1 8-4 9 2 0-2 3-4 3 0 1 1 4 4 4 1-3 1-5-5-1-1 2-1-4-5 0-3h4c-3-5 4 1 5 2h1m-111-4h0m1 0h-1m0 0s-1 0 0 0m33 0c1 0 4 1 2 2m-34-2h0v1m21 0c0-3 2 3 1 1m33-2c2 0 0 2 0 0zm41 0c2 0 1 3 0 0zm-98 0h0m1 0h0m23 3s-2-2-1-3m-3 5c-4 2-8-1-8-4 4-1 8 2 10 3m25 0v-2 1m-15-2h0m48 0c-3 3-5-1 0 0m17 0c-3 2-2-2 1 0h0m11 0h1m-82 0h0m7 0c-4 2 4 3 2 1m43-1h0m35 0h1m-85 0h1m6 0c3 1 1 4 0 0m45 0c2 0-1 2 0 0zm-85 1c-4 1-1-2 1 0m23-1c1 3-3 0 0 0m52 1c2-2 2 2-1 0m-65 0c-3 4-5-2 1 0m14-1-1 1m59 0h-1m-80 0c1-2 4 2 0 0l1 1m76-1h0m-76 0v1m44-1c-1 3-5 0-1 0h1l1 1m15-1c1 0-1 1 0 0zm-52 1c2-3 4 3 0 0m53-1c3 0 0 2 0 0m-59 0c4 2-2 4 0 0m62 1c2 0 0 0 0 0m-19 0h0m-45 0h-1m5 0h0m-4 0h0m43 0h0m-8 0h1m-1 0h0m8 0h0m1 0s0 0 0 0m2 0h0m0 0h0v1m-10-1h0m3 0c4 2-2 2 0 0m25 0h0m-20 0c-1 1 1 1 1 1m-1-1v1m40 0c-1 0-1-1 0 0m-40 0h0m-23 0c4 3-2 1-3 0m14 2c-1-1-5 0-8-2h1m0 0c1 0 13 0 7 2m-8-2h0m53 3c-4 0-4-4 0-2 1-2 6-1 7 1 0 2 4-1 2 2m-61-4h0m19 0h0m-18 0h0m-19 0c1-1 5 3 6 2m31-2h1m-50 3 9-2c1 2 2-1 3-1m11 0 1 1m9-1h0m-2 0v1m28-1c2 0 2 3 0 1m41 0c1 0 0 1 0 0m-86 0h0m23 0h0m28 0c-3 2-4-1 0 0m-40 0h0m54 1v-1m-2 0h1m-39 0h1m49 0h1m14 0v1m-39 2 7-1c3-1 5-2 8 0h1m-82-1 1 1m39-1h0m36 0h0m-51 0 3 1m-2-1v1m-2 0v-1m-5 0h0m0 0h2m54 0h0m-54 1h1m3-1v1-1m-7 1h0m3 0h0m1 0h-1 0m-2 0v0m8 0h0m63 0s0 0 0 0m-56 1c0-2 2 0-1 0m12-1h-2m-21 0h1m1 0h-1 0m4 0c1 2-2 2-2 2m21-2h1m33 0s0 1 0 0m-58 0-1 1m1-1v0m5 3c1-3 3-3 5-2m6 1c0-2 3 0 4-2m5 0 1 1m1 0c3-1 3 7 3 10s-1 9-5 8h0v0m44-19-1 1h0m-51 0h0m9 0h1m-18 0h1m0 0 2 1m0-1h1m6 0h0m30 21-9-6c-1-4-3-10-1-13 2-2 3 2 4-2m-31 0h0m2 1 2-1m-4 1h1m-10 0h1m6 0h1m1 0h0m-8 0h0l1 1m-2-1v1m0-1v0m1 0h0-1m0 1h0m1 0h1m25 1v1h0m0 0v1m0 0v0m-1 6v1h1m-8 10c2 1-5 1 1-2l2-2m14 1c-4 2-3-3 0 0-1 1 1 0 0 0m-4-1h1m-6 1c1-1-2 4-3 2m3-3h0m0 0-3 2m13-2h1m0 1c0 2 0-2 1 0m-10 0 1 1h1m8-1h1m-4 0c2 0-1 1-1 1m-5-1v1m10-1h0m-2 0v1l1-1m-3 1h0m-5 0v1m-11 1 4-2m-5 0h0m12 0h0m9 0c1 0 4 1 3 2m-12-2h0m8 1 1-1m-9 1h0m6 0c0-1 0 2 2 1m-21-1s0 0 0 0m17 0h2m0 0h1v1m1-1s1 2 2 1m5-1c1 1 2 0 2 2m-14-2c0 1-1 0 0 0zm3 0h0m5 0c0 1 1 0 0 0m1 0v0m0 0h0m3 0h0m-22 0v0m1 1c1-3 3 2 4 1h0m2-2h1m2 0h0m9 0 4 2m-17-2c-1 1 2 1 0 2m5-2h0m-9 0h0m-2 0h0m-1 0 1 1v-1m10 1 2 1m2-2-1 1h0m-5-1 4 2m0-1h0m-11 0h-2m20 0h0m-24 0h1m21 0h-1m-15 0h0m-8 1h1m0-1v1m22-1h0l1 1m-3-1h0m-21 0h1m11 0h0m1 0v0m-5 0h0m13 0h0m3 0h0m-8 0h1m-7 1h0v-1m12 0h0m0 0v1m1 0h0m-11 0v0m-4 0h0m-9 0h1m10 0h1" style="fill:none;stroke:#000;stroke-width:.783779;stroke-linecap:round;stroke-linejoin:round;stroke-miterlimit:4;stroke-dasharray:none;stroke-opacity:1" transform="translate(-16 -34) scale(.40963)"/>
  </g>
</svg>
