<svg xmlns="http://www.w3.org/2000/svg" xml:space="preserve" viewBox="0 0 24 24">
  <path fill="#fff" d="M68.41 23.5a10 10 0 0 1-2.82.77 4.96 4.96 0 0 0 2.16-2.72c-.95.55-2 .96-3.12 1.18a4.92 4.92 0 0 0-8.38 4.48A13.93 13.93 0 0 1 46.1 22.1a4.92 4.92 0 0 0 1.52 6.57 4.9 4.9 0 0 1-2.23-.62v.06c0 2.39 1.7 4.38 3.95 4.83a5 5 0 0 1-2.21.09 4.94 4.94 0 0 0 4.6 3.41 9.87 9.87 0 0 1-7.27 2.04 14 14 0 0 0 7.56 2.2c9.05 0 14-7.49 14-13.98 0-.2 0-.42-.02-.63a9.94 9.94 0 0 0 2.46-2.54zM12 .74A11.27 11.27 0 0 0 .74 12a11.27 11.27 0 0 0 11.27 11.28A11.27 11.27 0 0 0 23.28 12 11.27 11.27 0 0 0 12 .74Zm1.74 4.58c.82 0 1.57.08 1.8.08v2.17h-1.28c-.97 0-1.2.45-1.2 1.13v1.5h2.33l-.3 2.4h-2.03v6.09h-2.4v-6.08H8.63v-2.4h2.03V8.48c0-2.03 1.27-3.16 3.08-3.16z"/>
</svg>
