<svg xmlns="http://www.w3.org/2000/svg" xml:space="preserve" viewBox="0 0 24 24">
  <path fill="#fff" d="M68.42 23.5a10 10 0 0 1-2.83.77 4.96 4.96 0 0 0 2.16-2.72c-.95.55-2 .96-3.12 1.18a4.92 4.92 0 0 0-8.39 4.48A13.93 13.93 0 0 1 46.1 22.1a4.82 4.82 0 0 0-.66 2.47c0 1.71.87 3.22 2.18 4.1a4.9 4.9 0 0 1-2.22-.62v.06a4.92 4.92 0 0 0 3.94 4.83 5 5 0 0 1-2.21.09 4.94 4.94 0 0 0 4.6 3.41 9.87 9.87 0 0 1-6.1 2.1c-.39 0-.78-.02-1.17-.06a14 14 0 0 0 7.56 2.21c9.05 0 14-7.5 14-13.99 0-.2 0-.42-.02-.63a9.94 9.94 0 0 0 2.46-2.54zM12 2.81c3 0 3.35.01 4.53.07 3.04.14 4.46 1.58 4.6 4.6.05 1.17.06 1.53.06 4.52 0 3-.01 3.35-.07 4.53-.14 3.01-1.55 4.46-4.59 4.6a77.5 77.5 0 0 1-4.53.06c-3 0-3.35-.01-4.53-.06-3.04-.14-4.46-1.6-4.6-4.6A77.82 77.82 0 0 1 2.81 12c0-3 .01-3.35.07-4.53.14-3.01 1.55-4.46 4.59-4.6 1.18-.05 1.54-.06 4.53-.06zM12 .8C8.96.8 8.57.8 7.38.86 3.3 1.04 1.05 3.3.86 7.38.8 8.58.79 8.96.79 12s.01 3.43.07 4.62c.18 4.07 2.44 6.33 6.52 6.52 1.2.06 1.57.07 4.62.07 3.04 0 3.43-.01 4.62-.07 4.07-.19 6.34-2.44 6.52-6.52.06-1.2.07-1.58.07-4.62s-.01-3.42-.07-4.62C22.96 3.3 20.7 1.05 16.62.86A73.8 73.8 0 0 0 12 .79zm0 5.45a5.76 5.76 0 1 0 0 11.52 5.76 5.76 0 0 0 0-11.52zm0 9.5a3.74 3.74 0 1 1 0-7.48 3.74 3.74 0 0 1 0 7.48zm5.98-11.07a1.35 1.35 0 1 0 0 2.7 1.35 1.35 0 0 0 0-2.7z"/>
</svg>
