<svg xmlns="http://www.w3.org/2000/svg" viewBox="0 0 24 24">
  <path fill="#fff" d="M68.41 23.5a10 10 0 0 1-2.82.77 4.96 4.96 0 0 0 2.16-2.72c-.95.55-2 .96-3.12 1.18a4.92 4.92 0 0 0-8.38 4.48A13.93 13.93 0 0 1 46.1 22.1a4.92 4.92 0 0 0 1.52 6.57 4.9 4.9 0 0 1-2.23-.62v.06c0 2.39 1.7 4.38 3.95 4.83a5 5 0 0 1-2.21.09 4.94 4.94 0 0 0 4.6 3.41 9.87 9.87 0 0 1-7.27 2.04 14 14 0 0 0 7.56 2.2c9.05 0 14-7.49 14-13.98 0-.2 0-.42-.02-.63a9.94 9.94 0 0 0 2.46-2.54zm-58.81-8v-7l6.15 3.5Zm13.69-9.2a2.96 2.96 0 0 0-2.09-2.1c-1.83-.5-9.2-.5-9.2-.5s-7.37 0-9.2.5A2.96 2.96 0 0 0 .7 6.3C.22 8.13.22 12 .22 12s0 3.86.5 5.7a2.96 2.96 0 0 0 2.08 2.1c1.83.5 9.2.5 9.2.5s7.37 0 9.2-.5a2.96 2.96 0 0 0 2.09-2.1c.49-1.84.49-5.7.49-5.7s0-3.86-.5-5.7"/>
</svg>
