<svg xmlns="http://www.w3.org/2000/svg" width="32" height="32">
  <path fill="none" stroke="#000" stroke-linecap="round" stroke-linejoin="round" stroke-width=".2" d="M14 3h0m0 0s0 1 0 0m0 0h0m1 1c0 2-1 0 0 0l1-1c0 2 1 1 1 1m-5-1v1m2-1h0m0 0h0m-3 1s-1-1 0 0v2s0-1 0 0m1-3 1 1m0-1v1h0m1-1v1m0-1v1m0-1c0 1 0 0 0 0m0 1V3m1 0v1m6 0c-1 0 0-1 0 0h1c0 1 1 2 0 0l1 1h1v1h-1m-8-2h0V3m-1 0 1 1m-3-1v1m2-1v1m0-1h0m0 0v1m0-1v1m2 0h0m-3 0h1m0 0h0m0 0h0m-1 0h0m1 0h0m-1 0h1m1 0h0m2 0h0m-6 0c1 0 0 1 0 0zm1 0h0m4 0-1 1 1-1m-1 0h0m4 1c1 0 0-2 1-1 0 0 0 1 0 0M10 4c-1 0 0 0 0 0m2 0h0m4 0c1 0 0 1 0 0m-3 0h0m1 0h0m3 0h0m4 0c1 1 0 2-1 1V4m1 0h0m0 0h0M11 4v1c-1 1-1-1-1-1m6 0h0m-4 0-1 1m1-1h0m2 0h-1 1m1 1h1l-1 1h0m6-2h0m0 0v1m-8-1s-1 1 0 0zm1 0v1m3-1v2m-7-2c0 2-2 1-1 1h1m8 1V5h1c0 2 0-1 0 0h0m0 0s0-1 0 0m-5 0h0M9 5h0m2 0h0m5 0h0m3 0h0m3 0h0m-7 0h0m-4 0h0m5 0h0m0 0h0m-3 0h-1 1v1m3-1h0m0 0h0m5 0h0m-2 0h0m0 0h0m3 0h-1m-7 0h0m2 0h0m-2 0h0m0 0 1 1m4-1h0m4 0h0m-8 0zm6 0h1m-2 0c-1 0 0 1 0 0m4 0h0M14 5v1m0-1v1m4-1h0-1m6 0h0m1 0h0M11 5h0m4 0h0m4 0h0M9 5h0m4 0h0m2 0h0m2 0h0m-2 0h0m1 0h0m-6 0c1 0 0 1 0 0m2 0c-1 0 0 1 0 0m1 0h0m2 0v1m1-1h0m-1 0h0m-4 0h1m0 0h0m2 0v1m-1-1h0m2 0h0m3 0h1m0 0h0m-3 1s0-1 0 0m2-1-1 1m1-1h0m-8 0v1m10 0 1-1m4 0v1M15 5h0m3 0v1m2-1v1m2 0h1-1m-4-1h0m6 0v1M13 6V5m1 0v1m3 0h0m0 0h0m4 0h-1m-4 0h0m1 0c-1 1 1 1 0 0 0 0-1 0 0 0m1 0h0m-1 0h0m1 0h0m-1 0h0m1 0h0m2 0c-1 0 0-1 0 0m-2 0h0m0 0h0m3 0h1M10 6h1-1m7 0h0m-3 0h0m11 0h0m-7 0h0m-6 0c1 0 0 1 0 0h0m13 0c-1 0 0 1 0 0m-6 0h0m2 0h0m2 0h0m-5 0h0m-7 0h0m3 0h-1 0zm0 0h0m3 0h0m1 0h0m5 0h0m0 0h0m-3 0h0m1 0h0m-1 0c1 0 0 1 0 0m-6 0h0m0 0h0m3 0h0m2 0c1 0 0 1 0 0m-2 0h0m8 0h1M14 6h0m4 1V6m0 0h0m4 0h0m-6 0h0m4 0h0m3 0v1h-1c1-1 1 1 1 1h0m2-1s-1 0 0 0V6m-3 0h0m-1 0h1m0 0h0m-6 0c0 1 0 1 0 0m-1 0h0m10 0-1 1c0 1 0 2-1 1h1M8 8V6v1m12-1h0m-7 2V6h0m1 0h0m0 0h0m2 0h0m4 0h0m2 0h0m-1 0h0m1 0c-1 1 0 1 0 0M7 6v1h0m1-1h0m3 0 2 2h-1m4-2h0M7 7V6m11 0h1m6 0v1M7 6h0m1 0h0m13 0h0m-8 0h0m1 0v1m11-1v1m-6-1 1 1m1 0h0m5-1v1M8 6v1M6 7h1m1 0h0m13 0h0m-8 0h0m5 0h1m3 0h0M8 7h0m4 0h0m2 0h0M6 7h0m8 0h0m-4 1V7h1c-1 1 0 1 0 0v1m3-1h0m6 0h0m1 0h0M7 7h0m0 0h0m1 0h0m9 0h0m4 0h0m0 0h0M8 7h0m6 0h0M6 7h1m6 0h0m6 0c0-1 1 1 0 0h0m2 0h0M7 7h0m6 0h1M7 7H6m10 0v1m4-1h0m1 0h0M7 7h0m1 0h0m6 0h-1 0m5 0h0m3 0h0M7 7h0m7 0h0m5 0h0m2 0h0m-4 0c1 0 0 1 0 0m2 0h0m7 0v1M13 7h0m0 0h0m5 0h1m0 0h0M7 7h0m9 0v1M7 7h0m14 0h0M8 7l1 1m5-1h0m2 1h1l-1 1c-1-1 0 0 0 0m1-2h0m2 0h0M8 7h0m10 0h0M6 7h0m0 0h0m1 0v1m12-1h0M6 7h0m8 0v1h0m7-1h0M6 7h0m15 0v1M7 8l1-1m2 0h0M7 7h0M6 7h1m18 1V7v1m-4-1v1m0-1h0m3 0h1M7 7 6 8m2-1v1M6 7h0m12 0v2-1m8 0c-1 0-1-1 0 0M7 7v1m4-1v1m12-1v1M7 7v1m12 0h0zm7 0h0M6 8h0m1 0h0m18 0h0M10 8v1h1M7 8h0m5 0h0M8 8h0m15 0h0M7 8h0m14 0h-1zM10 8h0M8 8s0-1 0 0M7 8H6s0 1 0 0m1 0h0m1 0h0m8 0h0M7 8h0m2 0h0m8 1V8h1m2 0h0M5 9l1-1h0m1 0h0m1 0h0M7 8h0m6 0c-1 1 1 0 0 0 0-1 0 0 0 0m10 0h1m0 0c0-1 1 0 0 0M7 8h0m1 0h0m13 0h0m1 0h0M6 8h1m6 0 2 1M7 8h0m1 0h0m9 0 1 1m4-1h0M10 8l1 1V8m11 0 1 1V8M6 8h0m7 0h0m9 0h0m5 0h0M8 8v1m11-1h0m-9 0h0m4 0h0m1 0c0 1-1 0 0 0m7 0h1m3 0h0m-4 0h-1 0M7 8h0m1 0h0m4 0c0 1-1-1 0 0m11 0h0M9 8v1M7 8h0m1 0h1m18 0v1l-1 1 1-1M7 8h0m1 0h0m17 0c1 0-1 1 0 0zm-5 0h0M7 8h0m19 0c1 0-1 1 0 0M12 8h0m7 0s-1 1 0 0zM8 8h0m4 0h0m1 0h0m3 0h0m4 0c0 1-1 1 0 0M8 8h0m14 0h-1m1 0h0M6 8h0m14 0h0M7 8h0m5 0h0m10 0h0m0 0h0m3 0c0 1-1 1 0 0M7 8h0m1 0h1m1 0s0 1 0 0m4 0 1 1M6 8h0m1 0c0 1 0 0 0 0zm0 0h0M6 8h1m4 0h1M6 8h0m1 0h0m12 0v1M6 8c0 1 0 0 0 0zm1 0h0m2 0h0m6 0v1M7 8v2-1m0-1h0m0 0v1m2-1v1m3 0c-1 0 1-1 0 0m14 0c-1 0-1-1 0 0M13 9h0m11 0zM13 9h0M7 9h0m10 0h0m2 0h0M9 9h1m1 0h0m9 0h0M6 9h0m13 0c1 0-1 0 0 0zM5 9h0m3 0h0m0 0h0m6 0v1-1zM9 9h0m0 0v1m12-1h1m2 0h0m0 0h0M7 9h0m2 0h0m12 0h0m5 0h0M16 9h0M5 9h0M4 9h0m2 0h1m1 0h0m0 0h0m17 0h0m-8 0h1M4 9v1h0m2-1v1m15-1h0m1 0h0m3 0h0m-5 0h1M4 9v1m3-1h0m2 0h0m2 0v1m4-1h0m10 0h0m0 0c2 0 0 2 0 0M6 9h0m13 0h0M9 9h0m10 0h0m2 0h0M8 9h1m2 0h1c1 0 0 2-1 1V9m11 0h0M9 9h0-1m8 0h0m5 0h0M9 9h0m12 0h0m0 0h0m4 1c0-2 0 0 0 0zm-6-1h-1m3 0h1M4 9h0m2 0 1 1m8-1h0M4 9h0m5 0h0m1 0 1 1h0m1-1h0m4 1c-1 1 0-2 0 0V9M6 9l1 1m-1 0V9m0 0h0m0 0h0m5 0h0m13 0c1 0 0 1 0 0zM9 9C8 9 8 9 9 9M7 9h0m2 0 1 1m1-1h0M7 9h0m1 0s0 1 0 0zm1 0h0m19 0c1 1-2 1 0 1h0M5 9h0m2 0h0m2 0h0M7 9zm6 0v1m14-1h1M17 9c0 1-1 1 0 0zm7 0s-1 1 0 0zM13 9h0m-9 1V9m6 1V9m3 2V9m3 0v1M5 9v1m8-1h0m14 0h0M10 9h0m6 0h0m2 0h0m2 1 1-1M5 10c-1 0-1-1 0 0m3-1h0m2 0v1m10-1v1M6 10h0m15 0h0m-9 0h0m9 0h-1 0M9 10h0m3 0h0m3 0h0m0 0h0m3 0h-1 1m-6 0h0m-6 0h0m6 0h0m0 0h0m13 0h0M9 10h1m1 0h0m14 0h0m-7 0c0-1 1 0 0 0M4 10h0m14 0h0m5 0c0-1 1 0 0 0m4 0h0M9 10h0m2 0h0m12 0h1-1m3 0h0m1 0h-1 1m-14 0v1c0 1-1 0 0 0m3-1h0m-6 0h0m2 0h0m-8 0h0m0 0h0m5 0h0m5 0v1s1-1 0 0l1 1m5-2h0m3 0h0m-3 0h0M7 10h0m3 0h0m4 0 1 1m1-1h0M4 10h0m1 0h0m20 0h0M6 10h0m4 0h0m12 0s1 1 0 0c-1 1 0 0 0 0m4 0h-1m-15 0h0m6 0h0m4 0h0m2 0h0M5 10v1H4m5-1H8h0m2 0s-1 0 0 0h0m-4 0c1 0 0 1 0 0m16 0h0m5 0h0M5 10h0m5 0h0m6 0h0m-7 0h1m6 0c1 1 0 1 0 0zM6 10h0m9 0h1m4 0h0m8 0c1 0-2 0-1 1 0 0-1 0 0 0l-2 1M7 10h1m2 0h0m14 0h0M7 10h0m3 0h0m-3 0h1m0 0h0m12 0h0m3 0c-1 1-1 0 0 0m5 0h0M7 10h0m-1 0h0m19 1v-1l-1 2m-5-2h-1 1m2 0h0M6 10h0m1 0h0m5 0c0 2 0 1 0 0m-1 0v1m1-1h0m-1 0h0m8 0h0M6 10h0m5 0h0m7 0h0M8 10s0 1 0 0m2 0v1m0-1v1m-3-1c0 1 0 0 0 0m0 1h1m0-1h0m2 0h0m14 1c-1 0 0-1 0 0v1m3-2h0M2 10l1 1m4 0v-1m3 0h0m1 0v1m-8 0H2m3 0h1v1m1-1h0m12 0h0m-8 0h0m3 0h0m7 0c-1 0 0-1 0 0M7 11h0m0 0h1m-2 0h1m17 0h0M7 11h0m9 1v-1 1m2-1h0M5 11h0m21 0c-1 0 0-1 0 0M8 11h0m14 0c1-1 2 0 0 0v1m-1-1v1M3 11h0m1 0h1m1 0h1m0 0h0m14 0h0m6 0h0m-17 0c1 0-1 0 0 0h0m0 0h0m15 0v1h-1M6 11h0m2 0h1m4 0h0m7 0h0m1 0h0M5 11h0m2 0h0m3 0h0m10 0h0M7 11h0m6 0h0m4 0h0c1 1 0 2-1 2h1l-1 1m-9-3h0m0 0h0m0 0h0m14 0h0M2 11h0m7 0h0m9 0h1m3 0h0m-2 0h0M3 11h0m9 0c-1 0 0 0 0 0h0m0 0h0m-9 0h1m0 0h0m5 0h1m-6 0h0m6 0h0m2 0h0m7 0h-1m2 0h1m0 0h0m-9 0h-1 0m9 0h0m2 0h0M8 12v-1 1m2-1h0m10 0h0m3 0h0m-6 0h0m3 0h0m1 0h1m-3 0h0m3 0h0M7 11v1h0m3-1h0m2 0h0m6 0h0m1 0h0m3 0h0m-6 0h1m-2 0v1m6-1h0m-5 0h0m4 0s-1 0 0 0zm0 0h0m1 0h0m0 0h0m2 0h0M7 11h0m1 0h0m4 0s0 1 0 0m-5 0h0m1 0h0m4 0h0m9 0h0M8 11h0m4 0h0m9 0h0m1 0h0M3 11h0m1 0zm0 0h0m4 0h0m12 0h0m1 0h0M3 12v-1m16 0h1m0 0h0m0 0h0m0 0v1M4 11H3m2 1h1v-1m1 0h0m3 0c1 0 0 2 1 1m9-1h0M4 11h1-1m16 0h0m0 1-1-1m2 0h0M5 11h0m6 0h1m4 0c0 1 2 0 1 1-1 0 1 0 0 0h0m2-1h0M4 11h0m17 1v-1m-9 0h0m-4 0h0m16 0h0M4 11h0m9 1c-1 0-1-1 0 0m2-1h0m2 1v-1h0M7 11h0m0 0h0m2 1c0-1 1 0 0 0h0m-6-1h0m4 0v1m0-1v1m1-1v1m-6-1v1m5-1v1m0-1h0m2 1c0-1 1 0 0 0m13-1h0M2 12h0m5 0h0m6 0c0-1 1 0 0 0zm3 0h0M3 12s1-1 0 0m22 0h2M5 12zm1 0h0m12 0h0m2 0h0m1 0c-1 0 0-1 0 0M4 12h1m9 0h-1m7 0h0M9 12h0m10 0c0 1 0-1 0 0m1 0h0M6 12h0m0 0h0m1 0h0m12 0h0M4 12h1m2 0h1m5 0h0m-3 0h0m5 0h0M4 12h0m3 0h0m4 0h0m1 0h0m-5 0h0m11 0h0m1 0h0m2 0h0m4 0h0zM4 12c-1 0 0-1 0 0m4 0h0m-4 0h0m1 0h0m7 0h0m3 0h0-1m9 0s-1 0 0 0m1 0h-1 0M8 12h1m2 0h0m1 0h0m9 0h0M8 12h0m1 0h0m1 0h0m2 0h0m3 0h0m4 0h1m-9 0h0m4 0h0m0 0h0m-6 0h0m4 0h0m12 0h0M3 12h0m2 0h1m3 0h0m4 0h0m-9 0h0m5 0h0m5 0h1m12 0h0M8 12h0m2 0h0m5 0h0m-1 0h0M3 12h0m5 0h0m6 0c1 0 0 1 0 0m1 0h0m8 0h0M2 12h1m6 0h0m0 0h0m6 0h0m-3 0h0m1 0h0M3 12h0m0 0h0m1 0h0m8 0h1m13 0s-1 0 0 0M9 12h1m2 0c-1 0 0 0 0 0m0 0h0m3 0h0m1 0h0m2 0h0M6 12H5m6 0h1m0 0h0m10 0h0m2 0h1l-1 1h0M7 12s-1 0 0 0h0m8 0h0m3 0h0m0 0h0m3 0h1M7 12h1m3 0h0m8 0h0m-8 0h0m5 1v-1M3 12h1m5 0h0m13 0h-1M3 12c-1 0-1 0 0 0m2 0h0m10 0h0m12 0h0M9 12h0m4 0v1m-4-1h0m11 0h1M7 12h0m3 0h0m3 0h0m-8 0H4v1m5-1h0m5 0h0M2 12h0m3 0 2 1m7-1h0m13 0c0 1 0 0 0 0h1m-18 0h0m10 0v1M2 12h0m10 0h0m0 0h0m2 0h0m13 0h0M4 12zm4 0h0m2 0h0m11 0h0M5 12h0m7 0h0m15 0c1 1-2 0 0 0m0 0h0M4 12h0m0 0h0m4 0h0c1 1-1 1-1 1m5-1h0m8 0h0m0 0h0m1 0h0m3 1c-1 0-1-1 0 0M7 13v-1m5 0h0m1 0c1 0 0 1 0 0zm3 0h0m11 0h0M7 12h0m0 0h0m2 0c1 1 0 1 0 0zm3 0h0m1 0h0m-1 0h0m8 0h1m0 0h0m6 0c1 1 3 0 1 1-1 0-1 0 0 0M7 12h0m3 0h0m16 0h0m1 0h0M7 12h0m14 0h0m7 0h0m-17 0h0m-7 0h0m22 0h0M7 12h0m5 0h0m2 0c1 1 0 1 0 0zm11 0v1m2 0 1-1m-1 0h0M7 12h0m0 0v1m13-1h0m0 0h0m-8 0v1m-4-1h0m-1 0h0m0 0h1m12 1h0m0 0v-1M8 12v1m-1 0h1m12 0h0M9 13h0m5 0h0M4 13h0m5 0c1 0 3 0 2 1h0m3-1h0m-7 0h0m0 0h0m13 0h0M9 13h0m3 0c0-1 0 1 0 0h1m10 0c1-1 0 0 0 0M6 13c0 1 0 1 0 0-2-1 1 0 0 0h0m1 0h0m1 0H7m-4 0h0m1 0h0m9 0h-1m8 0h0m2 0s0 1 0 0h0M9 13h0m-6 0h0m4 0h0m0 0h0m5 0h0m-5 0h0m12 0h1-1M5 13h0m8 0h0m-6 0h0m0 0h0m5 0h0m15 0s-1 0 0 0h0m-17 0v1m2-1h1m13 0h0m-13 0h0m7 0h0m-7 0h0m3 0h0m1 0c0-1 0 1 0 0M5 13h0m3 0h0m4 0h1m-4 0c1 0 1 1 0 0zm7 0h0m1 0h0m-1 0h0m-7 0h0m16 0c1 1-2 0 0 0h0m-12 0c1 0-1 1 0 0m0 0h0m3 0h0m-9 0 1 1h0m13-1c0 1 0 0 0 0m-9 0h0m17 0v1h1c-2 1 0 1 1 1 0 0 1-1 0 0 0 0-1 0 0 0M7 13l-1 1H5m13 0c1-2 1 0 0 0v1m8-2h0m-13 0 1 1m7-1h0m3 1c-1-1 1-1 0 0M8 13h0m21 0h0m-16 0c1 0 0 2 1 1m9-1s0 1 0 0zM7 13h0m17 0h0m-7 0h0m-9 0v1m9-1h0M7 13h1m13 0h0M7 13h0m-1 0 1 1m0-1h0m19 0h0m2 0h0m-16 0v1m8 0 1-1M4 13c1 0 0 2 1 1h0m11-1v1m4-1v1m8-1h0m-16 0v1m8-1h1m-9 0h0m-8 0c0 2-1 1-1 0-1 1-1 0 0 0m3 0v1m17-1h0m6 0-1 1M6 13v1m0-1v1m2-1v1m13-1h0m5 1c0-1 0 0 0 0M1 14h1m4-1h0m10 0v1m4-1v1l1-1m1 1c1 0-1 0 0 0m8-1h0M6 14h0m5 0h0m2 0h0m7 0h0m6 0h0zM1 14h0m7 0s-1 0 0 0m8 0h0M2 14h0m5 0h0m1 0h1m-7 0h0m9 0h0m1 0h0m13 0c1 0-1 0 0 0M1 14h0m4 0h0m12 0h0M3 14h0m2 0h0m3 0h0m0 0h0m0 0h0m16 0h-1 1M2 14h0m10 0h0-1m2 0h0m-5 0h0m4 0h0m13 0h1M2 14h0m1 0h0m6 0h0m9 0v1M2 14h0m4 0h0m19 0h0M2 14h0m5 0h0m-1 0H5m1 0h0m1 0h0m3 0h0m-8 0h0m9 0c1 1-1 0 0 0zm7 0h0M4 14h0m1 0h0m26 0h0M7 14h0m1 0h0m5 1v-1m1 0h0m-7 0h0m20 0h0M5 14h0m2 0h0m2 0v1l1 1m-3-2h0m4 0h0m-9 0h0m0 0h1m4 0h0m11 0h0m2 0c-1 0 0 0 0 0M2 14h0m1 0H2h0m6 0H7m4 0h0m-9 0h0m5 0h0m2 0-1 1m3-1h0m-9 0h0m0 0h0m3 0h0m2 0h0m18 0c1 1 0 0 0 0M2 14h0m2 0h0m4 0H7h0m2 0s-1 0 0 0m-2 0h0m0 0h0m11 0h0M8 14h0m3 0v1m9-1h0m4 0c1 0 1 1 0 0M2 14h0m6 0h0m5 0h-1 0m-4 0h0m0 0h0m3 1-1-1m6 0h0m7 1c-1-1 2-1 0-1v1m2-1h0m-14 0h0m3 0 1 1-1-1M3 14l-1 1m4-1h0m1 0zm0 1v-1m0 0v1m-5 0h4m1-1h0m0 0 1 1m3-1h0m11 0c1 1 0 1 0 0m-1 1c-1-1 1-1 0 0m-3-1h0M3 14h0m5 0h0m0 0h1m7 0s0 1 0 0zm0 0c0 1 0 1 0 0m-8 1h0m4 0c-1 0 0-1 0 0m6 0h0M8 15h0m8 0h0zm-9 0h0m9 0h0m2 0h0m1 0h0M7 15h0m3 0h0m8 0h0m8 0c0-1 0 0 0 0zm-7 0s-1 0 0 0zm0 0h0M8 15h0m1 0h0m2 0h0m3 0h0m5 0h0m0 0h0m7 0c-1 1-1 0 0 0M9 15h0m21 0h1m-21 0h0m12 0h2-2l-1 1M5 15h0m-3 0h0m4 0h0m5 0h0m2 0h0m-7 0h1m4 0h0m21 0v1M5 15c0 1-2 0 0 0h0m20 0h0m6 0h0m-15 0h0M6 15h0m1 0h0m3 0h0m21 0h0M7 15h0m9 0h0m-7 0H7m20 0h-2 2m2 0h-1m-15 0v1m6-1h-1m13 1v-1M7 15h0m-1 0h0m1 0c1 0 0 1 0 0m12 0h0m1 0h2m7 0h0m-19 0h0m10 0c-1 0 1 2 0 0M5 15h0m3 0h0m20 0h1m-18 0h-1m3 0v1m13-1h0m-6 0h-1m1 0h0m0 0h0m9 0h0M8 15h0m6 0h0m0 0h0m7 0h0m10 0h0M5 15h0m11 0zm-5 0h0m3 0h0m-5 0h0m2 0s0 1 0 0m3 0h0m1 0h-1v1m-9-1h0m6 0h0m9 0h0m11 0h0M7 15l1 1h0m3-1h0m3 0h0m2 0v1m0-1v1h0m0-1v1m-2-1h0m7 0v1M7 15h0m7 0v1h0m2 0s0-1 0 0m-9-1v1m1-1h0m2 0v1m4-1h0m-7 1h0m-1 0h1m11 0h1l-2 2h0m-7-2h0m4 0h0m11 0c1 0-1 0 0 0m2 0c1-1 2 0 0 0h0M3 17c-1 1-1 0 0 0l1-1s1 2 1 0h1m10 0h0m-8 0h0m2 0h0m14 0c1 1-2 0 0 0zm4 0c1-1 2 0 0 0zm-17 0h0m0 0h0m-5 0h0m4 0c1 1-2-1 0 0m20 0h0M8 16h0m3 0h0m14 0h0M8 16h0m0 0h0m3 0h0m-8 0c1 0 0 1 0 0m7 0h1m0 0h0m-3 0h0m2 0h0m-3 0h0m0 0h0m23 0h0m0 0h0m-20 0h0m1 0h0m-4 0h1m3 0h0m-3 0h0m0 0h0m2 0h0m22 0h0m0 0h-2M5 16c-1 0 0-1 0 0m3 0h0m8 0h0m12 0h0m2 0c-1 0 2 0 0 0h-1m-8 0h1-1M7 16h0m18 0h0zM9 16h0m13 0h0m5 0h0M4 16h0m0 0h0m6 0h1m8 1 1-1-1 1m-9-1h0m1 0h0M1 17v-1l1 1 1-1v1m25-1c1 0 0 1 0 0M3 16h0m4 0h0m7 0h-1m-6 0h0m4 0h0m0 0c1 0 1 1 0 0m0 0h0m9 0h0zM6 16s0 1 0 0zm-1 0h0m5 0h0m20 1h0s-2 0-1-1c0 1 0 0 0 0M1 16h0m7 0c0 1-1 0 0 0h0m23 0v1M5 16h0m12 0h0m9 0c1 1-1 1 0 0M9 16c2 1-1 1 0 0zm3 0v1m15 0c-1-1 2 0 0 0h0m-13 0c0-1 0 0 0 0m15 0h0M1 17h0m16 0h0M1 17h0m17 0h-1 0m1 0h-1M3 17s-1-1 0 0m11 0h0m0 0h0m15 0h0M1 17h0m4 0h1m2 0c2 0 0 1 0 0m6 0h0m11 0h0M1 17h0m5 0c1-1 1 0 0 0h0m19 0h1m0 0h0M9 17h0m0 0h0m11 0h-1 1M1 17h0m6 0h0m7 0h0m3 0h0m9 0h0m2 0h0m-14 0h0m0 0h0m12 0 1 1m-1-1h1M9 17h0m9 0h0m7 1-1-1h2m-5 0h0M6 17h0m1 0h1-1 1m1 0h0m-8 0h0m4 0s1 1 0 0h0m1 0h0m21 0h1l2 2m-2-2h1m-9 0h0m1 0h1-1m10 0h0M1 17s-1 0 0 0m12 0c1 0 0 1 0 0zm11 0h-2v1m-3-1h0M7 17h0m-4 0h0m14 0h0M1 17H0m8 0h0m6 0zm0 0h0m15 0h0M5 17h0m8 0s-1 1 0 0zm16 0h0m0 0c1 0 0 1 0 0M0 17h0m14 0h0m0 0h1m2 0-1 1h1M1 17h0m0 0h0m9 0h0m4 0h0m10 0 3 1h0M0 17h1m0 0h0m0 0h0m2 0h0m2 0h0m6 1v-1 1m4-1h0m3 0h0m12 0h1M1 17h0m4 0h0m17 0h0M1 17h0m8 0 1 1m5-1h0m16 0h0M0 17h0m21 1c-1 0-2 0-1-1h1m10 0v1M1 17h0m5 1c1-1 1 0 0 0m2-1v1h1m2-1s0 1 0 0zm4 0h0m7 0h0m8 0 1 1h0M0 17h1m8 0h0m13 0h0m4 0-1 1m5-1h0m-19 0h0M0 17h0m1 0h0m27 0 1 1-2 1h0m4-2h0M1 18h2l-2 1s2 0 1-1m2-1s-1 1 0 0zm-3 1h0m7-1 2 1m12-1v1m4-1v1M1 17v1m0 0h0m8 0h0m-8 0h0m0 0h0m13 0c-1-1 0 0 0 0m8 0h3M8 18h0m20 0s-1 0 0 0m3 0h0m-20 0h1m10 0s0-1 0 0 0 1 0 0m-3 0c0-1 0 0 0 0M8 18h0m7 0h0m-1 0h0m3 0h0m0 0h0m10 0h1m-17 0h0zm12 0c-1 0-1 1 0 0l1 1h0M4 18h0m0 0zm0 0h0m19 0h0m4 0h0m1 0h0M3 18h1m5 0h0m1 0h0m4 0c0 1 0 0 0 0m7 0h1m6 0h0M8 18c-1 0-1 0 0 0m14 0h-1m2 0h0m-9 0h0M4 19l2-1m12 0h0m13 0h0m0 1v-1h0M4 19l-1 1H2l3-2m1 0 1 1m5-1v1-1m9 0h0m-9 0h0m15 0h-2m-2 0 1 1m3-1h0M3 18h0m11 0h0m17 0h0m-9 0h0m0 0h0m-1 1h-2v-1l2 1m6-1h0M3 18h0m28 0h0m-17 0h0m-1 1c-1-1 0 0 0 0m3 0c0-1 0 0 0 0m15-1h0m0 0h0M2 18h1m7 0c-1 1 1 0 1 1m11-1h0m9 0h1M8 18h0-1m1 0h0m19 0h0m-14 0h0m-4 1c-1 0 0-1 0 0h0m13-1h0m7 1c1-1 0 0 0 0h1m-5-1h0m3 0h0M5 19s0-1 0 0zm22 0h-1 0M6 20l-1-1m3 0h1m3 0h0m15 0h0m-14 0h0m-8 0h2m3 0h1m8 0s1-1 0 0m6 0h0M3 19h0m26 0h-1m-15 0h0m12 0h0m2 0h0-1m1 0h0m-14 0h0m12 0s1 1 0 0h1M7 19h2m22 0h-1m-5 0h0m0 0h0m-1 0h1m-3 0h-1 1M1 19h0m0 0h0m0 0h1m0 0h0m24 0h0m-5 0h0m1 0c1 1-1 1 0 0 0-1 3 1 1 1h0m7-1h0M1 19h0m12 0h0m7 0h0m6 0h0m-8 0c1-1 1 1 0 0m10 0h0m2 0h0M2 21s-1 0 0 0l2-1 1-1v1h0m2-1 1 1m1-1h1c-1 0-2 0-1 1v-1h0m15 0h0m4 0h0m2 0h0m-10 0h0m5 0h0m2 0h0m-1 0h1m-9 0c-1 1-1 0 0 0m6 0h0m4 0h-2m4 0h1m-11 0h0m6 0h0m0 0h0m1 0h0m4 0v1M7 19h0m0 0h0m6 0s-1 0 0 0m-7 0h0m11 0c0 1-1 0 0 0m8 0h0m-4 0c0 1-2 0 0 0m3 0h0m5 0h0M7 19s0 1 0 0m4 1 1-1v2-1m8-1h0M7 19h0m17 0h0l-1 1m6-1h0m2 0h0m-1 0h0m1 0h-1m-2 0-1 1h0m1-1h0m2 0h0m-2 0h0m1 0h0m2 0h0m-13 0h0m8 0h0m4 0h0m0 0h0M8 19h0m-1 0h0m2 0v1m5 0c-1 0 0-1 0 0zm14-1v1M5 19h0m1 0-1 1m23 0h1m0 0h1M7 19v1m19-1v1m-1 0h-1m1 0h0m3 0h1M5 20h0m4 0h0m19 0h0m2 2c0 1 1 1 0 0-1 0 2 0 1-1-1 0 1 0 0 0v-1h0M4 20h0m1 0h0m18 0h0m0 0h0m1 0h0M3 20h0m0 0h0m21 0zm1 0h0m3 0h0m2 0h0m1 0h0M8 20h0m19 0h0m-6 0h0m8 0h0m-1 0h0m-9 0c1-1 1 0 0 0zm9 0h0m-18 0h0m19 0h0m-5 0h-1M7 20H6h1m3 0h1m-5 0h0m1 0c1 1 0 0 0 0h0m21 0zM5 20h1m19 0h1m2 0h1m-5 0h0m0 0h1m4 0h0m-18 0s-1 1 0 0m3 0h0m12 0h1M4 20s-1 0 0 0zm8 0h-1m18 0h0m-2 0h0m2 0h0M9 20c0-1 2 1 0 0h0m4 0c1 0 0 1 0 0zm7 0v1s0-1 0 0m8-1h0m-14 0h0m4 0h1m10 0h0m0 0h0m-7 1c-1-1 0-1 0 0m6-1h0M8 20c2 0-1 1 0 0m3 0h0m18 0h0m-13 0c1 0 1 1 0 0m7 0s0 1 0 0zm4 0h0m1 0h0m-1 0h0m1 0h0m-11 0v1m4-1c0 1 0 0 0 0zm1 0h1M3 20h0m15 0 2 1h0m-6-1h0m-4 0h1m16 0h1m-2 0s-1 1 0 0M6 20c2 1-1 1 0 0h0m6 0c2 1 0 1 0 1m7-1h0m-8 1h1m0-1-1 1m1-1v1h0m15-1h1m-14 0c0 1-1 1 0 0zm6 0v1m2-1v1-1m-2 0v1m10 0h0m-19 0h1m0 0c-1 0 0 0 0 0m0 0h0m14 0h0m-10 0c1-1 1 1 0 0h0m11 0c-1-1 0 0 0 0m-15 0h0m0 0h0m-9 0h0m9 0h0m8 0h1m-11 0c-2 0 0-1 0 0m2 0h0m8 0h1m1 0c-1 1-2-1 0 0m5 0h0m-15 0h0m6 0s-1 0 0 0zm9 0h0m-5 0c1-1 1 0 0 0zm-3 0h0M6 21c-1 0-1 0 0 0m1 0s-1 0 0 0m0 0h0m6 0h0zm-6 0c1 0 0 1 0 0m6 0s0 1 0 0m-8 0h0-1m3 0h0m7 0h0M3 21h1m9 0h0m0 0h0m0 0h0m3 0 1 1-1-1h0m14 0c1 0 0 1 0 0m0 0h0m-10 0h0m2 0h0m-12 0h0m1 0h0m0 0c-1 0 0 1 0 0h0m-9 0v1h1c0 1-3 0-2 1m10-2h0m-8 0h0m0 0h0m4 0h0m3 0h0m-5 0h0m8 0h0m11 2c2 0-1 0 0-1h3l1 1v-1s-1-1 0 0h2M3 21h0m0 0h0m8 0 1 1m-9-1h0m5 0 1 1m8-1s0 1 0 0zm10 0s0 1 0 0zM3 21h0m0 0h0m6 1-1-1m0 1c-1 1-2 0-2-1l2 1m6 0h0m-3-1h0m11 0c0 1-1 0 0 0m4 0h1m2 0h1m-20 0h0m1 0c-1 1 1 1 1 1m10-1h0m9 0h0m-21 0h1m1 0c1 1 0 1 0 0m11 0c1 0 0 1 0 0zM2 22h1m5-1c0 1-1 0 0 0m13 1c0-1 0 0 0 0M5 22c-1 1-1-1 0 0m3-1v1m15 0h-1M3 22c0-1 1 0 0 0h0m19 0h0M3 22h0m11 0s-1 0 0 0h0m4 0s-1 0 0 0zM5 22c1-1 1 1 0 0m13 0h0M4 22c1 0-1 1 0 0m10 0h0M3 22h0m1 0h0m-1 0h0m11 0h0m-2 0h0m0 0h0m2 0h0m0 0h0m0 0h0m-2 0h0m1 0c1 0-1 0 0 0m6 0h0m-5 0h0m10 0c-1 0-1 0 0 0m-10 0h0m-6 0H7m4 1-2-1h0m0 0s3 0 2 1m-2-1h0m13 1v-1l2 1s1-1 0 0M9 22h0m5 0h0m-5 0h0m-4 0 1 1m8-1h0M2 23l2-1h1m2 0h1m2 0h0m-1 0h0m7 0c1 0 1 1 0 0m10 0s0 1 0 0M5 22h0m6 0h0m7 0c-1 1-1 0 0 0M8 22h0m13 1v-1m0 0h0m-10 0h1m12 0h0m3 0v1m-9 0h4M2 23h0m9 0h0m9 0h0M8 23h0m0 0h0m-1 0h0m-1 0h0m0 0h1m13 0h0M7 23h0m1 0h0m-2 0h0m1 0h0m0 0h0m-1 0h0m2 0h0m5 0h-1m-5 0h0m0 0h0m6 0h0m-6 0h0m0 0h0m1 1 1-1m2 0h1m1 0h0m1 0v3l-1 2h0m11-5h0m-13 0h0m2 0h1m-5 0h0m0 0h1m0 0h0m2 0h0m7 5-2-1-1-3 1-1m-7 0h0m0 0h1m-1 0h0m-2 0h0m1 0h1m0 0h0m-2 0v1m0-1v1m0-1h0m0 0h0m0 1h0m0 0h0m6 0h0m0 0h0m0 0h0m0 2h0m-2 3 1-1h0m3 0s0-1 0 0h0m0 0h0m-2 0c1 0 0 1 0 0m0 0h0m0 0h0m3 0h0m0 0s0-1 0 0m-2 0h0m2 0h0m-1 0h0m-1 0h0m2 0h0m0 0h0m-1 0h0m-1 0h0m-2 1 1-1m-2 0h0m3 0h0m2 0 1 1m-3-1h0m2 0h0m-2 0h0m2 0v1m-1-1h1m0 0h0v1m0-1 1 1m1-1v1m-3-1c0 1 0 0 0 0zm1 0h0m1 0c0 1 0 0 0 0m0 0h0m0 0h0m1 0h0m-5 0h0m0 1h1m0-1h1m0 0h0m2 0 1 1m-4-1v1m1-1h0m-2 0h0m0 0h0m-1 0 1 1v-1m2 1h0m1-1v1m-1-1v1m0 0h0m-2 0h-1m5 0h0m-6 0h1m5 0h-1m-3 0h0m-2 0h0m0 0h0m5 0h1m-1 0h0m-5 0h0m3 0h0m0 0h0m-1 0h0m3 0h0m1 0h0m-2 0h0m-2 0h0m3 0h0m0 0h0m0 0h0m-2 0h0m-1 0h0m-2 0h0m2 0h1"/>
</svg>
